<svg id="Layer_1" data-name="Layer 1" xmlns="http://www.w3.org/2000/svg" viewBox="0 0 1000 1000"><defs><style>.cls-1{fill:#fefefe;}.cls-2{fill:#df2929;}.cls-3{fill:#fdf9f9;}.cls-4{fill:#fdf8f8;}.cls-5{fill:#df2a2a;}.cls-6{fill:#e02b2b;}.cls-7{fill:#fdf7f7;}.cls-8{fill:#fefcfc;}.cls-9{fill:#fefbfb;}</style></defs><path class="cls-1" d="M-250-250H750V750H-250Zm499.85,6C-22.22-244.38-243.59-23.16-244,249.53c-.41,271.56,220.42,494,490.9,494.47,275,.47,496.46-219.27,497.1-493.27C744.64-22.17,523.45-243.62,249.85-244Z" transform="translate(250 250)"/><path class="cls-2" d="M249.85-244c273.6.38,494.79,221.83,494.15,494.73-.64,274-222.08,493.74-497.1,493.27C-23.58,743.54-244.41,521.09-244,249.53-243.59-23.16-22.22-244.38,249.85-244ZM188.77,17.67v6.54q0,94.73.08,189.47a53,53,0,0,0,1.8,14.77c5.21,17.6,20.31,27.89,40.36,27.91q56.49.09,113,0c1.68,0,3.36.18,5.05.27l.78,1.56a12.67,12.67,0,0,0-2.62,1.42q-31.15,27.75-62.27,55.56c-5.49,4.9-6.49,10.59-2.48,15.25s9.6,4.64,15.34-.42q16.68-14.7,33.25-29.54l40.1-35.69c11.41,10.15,22.59,20.09,33.77,30.05,13.43,12,26.81,24,40.3,35.9,4.91,4.33,10.39,4.23,14.29.12s3.56-10.05-1.06-14.67c-1.06-1.06-2.2-2-3.32-3l-57.82-51.55c-1.53-1.37-3-2.81-5.55-5.23h6.9c37.16,0,74.32.06,111.48-.07A57.07,57.07,0,0,0,525,254.59c17.22-4.79,28-19.81,28-38.63q.07-96,0-192V17.68h13c9.93,0,13.55-3.6,13.57-13.53q0-28.5,0-57c0-13.79-2.28-16.11-15.85-16.11h-385c-1.5,0-3,0-4.5,0-6.61.23-10.55,3.61-10.6,10.11q-.28,33,0,66c.05,6.67,4.19,10.37,10.82,10.5C179,17.74,183.46,17.67,188.77,17.67ZM-40,289.89c.17,1.52.28,2.17.3,2.83q1.93,63.45,3.85,126.91c.83,26.82,1.38,53.65,2.66,80.44,1.05,21.91,21.7,37.42,43.3,33.46,8-1.46,14.59-5.3,20.4-10.86.71.5,1.29.83,1.78,1.25,12.15,10.69,25.87,13.67,40.73,7s21.5-19.06,22-35.14q2.86-100.46,5.89-200.88a26.73,26.73,0,0,1,.37-3.08c6.39,1,12.43,2.79,18.39,2.57,18.78-.69,32.84-15.68,32.91-34.68q.27-72.75.18-145.48c0-25.55-17.59-48.58-42.4-53.8-11.56-2.43-23.8-2-35.74-2.11a16.93,16.93,0,0,0-10.18,4c-8.22,7-15.9,14.69-23.8,22.09-3.24,3-6.53,6-10,9.23-10.87-10.6-21.16-21-32-30.91a18.83,18.83,0,0,0-10.54-4.38c-7.94-.64-16-.32-24-.16-25.22.5-46.94,16.7-53.58,41-2.1,7.7-2.21,16.1-2.24,24.18-.2,45.16-.13,90.32-.08,135.49,0,15.73,9.37,28.9,23.76,33.47C-58.65,295.22-49.37,294.89-40,289.89Zm236.5,281.88q32.22,0,64.44,0c7.95,0,11.7-3.68,11.71-11.56,0-20,.15-40,0-59.94-.19-21.66-15-38.36-36.4-41.55-6.08-.91-10.78.45-15.06,5.31a32.49,32.49,0,0,1-49.28,0c-4.27-4.91-9-6.25-15-5.35-21.6,3.2-36.35,20-36.45,42-.1,19.48,0,39,0,58.45,0,9.18,3.43,12.59,12.67,12.6Q164.77,571.8,196.49,571.77Zm160,0q31.72,0,63.45,0c9.57,0,13.07-3.44,13.07-12.77,0-19.81.12-39.63,0-59.44a41.15,41.15,0,0,0-30.32-39.46c-8.72-2.4-16.05-2.41-23.29,5.57-12.75,14.06-35.38,12.67-47.78-1.87-4-4.66-8.45-5.9-14.15-5.16-21.29,2.78-36.39,19.68-36.53,41.29-.12,20,0,40,0,59.95,0,8.7,3.28,11.89,12.18,11.89Zm160.5,0q32,0,64,0c7.57,0,11-3.45,11.06-10.89,0-20.33.07-40.65,0-61-.08-21.41-14.82-38.12-36-41.2-5.89-.86-10.49.43-14.64,5.16-13.73,15.64-36.21,15.57-49.93-.13-4-4.6-8.48-5.85-14.19-5-22.47,3.22-37.28,20.08-37.35,42.81-.06,19,0,38,0,57,0,9.75,3.47,13.29,13.13,13.3Q485,571.8,517,571.77ZM84.65-6.3c-.49-6.46-.54-13-1.56-19.36C79.18-50,57.17-69.42,32.62-70.63,6.31-71.91-18.23-55.28-23.58-30.56c-2.6,12-2.65,24.8-2.1,37.16C-24.62,30.16-7.49,50.23,15,56A55.24,55.24,0,0,0,75.43,32.47C83.1,20.61,85,7.49,84.65-6.3ZM196.53,372.62a45.21,45.21,0,1,0,45.34,44.93A45.27,45.27,0,0,0,196.53,372.62Zm320.06,0a45.2,45.2,0,1,0,45.16,45A45.13,45.13,0,0,0,516.59,372.63Zm-160.1,0a45.21,45.21,0,1,0,45.37,44.89A45.09,45.09,0,0,0,356.49,372.62Z" transform="translate(250 250)"/><path class="cls-3" d="M188.77,17.67c-5.31,0-9.8.07-14.28,0-6.63-.13-10.77-3.83-10.82-10.5q-.25-33,0-66c0-6.5,4-9.88,10.6-10.11,1.5,0,3,0,4.5,0h385c13.57,0,15.85,2.32,15.85,16.11q0,28.5,0,57c0,9.93-3.64,13.51-13.57,13.53H553V24q0,96,0,192c0,18.82-10.83,33.84-28,38.63a57.07,57.07,0,0,1-14.82,1.72c-37.16.13-74.32.07-111.48.07h-6.9c2.56,2.42,4,3.86,5.55,5.23l57.82,51.55c1.12,1,2.26,2,3.32,3,4.62,4.62,5,10.47,1.06,14.67s-9.38,4.21-14.29-.12c-13.49-11.9-26.87-23.93-40.3-35.9-11.18-10-22.36-19.9-33.77-30.05l-40.1,35.69Q314.43,315.28,297.8,330c-5.74,5.06-11.27,5.14-15.34.42s-3-10.35,2.48-15.25q31.17-27.75,62.27-55.56a12.67,12.67,0,0,1,2.62-1.42l-.78-1.56c-1.69-.09-3.37-.27-5.05-.27q-56.5,0-113,0c-20,0-35.15-10.31-40.36-27.91a53,53,0,0,1-1.8-14.77q-.18-94.74-.08-189.47Zm19.82.27c-.09,1.12-.16,1.61-.16,2.11q0,96.72,0,193.44c0,15.95,7.27,23.23,23.18,23.23,92.8,0,185.6-.14,278.4.16,13.24.05,23.53-7.27,23.42-23.16-.44-63.48-.18-127-.18-190.44V17.94Zm351.1-66.89H183.52V-2.26H559.69Z" transform="translate(250 250)"/><path class="cls-3" d="M-40,289.89c-9.36,5-18.64,5.33-28,2.35-14.39-4.57-23.74-17.74-23.76-33.47,0-45.17-.12-90.33.08-135.49,0-8.08.14-16.48,2.24-24.18,6.64-24.3,28.36-40.5,53.58-41,8-.16,16-.48,24,.16A18.83,18.83,0,0,1-1.37,62.64c10.8,9.88,21.09,20.31,32,30.91,3.47-3.19,6.76-6.19,10-9.23,7.9-7.4,15.58-15.07,23.8-22.09a16.93,16.93,0,0,1,10.18-4c11.94.13,24.18-.32,35.74,2.11,24.81,5.22,42.36,28.25,42.4,53.8q.12,72.73-.18,145.48c-.07,19-14.13,34-32.91,34.68-6,.22-12-1.62-18.39-2.57a26.73,26.73,0,0,0-.37,3.08q-3,100.44-5.89,200.88c-.46,16.08-7.11,28.43-22,35.14s-28.58,3.74-40.73-7c-.49-.42-1.07-.75-1.78-1.25-5.81,5.56-12.42,9.4-20.4,10.86-21.6,4-42.25-11.55-43.3-33.46-1.28-26.79-1.83-53.62-2.66-80.44q-1.95-63.45-3.85-126.91C-39.73,292.06-39.84,291.41-40,289.89ZM82.91,237.76v-5.61c0-21.67-.07-43.33,0-65,0-6.37,3.83-10.57,9.4-10.71s9.84,3.91,9.89,10.21c.15,20.49.07,41,.16,61.47.06,11.49-.15,23,.57,34.45.43,6.89,6.68,11.85,13.64,12.44,6.45.55,13.27-3.58,15.26-9.83a31.09,31.09,0,0,0,1.1-9.35q.1-65.24.06-130.48c0-2,0-4,.17-6,1.92-20-9.78-36.69-29.58-40.58-7.73-1.51-15.91-1-23.88-.91a10.61,10.61,0,0,0-6.48,2.67c-11.78,10.82-23.32,21.89-35,32.81-5.25,4.89-10.19,4.81-15.35-.14-7.09-6.8-14.1-13.7-21.18-20.51-5.15-5-9.6-11.8-15.76-14.22-6.37-2.5-14.44-.78-21.77-.72-16.07.14-30.76,10.91-34.79,26.49-1.58,6.13-1.29,12.83-1.3,19.27Q-72.11,189.28-72,255c0,1.83,0,3.67.05,5.5a14.2,14.2,0,0,0,13.85,13.66c10.24.39,16.78-6.24,16.8-17.3.06-29,0-58,0-87a43.7,43.7,0,0,1,.11-5,9.69,9.69,0,0,1,9.08-8.44A9.51,9.51,0,0,1-22.25,164a31.26,31.26,0,0,1,.37,6c0,19.66,0,39.33.08,59,0,2.93.31,5.85.48,8.83Zm-1.28,20.41H-20.15c0,8.86-.21,17.33,0,25.79q3,104.42,6.14,208.84a55.69,55.69,0,0,0,.59,6.95A17.07,17.07,0,0,0,2.45,514.5c8.65.53,15.82-4.33,18.06-12.6a32.27,32.27,0,0,0,.85-8.4q.06-98.72,0-197.44a41.8,41.8,0,0,1,.17-5.49,9.87,9.87,0,0,1,9.15-8.44,9.57,9.57,0,0,1,9.81,7.58,31.57,31.57,0,0,1,.42,6.46q0,97.71,0,195.44c0,2-.06,4,.06,6,.56,9.87,7.5,16.85,16.82,16.95,9.57.1,16.85-6.87,17.37-16.87.44-8.48.69-17,.94-25.47Q78.91,379,81.59,285.87C81.85,276.76,81.63,267.63,81.63,258.17Z" transform="translate(250 250)"/><path class="cls-4" d="M196.49,571.78q-31.73,0-63.45,0c-9.24,0-12.67-3.42-12.67-12.6,0-19.49-.08-39,0-58.45.1-22,14.85-38.8,36.45-42,6.07-.9,10.76.44,15,5.35a32.49,32.49,0,0,0,49.28,0c4.28-4.86,9-6.22,15.06-5.31,21.36,3.19,36.21,19.89,36.4,41.55.18,20,.07,40,0,59.94,0,7.88-3.76,11.55-11.71,11.56Q228.71,571.8,196.49,571.78Zm56.27-20c0-18.57.39-36.56-.17-54.52-.27-8.89-5.83-15.09-14.16-18.22-1.52-.58-4.31.14-5.59,1.29-21.63,19.38-51.29,19.51-72.39,0-2.25-2.08-4.15-2.28-6.67-1.12-9.12,4.21-13.66,11.37-13.7,21.35q-.08,24,0,48a21.08,21.08,0,0,0,.49,3.25Z" transform="translate(250 250)"/><path class="cls-4" d="M356.47,571.77H293c-8.9,0-12.17-3.19-12.18-11.89,0-20-.09-40,0-59.95.14-21.61,15.24-38.51,36.53-41.29,5.7-.74,10.18.5,14.15,5.16,12.4,14.54,35,15.93,47.78,1.87,7.24-8,14.57-8,23.29-5.57A41.15,41.15,0,0,1,433,499.56c.16,19.81.05,39.63,0,59.44,0,9.33-3.5,12.76-13.07,12.77Q388.19,571.8,356.47,571.77Zm-55.9-20.11H413c0-18.91.48-37.54-.24-56.12-.29-7.49-5.67-12.85-12.68-16.13-2.92-1.37-4.95-1.23-7.52,1.1-21.27,19.26-50.72,19.13-71.86-.27-2.26-2.08-4.12-2.25-6.67-1-8.24,3.91-13.14,10.21-13.29,19.45-.23,14-.1,28-.12,42Z" transform="translate(250 250)"/><path class="cls-3" d="M517,571.77q-32,0-64,0c-9.66,0-13.13-3.55-13.13-13.3,0-19-.05-38,0-57,.07-22.73,14.88-39.59,37.35-42.81,5.71-.81,10.17.44,14.19,5,13.72,15.7,36.2,15.77,49.93.13,4.15-4.73,8.75-6,14.64-5.16,21.18,3.08,35.92,19.79,36,41.2.08,20.32,0,40.64,0,61,0,7.44-3.49,10.88-11.06,10.89Q549,571.8,517,571.77Zm-57.36-20.09H571.88c0-19.2.49-38.15-.25-57-.28-7.07-5.62-12.14-12.28-15.27-3-1.4-5.05-1-7.53,1.29-20.59,18.86-50.61,18.92-71.12.1-2.68-2.46-4.81-2.84-7.91-1.28-8,4-12.78,10.19-13,19.15-.32,11.65-.12,23.32-.14,35C459.61,539.54,459.61,545.49,459.61,551.68Z" transform="translate(250 250)"/><path class="cls-3" d="M84.65-6.3C85,7.49,83.1,20.61,75.43,32.47A55.24,55.24,0,0,1,15,56C-7.49,50.23-24.62,30.16-25.68,6.6c-.55-12.36-.5-25.17,2.1-37.16,5.35-24.72,29.89-41.35,56.2-40.07,24.55,1.21,46.56,20.65,50.47,45C84.11-19.29,84.16-12.76,84.65-6.3ZM65-6.22l-.57,0c0-3.83.15-7.67,0-11.49A35.12,35.12,0,0,0,32.77-50.86C14.63-52.45-1.75-41.43-5.11-24-6.8-15.34-6.38-6.17-6.36,2.79-6.31,20.5,6.89,35.55,23.86,37.72c18.47,2.37,34.92-8.29,39.37-26.15C64.66,5.85,64.45-.28,65-6.22Z" transform="translate(250 250)"/><path class="cls-3" d="M196.53,372.62a45.21,45.21,0,1,1-45.32,44.94A45.25,45.25,0,0,1,196.53,372.62Zm25.6,45.26a25.6,25.6,0,1,0-25.68,25.75A25.63,25.63,0,0,0,222.13,417.88Z" transform="translate(250 250)"/><path class="cls-3" d="M516.59,372.63a45.2,45.2,0,1,1-45.32,44.84A45.08,45.08,0,0,1,516.59,372.63Zm25.64,45.23a25.72,25.72,0,1,0-25.75,25.75A25.9,25.9,0,0,0,542.23,417.86Z" transform="translate(250 250)"/><path class="cls-3" d="M356.49,372.62a45.21,45.21,0,1,1-45.2,45.47A45.33,45.33,0,0,1,356.49,372.62Zm25.7,45.24a25.66,25.66,0,1,0-25.7,25.76C370.43,443.76,382.17,432,382.19,417.86Z" transform="translate(250 250)"/><path class="cls-5" d="M208.59,17.94h324.7v5.34c0,63.48-.26,127,.18,190.44.11,15.89-10.18,23.21-23.42,23.16-92.8-.3-185.6-.15-278.4-.16-15.91,0-23.17-7.28-23.18-23.23q0-96.72,0-193.44C208.43,19.55,208.5,19.06,208.59,17.94ZM371.45,133.57q57.46,0,114.92,0a26.76,26.76,0,0,0,5.95-.44,9.59,9.59,0,0,0,7.54-10.33,9.86,9.86,0,0,0-8.77-8.82,37.3,37.3,0,0,0-4.49-.11H256.75a35.9,35.9,0,0,0-5,.14,9.81,9.81,0,0,0-8.52,9.06,9.54,9.54,0,0,0,7.35,10,24.43,24.43,0,0,0,5.93.5Q314,133.6,371.45,133.57Zm0,37.53H486c1.5,0,3,.07,4.5,0a9.83,9.83,0,0,0,9.41-9.25c.22-5.12-3.21-9.21-8.51-10a30.49,30.49,0,0,0-4.49-.2q-115.22,0-230.43,0A27.7,27.7,0,0,0,251,152a9.46,9.46,0,0,0-7.71,9.68,9.91,9.91,0,0,0,8.28,9.31,33.14,33.14,0,0,0,5,.14ZM343,94.35q42.74,0,85.47,0a39.67,39.67,0,0,0,6-.26,9.28,9.28,0,0,0,8-10.76c-.67-5.32-4.61-8.41-11.1-8.41q-88.49,0-177,0a20,20,0,0,0-3,.14,10,10,0,0,0-8.17,9.39A9.44,9.44,0,0,0,251.07,94a34.94,34.94,0,0,0,6,.34Q300,94.37,343,94.35Z" transform="translate(250 250)"/><path class="cls-2" d="M559.69-48.95V-2.26H183.52V-48.95Z" transform="translate(250 250)"/><path class="cls-5" d="M82.91,237.76H-21.32c-.17-3-.47-5.9-.48-8.83-.06-19.66,0-39.33-.08-59a31.26,31.26,0,0,0-.37-6,9.51,9.51,0,0,0-9.84-7.52,9.69,9.69,0,0,0-9.08,8.44,43.7,43.7,0,0,0-.11,5c0,29,0,58,0,87,0,11.06-6.56,17.69-16.8,17.3A14.2,14.2,0,0,1-72,260.51c-.1-1.83-.05-3.67-.05-5.5q0-65.74.05-131.48c0-6.44-.28-13.14,1.3-19.27,4-15.58,18.72-26.35,34.79-26.49,7.33-.06,15.4-1.78,21.77.72,6.16,2.42,10.61,9.26,15.76,14.22,7.08,6.81,14.09,13.71,21.18,20.51,5.16,5,10.1,5,15.35.14,11.69-10.92,23.23-22,35-32.81a10.61,10.61,0,0,1,6.48-2.67c8-.06,16.15-.6,23.88.91,19.8,3.89,31.5,20.58,29.58,40.58-.19,2-.17,4-.17,6q0,65.23-.06,130.48a31.09,31.09,0,0,1-1.1,9.35c-2,6.25-8.81,10.38-15.26,9.83-7-.59-13.21-5.55-13.64-12.44-.72-11.45-.51-23-.57-34.45-.09-20.49,0-41-.16-61.47-.05-6.3-4.24-10.35-9.89-10.21s-9.39,4.34-9.4,10.71c0,21.66,0,43.32,0,65Z" transform="translate(250 250)"/><path class="cls-5" d="M81.63,258.17c0,9.46.22,18.59,0,27.7Q79,379.05,76.16,472.22c-.25,8.49-.5,17-.94,25.47-.52,10-7.8,17-17.37,16.87-9.32-.1-16.26-7.08-16.82-16.95-.12-2-.06-4-.06-6q0-97.73,0-195.44a31.57,31.57,0,0,0-.42-6.46,9.57,9.57,0,0,0-9.81-7.58,9.87,9.87,0,0,0-9.15,8.44,41.8,41.8,0,0,0-.17,5.49q0,98.71,0,197.44a32.27,32.27,0,0,1-.85,8.4C18.27,510.17,11.1,515,2.45,514.5a17.07,17.07,0,0,1-15.83-14.75A55.69,55.69,0,0,1-14,492.8Q-17.07,388.37-20.11,284c-.25-8.46,0-16.93,0-25.79Z" transform="translate(250 250)"/><path class="cls-5" d="M252.76,551.74H140.57a21.08,21.08,0,0,1-.49-3.25q0-24,0-48c0-10,4.58-17.14,13.7-21.35,2.52-1.16,4.42-1,6.67,1.12,21.1,19.53,50.76,19.4,72.39,0,1.28-1.15,4.07-1.87,5.59-1.29,8.33,3.13,13.89,9.33,14.16,18.22C253.15,515.18,252.76,533.17,252.76,551.74Z" transform="translate(250 250)"/><path class="cls-2" d="M300.57,551.66v-11c0-14-.11-28,.12-42,.15-9.24,5.05-15.54,13.29-19.45,2.55-1.21,4.41-1,6.67,1,21.14,19.4,50.59,19.53,71.86.27,2.57-2.33,4.6-2.47,7.52-1.1,7,3.28,12.39,8.64,12.68,16.13.72,18.58.24,37.21.24,56.12Z" transform="translate(250 250)"/><path class="cls-2" d="M459.61,551.68c0-6.19,0-12.14,0-18.08,0-11.66-.18-23.33.14-35,.25-9,5.06-15.17,13-19.15,3.1-1.56,5.23-1.18,7.91,1.28,20.51,18.82,50.53,18.76,71.12-.1,2.48-2.28,4.53-2.69,7.53-1.29,6.66,3.13,12,8.2,12.28,15.27.74,18.9.25,37.85.25,57Z" transform="translate(250 250)"/><path class="cls-5" d="M65-6.22c-.53,5.94-.32,12.07-1.75,17.79-4.45,17.86-20.9,28.52-39.37,26.15C6.89,35.55-6.31,20.5-6.36,2.79c0-9-.44-18.13,1.25-26.83,3.36-17.39,19.74-28.41,37.88-26.82A35.12,35.12,0,0,1,64.38-17.75c.18,3.82,0,7.66,0,11.49Z" transform="translate(250 250)"/><path class="cls-6" d="M222.13,417.88a25.6,25.6,0,1,1-25.51-25.81A25.82,25.82,0,0,1,222.13,417.88Z" transform="translate(250 250)"/><path class="cls-6" d="M542.23,417.86a25.72,25.72,0,1,1-25.69-25.8A26,26,0,0,1,542.23,417.86Z" transform="translate(250 250)"/><path class="cls-6" d="M382.19,417.86c0,14.14-11.76,25.9-25.7,25.76a25.78,25.78,0,1,1,25.7-25.76Z" transform="translate(250 250)"/><path class="cls-7" d="M371.45,133.57q-57.46,0-114.92,0a24.43,24.43,0,0,1-5.93-.5,9.54,9.54,0,0,1-7.35-10,9.81,9.81,0,0,1,8.52-9.06,35.9,35.9,0,0,1,5-.14H486.6a37.3,37.3,0,0,1,4.49.11,9.86,9.86,0,0,1,8.77,8.82,9.59,9.59,0,0,1-7.54,10.33,26.76,26.76,0,0,1-5.95.44Q428.92,133.59,371.45,133.57Z" transform="translate(250 250)"/><path class="cls-8" d="M371.49,171.1h-115a33.14,33.14,0,0,1-5-.14,9.91,9.91,0,0,1-8.28-9.31A9.46,9.46,0,0,1,251,152a27.7,27.7,0,0,1,5.47-.36q115.21,0,230.43,0a30.49,30.49,0,0,1,4.49.2c5.3.81,8.73,4.9,8.51,10a9.83,9.83,0,0,1-9.41,9.25c-1.49.1-3,0-4.5,0Z" transform="translate(250 250)"/><path class="cls-9" d="M343,94.35q-43,0-86,0a34.94,34.94,0,0,1-6-.34,9.44,9.44,0,0,1-7.82-9.57A10,10,0,0,1,251.42,75a20,20,0,0,1,3-.14q88.47,0,177,0c6.49,0,10.43,3.09,11.1,8.41a9.28,9.28,0,0,1-8,10.76,39.67,39.67,0,0,1-6,.26Q385.76,94.37,343,94.35Z" transform="translate(250 250)"/></svg>