<svg id="Layer_1" data-name="Layer 1" xmlns="http://www.w3.org/2000/svg" viewBox="0 0 1000 1000"><defs><style>.cls-1{fill:#fefefe;}.cls-2{fill:#df2828;}.cls-3{fill:#f6f1f1;}.cls-4{fill:#df2a2a;}.cls-5{fill:#df2b2b;}.cls-6{fill:#e02b2b;}.cls-7{fill:#e02e2e;}.cls-8{fill:#f6f2f2;}.cls-9{fill:#f5f1f1;}.cls-10{fill:#f5f0f0;}.cls-11{fill:#f5efef;}.cls-12{fill:#e02c2c;}</style></defs><path class="cls-1" d="M750,750H-250V-250H750Zm-498.74-5c271.83.26,493.33-220.41,493.74-491.89C745.42-20.37,525.29-241.43,252-242c-271.62-.56-493.64,220.41-494,491.64C-242.35,523.51-22,744.74,251.26,745Z" transform="translate(250 250)"/><path class="cls-2" d="M251.26,745C-22,744.74-242.35,523.51-242,249.64-241.65-21.59-19.63-242.56,252-242c273.3.57,493.43,221.63,493,495.11C744.59,524.59,523.09,745.26,251.26,745Zm9.45-774.53c0-4.91.17-9.06,0-13.18-.35-7.43-5.18-12.39-11.74-12.36s-11.23,5-11.65,12.48c-.08,1.5,0,3,0,4.5,0,44.5-.05,89,.09,133.49,0,3.69-1.2,5.66-4.37,7.39C219.68,110,206.52,117.56,193.3,125q-56.2,31.54-112.46,63c-5.92,3.3-8.74,7.75-8.51,14.51s-.24,13.34.15,20c.27,4.64-1.22,5.86-5.84,5.85-46.33-.17-92.66,0-139-.2-9.26,0-15.81,4.71-15.78,15.83q.39,147.48.16,295c0,12.14,4,16.22,16,16.22q321,0,641.94.14c9.44,0,16.18-4.56,16.15-15.9-.28-98.49-.16-197-.17-295.48,0-1.5,0-3-.07-4.49A11.82,11.82,0,0,0,576.63,229a40.23,40.23,0,0,0-7.44-.59q-69,0-138,.07c-4.3,0-5.94-1-5.68-5.52.39-6.81-.06-13.66.15-20.49.21-6.55-2.45-11-8.22-14.17-12.86-7-25.59-14.29-38.36-21.47Q322,134.74,264.92,102.74c-3.19-1.78-4.35-3.79-4.28-7.44.24-11.66.08-23.33.1-35,0-1.75.18-3.49.29-5.48,9.62,0,18.61.05,27.6,0,2.59,0,3.59.91,3.49,3.51-.15,3.66-.07,7.33,0,11,.09,9.91,4.41,14.38,14.31,14.4q44.75.1,89.49,0c11.68,0,16.5-7.2,12.64-18.27-2.8-8-7.77-16.06-7.71-24.06.07-8.17,5.06-16.32,7.94-24.47C412.51,6.27,407.46-1,396.13-1c-11.67-.06-23.33,0-35,0h-5.58c0-4.81,0-8.79,0-12.78,0-11.57-4.09-15.69-15.62-15.7q-36.49,0-73,0Z" transform="translate(250 250)"/><path class="cls-3" d="M260.71-29.53h6.23q36.49,0,73,0c11.53,0,15.6,4.13,15.62,15.7,0,4,0,8,0,12.78h5.58c11.67,0,23.33-.05,35,0,11.33.06,16.38,7.3,12.62,17.92-2.88,8.15-7.87,16.3-7.94,24.47-.06,8,4.91,16,7.71,24.06,3.86,11.07-1,18.23-12.64,18.27q-44.74.15-89.49,0c-9.9,0-14.22-4.49-14.31-14.4,0-3.67-.11-7.34,0-11,.1-2.6-.9-3.54-3.49-3.51-9,.09-18,0-27.6,0-.11,2-.28,3.73-.29,5.48,0,11.66.14,23.33-.1,35-.07,3.65,1.09,5.66,4.28,7.44q57.15,31.92,114.17,64.07c12.77,7.18,25.5,14.45,38.36,21.47,5.77,3.14,8.43,7.62,8.22,14.17-.21,6.83.24,13.68-.15,20.49-.26,4.56,1.38,5.53,5.68,5.52q69-.22,138-.07a40.23,40.23,0,0,1,7.44.59,11.82,11.82,0,0,1,9.27,10.44c.12,1.49.07,3,.07,4.49,0,98.5-.11,197,.17,295.48,0,11.34-6.71,15.91-16.15,15.9q-321-.27-641.94-.14c-12,0-16-4.08-16-16.22q0-147.48-.16-295c0-11.12,6.52-15.87,15.78-15.83,46.33.21,92.66,0,139,.2,4.62,0,6.11-1.21,5.84-5.85-.39-6.65.08-13.33-.15-20s2.59-11.21,8.51-14.51q56.31-31.35,112.46-63c13.22-7.41,26.38-14.93,39.69-22.18,3.17-1.73,4.38-3.7,4.37-7.39-.14-44.49-.09-89-.09-133.49,0-1.5-.06-3,0-4.5.42-7.47,5.07-12.44,11.65-12.48s11.39,4.93,11.74,12.36C260.88-38.59,260.71-34.44,260.71-29.53ZM153.14,532V392.16c0-12,3.89-16,15.79-16h160c12,0,15.95,3.91,15.95,15.83v139.4a13.16,13.16,0,0,0,2.41.53c17.33,0,34.66-.05,52,.11,4,0,3.62-2.31,3.62-4.89q-.24-157.47-.36-314.95c0-4.19-1.3-6.48-5-8.57q-72.21-40.29-144.2-81c-3.18-1.8-5.52-1.72-8.66,0q-72.18,40.85-144.55,81.37c-3.64,2-5.06,4.16-5,8.47q.21,145.23.11,290.46c0,8.33.1,16.67-.06,25-.06,3,1,4.07,4,4,10.66-.14,21.33-.06,32-.06Zm-217.46-.31c1.71.16,2.52.3,3.33.3,43,0,86-.06,129,.12,4.78,0,4.44-2.51,4.44-5.66q0-134.46.08-268.92c0-5-1.58-6-6.22-6q-62.23.27-124.46,0c-5.28,0-6.25,1.54-6.24,6.44q.23,134,.11,267.92ZM562.32,392c0-45-.06-90,.11-135,0-4.49-1.28-5.53-5.62-5.51q-63,.24-126,0c-4.17,0-5.31,1.19-5.31,5.33q.17,135,0,269.92c0,4.26,1.33,5.26,5.4,5.25q63-.21,126,0c4.45,0,5.56-1.22,5.54-5.6C562.26,481.67,562.32,436.85,562.32,392ZM236.84,531.81V399.89H177V531.81Zm84.29-131.89H261V531.64h60.11ZM261,31.25h70.74V-5.91H261ZM355,23c0,6.2-.08,11.82,0,17.45.19,10-3.87,14.26-14,14.37-7,.08-14,0-21,0-2.13,0-5.05-.94-4.88,3,.15,3.62,2.91,2.54,4.82,2.55q28.95.09,57.91,0c1.21,0,2.41-.29,4.75-.58-8.1-12.24-7.36-24.35-.94-36.86Z" transform="translate(250 250)"/><path class="cls-4" d="M153.14,532H131.08c-10.66,0-21.33-.08-32,.06-3.06,0-4.07-1-4-4,.16-8.33.06-16.67.06-25q0-145.23-.11-290.46c0-4.31,1.41-6.43,5-8.47q72.38-40.5,144.55-81.37c3.14-1.77,5.48-1.85,8.66,0q72,40.67,144.2,81c3.73,2.09,5,4.38,5,8.57q0,157.47.36,314.95c0,2.58.36,4.92-3.62,4.89-17.33-.16-34.66-.08-52-.11a13.16,13.16,0,0,1-2.41-.53V392c0-11.92-3.95-15.83-15.95-15.83h-160c-11.9,0-15.79,3.94-15.79,16V532ZM248.6,253c26.46.45,48.61-21.31,49.07-48.23.45-26.09-21.18-48.1-48-48.85-26.19-.72-48.63,21.12-49.34,48C199.64,230.21,221.62,252.54,248.6,253ZM130.73,354.55c14.77,0,28.92.06,43.06-.13,1.05,0,2.93-1.73,3-2.71.27-6.61.14-13.23.14-20H130.73Zm236.48-23H321.1c0,6.57.14,12.86-.06,19.13-.11,3.2,1.23,4,4.13,3.92,7.83-.14,15.66-.05,23.49-.05h18.55Zm-95,0H225.76c0,7-.13,13.57.15,20.17,0,1,2,2.65,3.08,2.66q19.95.29,39.9,0c1.13,0,3.15-1.93,3.2-3C272.4,344.93,272.24,338.46,272.24,331.59Zm-95.53-54.14h-45.9v22.4h45.9Zm190.5.15H321.43V300h45.78Zm-141.45-.2c0,7-.13,13.51.14,20a4.08,4.08,0,0,0,2.88,2.78c13.5.19,27,.17,40.49.05,1,0,2.79-1.2,2.81-1.88.21-6.91.13-13.82.13-20.92Z" transform="translate(250 250)"/><path class="cls-4" d="M-64.32,531.67v-5.79q0-134-.11-267.92c0-4.9,1-6.47,6.24-6.44q62.22.36,124.46,0c4.64,0,6.23,1,6.22,6Q72.27,392,72.41,526.43c0,3.15.34,5.68-4.44,5.66-43-.18-86-.1-129-.12C-61.8,532-62.61,531.83-64.32,531.67ZM43.71,415V368.4c-7,0-13.79-.1-20.56.13-.88,0-2.43,1.76-2.45,2.72-.16,13.48-.18,27,0,40.44,0,1.11,1.95,3.09,3.07,3.14C30.25,415.13,36.72,415,43.71,415ZM-36.16,277.17v46.16h23c0-14.81,0-29.25-.1-43.68a3.39,3.39,0,0,0-2.3-2.37C-22.33,277.09-29.11,277.17-36.16,277.17Zm.12,91.47V415c6.44,0,12.41-.16,18.38.06,3.42.13,4.65-.9,4.59-4.49-.2-12.64-.07-25.28-.1-37.93a36.59,36.59,0,0,0-.44-4Zm-.09,91.42v46.08h23c0-14.78,0-29.21-.1-43.64a3.37,3.37,0,0,0-2.33-2.33C-22.36,460-29.13,460.06-36.13,460.06ZM43.7,323.49V277.15c-6.36,0-12.46.17-18.55-.07-3.57-.14-4.51,1.18-4.47,4.61.15,13,0,25.93,0,38.89a19.42,19.42,0,0,0,.44,2.91ZM20.76,505.94h22.8V460c-6.85,0-13.31-.13-19.75.12-1.06,0-2.91,1.79-2.92,2.76C20.7,477.17,20.76,491.42,20.76,505.94Z" transform="translate(250 250)"/><path class="cls-4" d="M562.32,392c0,44.82-.06,89.64.1,134.46,0,4.38-1.09,5.61-5.54,5.6q-63-.26-126,0c-4.07,0-5.4-1-5.4-5.25q.18-135,0-269.92c0-4.14,1.14-5.35,5.31-5.33q63,.21,126,0c4.34,0,5.64,1,5.62,5.51C562.26,302.06,562.32,347,562.32,392ZM454.2,415c3.3,0,6.09,0,8.88,0,4.47-.11,10.75,1.42,12.92-.89,2.42-2.58,1.31-8.66,1.37-13.23.13-10.6,0-21.2,0-32H454.2Zm80-137.83c-7,0-13.45-.15-19.91.14-1.1.06-3,2-3,3.11-.21,13.3-.19,26.61,0,39.92,0,1.13,1.54,3.17,2.43,3.21,6.75.27,13.52.15,20.54.15Zm-23.07,91.58c0,14.76-.05,29.19.12,43.61,0,.89,1.72,2.48,2.68,2.51,6.62.23,13.24.12,20.2.12V368.73ZM534.21,460c-6.62,0-12.6.16-18.56-.06-3.4-.12-4.64.86-4.58,4.47.22,12.3.08,24.6.1,36.89,0,1.59.18,3.17.28,4.82h22.76Zm-57-136.67c0-14.76,0-29.18-.1-43.6a3.44,3.44,0,0,0-2.24-2.47c-6.76-.2-13.53-.11-20.53-.11v46.18Zm0,182.7c0-14.73,0-29.14-.11-43.55a3.37,3.37,0,0,0-2.33-2.34c-6.75-.2-13.51-.11-20.47-.11v46Z" transform="translate(250 250)"/><path class="cls-5" d="M236.84,531.81H177V399.89h59.81Z" transform="translate(250 250)"/><path class="cls-5" d="M321.13,399.92V531.64H261V399.92Z" transform="translate(250 250)"/><path class="cls-6" d="M261,31.25V-5.91h70.74V31.25Z" transform="translate(250 250)"/><path class="cls-7" d="M355,23h26.75c-6.42,12.51-7.16,24.62.94,36.86-2.34.29-3.54.58-4.75.58q-29,0-57.91,0c-1.91,0-4.67,1.07-4.82-2.55-.17-3.94,2.75-3,4.88-3,7-.08,14,0,21,0,10.09-.11,14.15-4.38,14-14.37C354.93,34.78,355,29.16,355,23Z" transform="translate(250 250)"/><path class="cls-8" d="M248.6,253c-27-.47-49-22.8-48.27-49,.71-26.92,23.15-48.76,49.34-48,26.82.75,48.45,22.76,48,48.85C297.21,231.7,275.06,253.46,248.6,253Zm25.68-48.25c-.12-14.43-11.61-25.93-25.64-25.67a25.4,25.4,0,1,0,25.64,25.67Z" transform="translate(250 250)"/><path class="cls-9" d="M130.73,354.55V331.67H176.9c0,6.81.13,13.43-.14,20,0,1-1.92,2.7-3,2.71C159.65,354.61,145.5,354.55,130.73,354.55Z" transform="translate(250 250)"/><path class="cls-9" d="M367.21,331.55v23H348.66c-7.83,0-15.66-.09-23.49.05-2.9,0-4.24-.72-4.13-3.92.2-6.27.06-12.56.06-19.13Z" transform="translate(250 250)"/><path class="cls-10" d="M272.24,331.59c0,6.87.16,13.34-.15,19.79,0,1.1-2.07,3-3.2,3q-19.95.31-39.9,0c-1.09,0-3-1.69-3.08-2.66-.28-6.6-.15-13.22-.15-20.17Z" transform="translate(250 250)"/><path class="cls-9" d="M176.71,277.45v22.4h-45.9v-22.4Z" transform="translate(250 250)"/><path class="cls-9" d="M367.21,277.6V300H321.43V277.6Z" transform="translate(250 250)"/><path class="cls-9" d="M225.76,277.4h46.45c0,7.1.08,14-.13,20.92,0,.68-1.83,1.87-2.81,1.88-13.5.12-27,.14-40.49-.05a4.08,4.08,0,0,1-2.88-2.78C225.63,290.91,225.76,284.42,225.76,277.4Z" transform="translate(250 250)"/><path class="cls-11" d="M43.71,415c-7,0-13.46.15-19.91-.15-1.12-.05-3.05-2-3.07-3.14-.21-13.48-.19-27,0-40.44,0-1,1.57-2.69,2.45-2.72,6.77-.23,13.55-.13,20.56-.13Z" transform="translate(250 250)"/><path class="cls-11" d="M-36.16,277.17c7,0,13.83-.08,20.6.11a3.39,3.39,0,0,1,2.3,2.37c.14,14.43.1,28.87.1,43.68h-23Z" transform="translate(250 250)"/><path class="cls-11" d="M-36,368.64h22.43a36.59,36.59,0,0,1,.44,4c0,12.65-.1,25.29.1,37.93.06,3.59-1.17,4.62-4.59,4.49-6-.22-11.94-.06-18.38-.06Z" transform="translate(250 250)"/><path class="cls-3" d="M-36.13,460.06c7,0,13.77-.08,20.53.11a3.37,3.37,0,0,1,2.33,2.33c.14,14.43.1,28.86.1,43.64h-23Z" transform="translate(250 250)"/><path class="cls-10" d="M43.7,323.49H21.15a19.42,19.42,0,0,1-.44-2.91c0-13,.12-25.93,0-38.89,0-3.43.9-4.75,4.47-4.61,6.09.24,12.19.07,18.55.07Z" transform="translate(250 250)"/><path class="cls-3" d="M20.76,505.94c0-14.52-.06-28.77.13-43,0-1,1.86-2.71,2.92-2.76,6.44-.25,12.9-.12,19.75-.12v45.9Z" transform="translate(250 250)"/><path class="cls-11" d="M454.2,415V368.82h23.21c0,10.83.09,21.43,0,32-.06,4.57,1.05,10.65-1.37,13.23-2.17,2.31-8.45.78-12.92.89C460.29,415,457.5,415,454.2,415Z" transform="translate(250 250)"/><path class="cls-11" d="M534.23,277.15v46.53c-7,0-13.79.12-20.54-.15-.89,0-2.42-2.08-2.43-3.21-.17-13.31-.19-26.62,0-39.92,0-1.1,1.94-3,3-3.11C520.78,277,527.26,277.15,534.23,277.15Z" transform="translate(250 250)"/><path class="cls-11" d="M511.16,368.73h23V415c-7,0-13.58.11-20.2-.12-1,0-2.67-1.62-2.68-2.51C511.11,397.92,511.16,383.49,511.16,368.73Z" transform="translate(250 250)"/><path class="cls-3" d="M534.21,460v46.12H511.45c-.1-1.65-.28-3.23-.28-4.82,0-12.29.12-24.59-.1-36.89-.06-3.61,1.18-4.59,4.58-4.47C521.61,460.19,527.59,460,534.21,460Z" transform="translate(250 250)"/><path class="cls-10" d="M477.25,323.36H454.38V277.18c7,0,13.77-.09,20.53.11a3.44,3.44,0,0,1,2.24,2.47C477.29,294.18,477.25,308.6,477.25,323.36Z" transform="translate(250 250)"/><path class="cls-3" d="M477.23,506.06H454.32v-46c7,0,13.72-.09,20.47.11a3.37,3.37,0,0,1,2.33,2.34C477.27,476.92,477.23,491.33,477.23,506.06Z" transform="translate(250 250)"/><path class="cls-12" d="M274.28,204.76a25.21,25.21,0,1,1-25.64-25.67C262.67,178.83,274.16,190.33,274.28,204.76Z" transform="translate(250 250)"/></svg>