<svg id="Layer_1" data-name="Layer 1" xmlns="http://www.w3.org/2000/svg" viewBox="0 0 1000 1000"><defs><style>.cls-1{fill:#fefefe;}.cls-2{fill:#df2929;}.cls-3{fill:#fdfafa;}.cls-4{fill:#fdf7f7;}.cls-5{fill:#fdf8f8;}.cls-6{fill:#fdf9f9;}.cls-7{fill:#df2a2a;}.cls-8{fill:#e02b2b;}.cls-9{fill:#e02d2d;}.cls-10{fill:#e02c2c;}.cls-11{fill:#e23d3d;}</style></defs><path class="cls-1" d="M750,750H-250V-250H750Zm-500.15-6C523.26,743.63,744.2,522.66,744,249.78,743.8-23.85,522.31-244.31,247.9-244-23.36-243.7-244.42-21.48-244,250.48-243.58,523.17-22.23,744.37,249.85,744Z" transform="translate(250 250)"/><path class="cls-2" d="M249.85,744C-22.23,744.37-243.58,523.17-244,250.48-244.42-21.48-23.36-243.7,247.9-244,522.31-244.31,743.8-23.85,744,249.78,744.2,522.66,523.26,743.63,249.85,744ZM29,477.64c-.1-2-.22-3.24-.23-4.53-.12-22.53-19.19-38.82-41.38-34.9q-29,5.13-57.84,11.17c-13.72,2.88-22.81,11.42-26.46,25-3.48,12.95-.16,24.43,9.32,33.88,2.22,2.2,2.73,3.6,1.38,6.66-5.48,12.39-4.5,24.5,3.83,35.33,8.52,11.08,20.07,15.75,33.95,13.18,31.1-5.74,62.15-11.73,93.22-17.62q56.9-10.8,113.8-21.59c7-1.32,14-2.52,21.53-3.88v6.08q0,29.49,0,59c0,9.67,4,13.58,13.61,13.58H305.2c11.29,0,14.7-3.48,14.71-15V493.57c6.8-1.27,13.16-1.91,19.14-3.75,5.22-1.6,6.8.4,8.53,4.79,11,27.85,21.9,55.72,33.45,83.33,5.78,13.82,16.7,21.12,32.08,21.08,19.66-.06,39.33,0,59,0a34.35,34.35,0,0,0,6.95-.59c16.82-3.45,28.53-19.69,27.06-37.38-1.4-16.84-16.16-30.87-33.36-31.41-8.82-.27-17.66-.17-26.49-.05-6.48.09-10.68-2.76-13-8.79-3.79-9.76-7.75-19.46-11.65-29.18-2.06-5.16-4.14-10.32-6.38-15.9,2.64-.62,4.39-1.09,6.16-1.43q21.09-4,42.19-8c34.5-6.54,69-13.17,103.52-19.57,14.08-2.61,24.57-9.77,29.18-23.46,4.71-14,1.36-26.55-9.25-37.1a5.41,5.41,0,0,1-.93-4.82c5.8-13.47,4.66-26.2-4.62-37.53S560,329.34,545.91,332c-17.49,3.33-35,6.7-52.49,10-22.89,4.27-35.73,23.95-29.34,45.16.7,2.31,1.72,4.53,2.82,7.39L431,401.37c-4.36-22.95-8.64-45.43-13-68.31,2-.51,3.51-1,5.1-1.32,13.07-2.51,26.17-4.92,39.24-7.47,7.84-1.53,11.88-7.13,10.5-14.25-1.22-6.28-7.41-10.11-14.63-8.75-33.53,6.32-67.05,12.65-100.53,19.22-3.44.67-4.64-.08-5.83-3.13-7.16-18.27-14.52-36.46-21.77-54.7-6.42-16.13-18.37-24.33-35.76-24.36-16.83,0-33.66,0-50.5,0-1.74,0-3.48-.17-5.11-.26V86.93c7.87,0,15.36.08,22.84,0a11.13,11.13,0,0,0,10.86-7.37c1.93-4.68.69-8.8-2.47-12.48a39.84,39.84,0,0,0-3.24-3.12L97.48-93.93c-7.76-7.24-13.38-7.2-21.21.11Q3.56-25.95-69.17,41.89c-8.77,8.19-17.59,16.32-26.27,24.59a12.11,12.11,0,0,0-2.72,13.8c2.1,4.56,5.88,6.59,10.81,6.65,1.83,0,3.67,0,5.5,0H215V384.7c0,2-.59,4.3.19,5.94,1.56,3.29,3.2,7.27,6,9.09,7.75,5,17-1.07,17-10.85.08-25,0-50,0-75v-5.67c8.66,0,16.64,0,24.61,0,7.55,0,10.76,2.16,13.62,9.27q20.2,50.22,40.32,100.47c.58,1.46.91,3,1.43,4.76-7.5,1.42-14.48,3-21.55,4a11.32,11.32,0,0,1-7.28-1.37c-32.52-21.79-74.64-13.86-97.22,18.3a11.89,11.89,0,0,1-6.69,4.24c-11.55,2.48-23.2,4.51-34.81,6.7L91.86,465.69c-2.09.39-4.23,1.33-4.88-2.15q-5.74-30.93-11.74-61.82c-.59-3,.46-4.12,3.4-4.64,13.28-2.35,26.51-4.9,39.76-7.37,7.95-1.48,12.33-6.93,11.12-13.87-1.17-6.72-7-10.51-14.63-9.3-4.76.74-9.47,1.83-14.22,2.74q-49.29,9.41-98.58,18.83C-5,389.48-9,395.34-7.68,401.93c1.26,6.35,7.46,10.2,14.53,8.89,8-1.49,16-3.13,24-4.62,6.8-1.27,13.63-2.44,20.82-3.71,4.37,23.1,8.62,45.56,13,68.4Zm151.11-250.7c-.07-52.2-41.85-93.61-94.28-93.46-50.73.15-92.07,42.25-92,93.73.05,50.85,42.17,92.81,93.05,92.69C138.35,319.78,180.14,278.12,180.08,226.94ZM-64.58,273.5q0,73.5,0,147a47.82,47.82,0,0,0,.12,5.49A11.83,11.83,0,0,0-54.4,436.31a11.29,11.29,0,0,0,12.25-7.4,22.52,22.52,0,0,0,.95-7.34q.06-148.24,0-296.49a39.49,39.49,0,0,0-.1-4.49,11.85,11.85,0,0,0-10.06-10.31,11.05,11.05,0,0,0-12,7A22.29,22.29,0,0,0-64.53,125Q-64.62,199.26-64.58,273.5ZM471.12,86.92a58.27,58.27,0,0,0,.66-116.53c-32-.26-58.59,25.85-58.7,57.68A58.36,58.36,0,0,0,471.12,86.92Zm94,22.7c-.4-1-.75-3.79-2.3-5.46-6-6.45-12.09-12.83-18.66-18.67-4.43-3.93-10.87-3-14.95,1.06s-5,10.53-1.09,14.94a247.13,247.13,0,0,0,18.63,18.7c3.46,3.16,8,3.13,12.16,1S565,115.63,565.12,109.62ZM538-25.35c1.45-.58,4.07-.91,5.62-2.37,6.77-6.36,13.55-12.76,19.67-19.73,3.87-4.41,2.68-10.88-1.57-14.86s-10.6-4.57-15-.6c-6.51,5.91-12.7,12.21-18.66,18.68-3.17,3.43-3.5,7.83-1.31,12.11S532.54-25.86,538-25.35ZM389.45-65.95c-5.24.94-8.82,3.14-10.83,7.4a11,11,0,0,0,2,12.95c5,5.32,10.21,10.48,15.45,15.58,5.57,5.43,12.43,5.7,17.32.87s4.69-11.68-.72-17.3c-4.85-5-9.66-10.11-14.86-14.76C395.49-63.3,392.27-64.4,389.45-65.95ZM417.06,96.17c-.58-6.23-2.57-9.93-6.89-11.92a11,11,0,0,0-12.93,2.1c-5.43,5.14-10.7,10.45-15.89,15.82-5.5,5.7-5.68,12.3-.7,17.23s11.56,4.69,17.24-.79c5.14-5,10.32-9.9,15.08-15.21C415.07,101.06,416.16,97.83,417.06,96.17Zm-50.62-55.9c4,0,8,.13,12,0a11.58,11.58,0,0,0,.06-23.16q-12-.3-24,0a11.58,11.58,0,0,0-.06,23.15C358.46,40.41,362.45,40.27,366.44,40.27ZM483,133.54c0-4,.14-8,0-12a11.65,11.65,0,0,0-11.58-11.34,11.42,11.42,0,0,0-11.57,11.3q-.27,12,0,24a11.44,11.44,0,0,0,11.53,11.34,11.62,11.62,0,0,0,11.62-11.3C483.1,141.53,483,137.53,483,133.54Zm92.77-93.27c4.16,0,8.34.15,12.49,0,6.56-.29,10.72-4.78,10.79-11.32.06-6.81-4.13-11.62-10.81-11.81-8-.23-16-.21-24,0a11.58,11.58,0,0,0,0,23.15C568.06,40.4,571.89,40.27,575.73,40.27ZM483-76.17c0-3.83.11-7.67,0-11.49-.24-7.06-4.82-11.4-11.81-11.35-6.76.05-11.24,4.32-11.37,11.22-.15,7.83-.17,15.67,0,23.5A11.4,11.4,0,0,0,471.26-52.9a11.53,11.53,0,0,0,11.65-11.27C483.11-68.16,483-72.17,483-76.17Z" transform="translate(250 250)"/><path class="cls-3" d="M29,477.64l35.68-6.75c-4.33-22.84-8.58-45.3-13-68.4-7.19,1.27-14,2.44-20.82,3.71-8,1.49-16,3.13-24,4.62-7.07,1.31-13.27-2.54-14.53-8.89C-9,395.34-5,389.48,2.09,388.11q49.27-9.51,98.58-18.83c4.75-.91,9.46-2,14.22-2.74,7.66-1.21,13.46,2.58,14.63,9.3,1.21,6.94-3.17,12.39-11.12,13.87-13.25,2.47-26.48,5-39.76,7.37-2.94.52-4,1.62-3.4,4.64q6,30.88,11.74,61.82c.65,3.48,2.79,2.54,4.88,2.15l58.88-11.13c11.61-2.19,23.26-4.22,34.81-6.7a11.89,11.89,0,0,0,6.69-4.24c22.58-32.16,64.7-40.09,97.22-18.3a11.32,11.32,0,0,0,7.28,1.37c7.07-1,14.05-2.54,21.55-4-.52-1.74-.85-3.3-1.43-4.76q-20.13-50.24-40.32-100.47c-2.86-7.11-6.07-9.25-13.62-9.27-8,0-16,0-24.61,0v5.67c0,25,.05,50,0,75,0,9.78-9.28,15.85-17,10.85-2.82-1.82-4.46-5.8-6-9.09-.78-1.64-.19-3.94-.19-5.94V86.94H-81.85c-1.83,0-3.67,0-5.5,0-4.93-.06-8.71-2.09-10.81-6.65a12.11,12.11,0,0,1,2.72-13.8c8.68-8.27,17.5-16.4,26.27-24.59Q3.55-26,76.27-93.82c7.83-7.31,13.45-7.35,21.21-.11L266.68,63.93a39.84,39.84,0,0,1,3.24,3.12c3.16,3.68,4.4,7.8,2.47,12.48a11.13,11.13,0,0,1-10.86,7.37c-7.48.11-15,0-22.84,0V238c1.63.09,3.37.25,5.11.26,16.84,0,33.67,0,50.5,0,17.39,0,29.34,8.23,35.76,24.36,7.25,18.24,14.61,36.43,21.77,54.7,1.19,3.05,2.39,3.8,5.83,3.13,33.48-6.57,67-12.9,100.53-19.22,7.22-1.36,13.41,2.47,14.63,8.75,1.38,7.12-2.66,12.72-10.5,14.25-13.07,2.55-26.17,5-39.24,7.47-1.59.3-3.14.81-5.1,1.32,4.35,22.88,8.63,45.36,13,68.31l35.93-6.85c-1.1-2.86-2.12-5.08-2.82-7.39-6.39-21.21,6.45-40.89,29.34-45.16,17.51-3.26,35-6.63,52.49-10,14-2.67,26.35.54,35.55,11.77s10.42,24.06,4.62,37.53a5.41,5.41,0,0,0,.93,4.82c10.61,10.55,14,23.1,9.25,37.1-4.61,13.69-15.1,20.85-29.18,23.46-34.53,6.4-69,13-103.52,19.57q-21.09,4-42.19,8c-1.77.34-3.52.81-6.16,1.43,2.24,5.58,4.32,10.74,6.38,15.9,3.9,9.72,7.86,19.42,11.65,29.18,2.34,6,6.54,8.88,13,8.79,8.83-.12,17.67-.22,26.49.05,17.2.54,32,14.57,33.36,31.41,1.47,17.69-10.24,33.93-27.06,37.38a34.35,34.35,0,0,1-6.95.59c-19.66,0-39.33,0-59,0-15.38,0-26.3-7.26-32.08-21.08-11.55-27.61-22.49-55.48-33.45-83.33-1.73-4.39-3.31-6.39-8.53-4.79-6,1.84-12.34,2.48-19.14,3.75V584c0,11.52-3.42,15-14.71,15H193.71c-9.66,0-13.6-3.91-13.61-13.58q0-29.49,0-59v-6.08c-7.55,1.36-14.55,2.56-21.53,3.88Q101.67,535,44.76,545.82c-31.07,5.89-62.12,11.88-93.22,17.62-13.88,2.57-25.43-2.1-33.95-13.18-8.33-10.83-9.31-22.94-3.83-35.33,1.35-3.06.84-4.46-1.38-6.66-9.48-9.45-12.8-20.93-9.32-33.88,3.65-13.59,12.74-22.13,26.46-25q28.82-6,57.84-11.17c22.19-3.92,41.26,12.37,41.38,34.9C28.75,474.4,28.87,475.68,29,477.64ZM-57.86,63.36H231.42c-1.13-1.22-1.72-2-2.4-2.59Q159.63-4,90.3-68.86c-2.75-2.59-4.24-2.34-6.86.12Q38.1-26.15-7.45,16.21C-24,31.65-40.49,47.11-57.86,63.36ZM296.45,575.87c0-32.69.83-64.83-.28-96.91-.81-23.67-21.5-42.08-44.88-42.61a46.55,46.55,0,0,0-47.84,46c-.32,30.14-.09,60.28-.08,90.41,0,1,.17,1.93.29,3.12Zm22.73-106.14a8.15,8.15,0,0,0,1.7,0q36.28-6.88,72.58-13.81,47.57-9.06,95.15-18.08c25.67-4.89,51.35-9.72,77-14.72a11.41,11.41,0,0,0,9-13.88A11.77,11.77,0,0,0,561,400.37q-42.19,7.94-84.36,16-72.36,13.72-144.7,27.48c-7,1.33-13.92,2.76-20.76,4.12C313.94,455.52,316.51,462.49,319.18,469.73Zm-139.07,3.33a11.24,11.24,0,0,0-2.24,0q-35.09,6.63-70.15,13.32L-4.59,507.81c-17.5,3.34-35,6.62-52.47,10.11a11.49,11.49,0,0,0-8.87,14,11.69,11.69,0,0,0,13.32,8.68c7.54-1.31,15.06-2.77,22.58-4.2q52.74-10,105.47-20.06,50.54-9.6,101.07-19.09c3-.55,3.73-1.89,3.65-4.69C180,486.28,180.11,480,180.11,473.06ZM364.9,413.92a14.74,14.74,0,0,0-.44-2.37q-28.31-70.87-56.66-141.72c-2.21-5.52-6.32-8.2-12.42-8.17-17.66.11-35.32,0-53,.06a32.9,32.9,0,0,0-3.74.39V285c8.52,0,16.67,0,24.83,0,16.35.11,28.37,8.2,34.49,23.22,3,7.39,5.93,14.82,8.89,22.23q16.75,41.93,33.6,83.79c.59,1.47,2.66,3.56,3.78,3.41C351.12,416.7,357.92,415.23,364.9,413.92Zm4.4,70.38c-.09,1-.23,1.33-.13,1.59q16.53,41.42,33.12,82.81c2,5,5.94,7.42,11.33,7.42,19,0,37.95,0,56.92,0,7.23,0,12.38-5,12.39-11.58S477.87,553,470.61,552.9c-7-.1-14,0-21,0-21.06,0-31.66-7.27-39.49-27q-8.47-21.28-17.15-42.5c-.53-1.28-2.17-3.21-3-3.08C383,481.43,376.07,482.94,369.3,484.3ZM408,405.68c-4.4-23.17-8.66-45.61-13-68.59l-32.76,6.23c8.53,21.4,16.75,42.2,25.21,62.9a5.29,5.29,0,0,0,4.37,2.44C397.06,408,402.22,406.81,408,405.68ZM-62.49,494.9c.52,0,1.53-.09,2.5-.27,18.61-3.51,37.23-6.9,55.77-10.72a14.65,14.65,0,0,0,7.62-5c3.1-3.82,2.91-8.42.25-12.59-3.07-4.79-7.76-6-13.09-5-7.68,1.4-15.34,2.9-23,4.39-11.41,2.22-22.87,4.2-34.18,6.84-6.11,1.42-9.11,7-8.13,13.05C-73.85,491-68.88,495-62.49,494.9ZM500.16,388.33c17.9-3.51,38-7.23,58-11.5,6-1.29,8.91-7.2,7.76-13.28a11.48,11.48,0,0,0-12.11-9,54,54,0,0,0-6.42.93c-6.55,1.2-13.08,2.47-19.62,3.7-10.63,2-21.29,3.92-31.89,6.05-6.92,1.4-10.85,6.85-10,13.35C486.68,384.34,491.74,388.46,500.16,388.33Z" transform="translate(250 250)"/><path class="cls-3" d="M180.08,226.94c.06,51.18-41.73,92.84-93.26,93-50.88.12-93-41.84-93-92.69,0-51.48,41.3-93.58,92-93.73C138.23,133.33,180,174.74,180.08,226.94ZM86.71,296.53a69.93,69.93,0,0,0,70.09-70.26c-.08-38.16-31.67-69.52-69.91-69.41a70.06,70.06,0,0,0-69.83,70.51C17.17,265.24,48.85,296.69,86.71,296.53Z" transform="translate(250 250)"/><path class="cls-4" d="M-64.58,273.5q0-74.25,0-148.49a22.29,22.29,0,0,1,1.19-7.77,11.05,11.05,0,0,1,12-7,11.85,11.85,0,0,1,10.06,10.31,39.49,39.49,0,0,1,.1,4.49q0,148.25,0,296.49a22.52,22.52,0,0,1-.95,7.34,11.29,11.29,0,0,1-12.25,7.4A11.83,11.83,0,0,1-64.45,426a47.82,47.82,0,0,1-.12-5.49Q-64.59,347-64.58,273.5Z" transform="translate(250 250)"/><path class="cls-3" d="M471.12,86.92a58.36,58.36,0,0,1-58-58.85c.11-31.83,26.68-57.94,58.7-57.68a58.27,58.27,0,0,1-.66,116.53Zm35.05-58.13a34.94,34.94,0,0,0-34.89-35c-18.88-.13-34.86,15.66-34.92,34.49a34.91,34.91,0,1,0,69.81.5Z" transform="translate(250 250)"/><path class="cls-5" d="M565.12,109.62c-.16,6-2.16,9.49-6.21,11.55s-8.7,2.18-12.16-1a247.13,247.13,0,0,1-18.63-18.7c-3.91-4.41-3-10.83,1.09-14.94s10.52-5,14.95-1.06c6.57,5.84,12.68,12.22,18.66,18.67C564.37,105.83,564.72,108.6,565.12,109.62Z" transform="translate(250 250)"/><path class="cls-6" d="M538-25.35c-5.47-.51-9.09-2.56-11.23-6.77s-1.86-8.68,1.31-12.11c6-6.47,12.15-12.77,18.66-18.68,4.38-4,10.77-3.35,15,.6s5.44,10.45,1.57,14.86c-6.12,7-12.9,13.37-19.67,19.73C542.08-26.26,539.46-25.93,538-25.35Z" transform="translate(250 250)"/><path class="cls-5" d="M389.45-65.95c2.82,1.55,6,2.65,8.37,4.74,5.2,4.65,10,9.73,14.86,14.76,5.41,5.62,5.62,12.45.72,17.3s-11.75,4.56-17.32-.87c-5.24-5.1-10.44-10.26-15.45-15.58a11,11,0,0,1-2-12.95C380.63-62.81,384.21-65,389.45-65.95Z" transform="translate(250 250)"/><path class="cls-5" d="M417.06,96.17c-.9,1.66-2,4.89-4.09,7.23-4.76,5.31-9.94,10.25-15.08,15.21-5.68,5.48-12.27,5.71-17.24.79s-4.8-11.53.7-17.23c5.19-5.37,10.46-10.68,15.89-15.82a11,11,0,0,1,12.93-2.1C414.49,86.24,416.48,89.94,417.06,96.17Z" transform="translate(250 250)"/><path class="cls-6" d="M366.44,40.27c-4,0-8,.14-12,0a11.58,11.58,0,0,1,.06-23.15q12-.3,24,0a11.58,11.58,0,0,1-.06,23.16C374.43,40.4,370.43,40.27,366.44,40.27Z" transform="translate(250 250)"/><path class="cls-6" d="M483,133.54c0,4,.15,8,0,12a11.62,11.62,0,0,1-11.62,11.3,11.44,11.44,0,0,1-11.53-11.34q-.27-12,0-24a11.42,11.42,0,0,1,11.57-11.3,11.65,11.65,0,0,1,11.58,11.34C483.1,125.55,483,129.55,483,133.54Z" transform="translate(250 250)"/><path class="cls-3" d="M575.73,40.27c-3.84,0-7.67.13-11.5,0a11.58,11.58,0,0,1,0-23.15c8-.2,16-.22,24,0,6.68.19,10.87,5,10.81,11.81-.07,6.54-4.23,11-10.79,11.32C584.07,40.42,579.89,40.27,575.73,40.27Z" transform="translate(250 250)"/><path class="cls-3" d="M483-76.17c0,4,.15,8,0,12A11.53,11.53,0,0,1,471.26-52.9a11.4,11.4,0,0,1-11.49-11.39c-.18-7.83-.16-15.67,0-23.5.13-6.9,4.61-11.17,11.37-11.22,7,0,11.57,4.29,11.81,11.35C483.07-83.84,483-80,483-76.17Z" transform="translate(250 250)"/><path class="cls-7" d="M-57.86,63.36C-40.49,47.11-24,31.65-7.45,16.21Q38-26.26,83.44-68.74c2.62-2.46,4.11-2.71,6.86-.12Q159.57-4,229,60.77c.68.64,1.27,1.37,2.4,2.59Z" transform="translate(250 250)"/><path class="cls-8" d="M296.45,575.87H203.66c-.12-1.19-.29-2.15-.29-3.12,0-30.13-.24-60.27.08-90.41a46.55,46.55,0,0,1,47.84-46c23.38.53,44.07,18.94,44.88,42.61C297.28,511,296.45,543.18,296.45,575.87Zm-46.07-122a29.07,29.07,0,1,0,28.7,29.19A29.11,29.11,0,0,0,250.38,453.88Z" transform="translate(250 250)"/><path class="cls-9" d="M319.18,469.73c-2.67-7.24-5.24-14.21-8-21.77,6.84-1.36,13.79-2.79,20.76-4.12q72.34-13.75,144.7-27.48,42.17-8,84.36-16a11.77,11.77,0,0,1,13.68,8.85,11.41,11.41,0,0,1-9,13.88c-25.65,5-51.33,9.83-77,14.72q-47.58,9-95.15,18.08-36.3,6.9-72.58,13.81A8.15,8.15,0,0,1,319.18,469.73Z" transform="translate(250 250)"/><path class="cls-9" d="M180.11,473.06c0,6.91-.12,13.22,0,19.53.08,2.8-.67,4.14-3.65,4.69Q126,506.7,75.44,516.37,22.7,526.38-30,536.43c-7.52,1.43-15,2.89-22.58,4.2A11.69,11.69,0,0,1-65.93,532a11.49,11.49,0,0,1,8.87-14c17.47-3.49,35-6.77,52.47-10.11L107.72,486.4q35.07-6.67,70.15-13.32A11.24,11.24,0,0,1,180.11,473.06Z" transform="translate(250 250)"/><path class="cls-10" d="M364.9,413.92c-7,1.31-13.78,2.78-20.65,3.69-1.12.15-3.19-1.94-3.78-3.41q-16.94-41.83-33.6-83.79c-3-7.41-5.88-14.84-8.89-22.23-6.12-15-18.14-23.11-34.49-23.22-8.16,0-16.31,0-24.83,0V262.11a32.9,32.9,0,0,1,3.74-.39c17.66,0,35.32,0,53-.06,6.1,0,10.21,2.65,12.42,8.17q28.38,70.85,56.66,141.72A14.74,14.74,0,0,1,364.9,413.92Z" transform="translate(250 250)"/><path class="cls-10" d="M369.3,484.3c6.77-1.36,13.7-2.87,20.69-4,.84-.13,2.48,1.8,3,3.08q8.7,21.19,17.15,42.5c7.83,19.69,18.43,27,39.49,27,7,0,14-.07,21,0,7.26.1,12.33,5,12.32,11.62s-5.16,11.55-12.39,11.58c-19,.07-38,0-56.92,0-5.39,0-9.33-2.45-11.33-7.42q-16.65-41.37-33.12-82.81C369.07,485.63,369.21,485.26,369.3,484.3Z" transform="translate(250 250)"/><path class="cls-9" d="M408,405.68c-5.81,1.13-11,2.36-16.21,3a5.29,5.29,0,0,1-4.37-2.44c-8.46-20.7-16.68-41.5-25.21-62.9L395,337.09C399.37,360.07,403.63,382.51,408,405.68Z" transform="translate(250 250)"/><path class="cls-9" d="M-62.49,494.9c-6.39.09-11.36-3.86-12.26-9.36-1-6,2-11.63,8.13-13.05,11.31-2.64,22.77-4.62,34.18-6.84,7.66-1.49,15.32-3,23-4.39,5.33-1,10,.23,13.09,5,2.66,4.17,2.85,8.77-.25,12.59a14.65,14.65,0,0,1-7.62,5c-18.54,3.82-37.16,7.21-55.77,10.72C-61,494.81-62,494.85-62.49,494.9Z" transform="translate(250 250)"/><path class="cls-9" d="M500.16,388.33c-8.42.13-13.48-4-14.24-9.72-.86-6.5,3.07-11.95,10-13.35,10.6-2.13,21.26-4,31.89-6.05,6.54-1.23,13.07-2.5,19.62-3.7a54,54,0,0,1,6.42-.93,11.48,11.48,0,0,1,12.11,9c1.15,6.08-1.71,12-7.76,13.28C538.19,381.1,518.06,384.82,500.16,388.33Z" transform="translate(250 250)"/><path class="cls-2" d="M86.71,296.53c-37.86.16-69.54-31.29-69.65-69.16a70.06,70.06,0,0,1,69.83-70.51c38.24-.11,69.83,31.25,69.91,69.41A69.93,69.93,0,0,1,86.71,296.53Z" transform="translate(250 250)"/><path class="cls-8" d="M506.17,28.79a34.91,34.91,0,1,1-69.81-.5c.06-18.83,16-34.62,34.92-34.49A34.94,34.94,0,0,1,506.17,28.79Z" transform="translate(250 250)"/><path class="cls-3" d="M250.38,453.88a29.07,29.07,0,1,1-29.46,29A29.12,29.12,0,0,1,250.38,453.88Zm-2,35.24c5.07-.7,7.48-2.51,7.45-6.25a5.33,5.33,0,0,0-5.62-5.69c-3.69-.06-6.33,2.26-5.79,5.83C244.72,485.38,247.17,487.43,248.33,489.12Z" transform="translate(250 250)"/><path class="cls-11" d="M248.33,489.12c-1.16-1.69-3.61-3.74-4-6.11-.54-3.57,2.1-5.89,5.79-5.83a5.33,5.33,0,0,1,5.62,5.69C255.81,486.61,253.4,488.42,248.33,489.12Z" transform="translate(250 250)"/></svg>