<svg id="Layer_1" data-name="Layer 1" xmlns="http://www.w3.org/2000/svg" viewBox="0 0 1000 1000"><defs><style>.cls-1{fill:#fefefe;}.cls-2{fill:#df2828;}.cls-3{fill:#f5f1f1;}.cls-4{fill:#df2a2a;}.cls-5{fill:#e02c2c;}.cls-6{fill:#df2929;}.cls-7{fill:#f6f2f2;}.cls-8{fill:#f6f1f1;}.cls-9{fill:#e02d2d;}.cls-10{fill:#df2b2b;}.cls-11{fill:#f5efef;}</style></defs><path class="cls-1" d="M-250,750V-250H750V750Zm501.42-5c271.92.09,493.22-220.53,493.58-492,.36-273.45-220-494.58-493.17-495C-20.1-242.38-241.84-21.32-242,250.3-242.16,523.79-21.61,744.91,251.42,745Z" transform="translate(250 250)"/><path class="cls-2" d="M251.42,745c-273-.09-493.58-221.21-493.42-494.7C-241.84-21.32-20.1-242.38,251.83-242,525-241.62,745.36-20.49,745,253,744.64,524.47,523.34,745.09,251.42,745ZM-67.92,534.34c-4.13,0-7.94-.23-11.72.06a9.87,9.87,0,0,0-9,7.47,8.67,8.67,0,0,0,4.52,10.62c2.48,1.29,5.76,1.44,8.67,1.44q326.72.09,653.42.05c.83,0,1.67,0,2.5,0,6.63-.13,10.39-3.48,10.53-9.39.15-6.07-3.83-10.07-10.35-10.27-3.43-.11-6.86,0-10.2,0V256.12c3.77,0,7.09.12,10.39,0,7.82-.35,12-6.41,9.49-13.85a59.22,59.22,0,0,0-2.31-5.53c-12.7-28.61-25.62-57.13-38-85.88-3.32-7.69-7.92-10.73-16.33-10.7-66.33.26-132.65.12-199,.21a10.67,10.67,0,0,1-8.33-3.36c-20.53-20.72-41.24-41.25-61.72-62a11.79,11.79,0,0,1-3.18-7.27c-.3-13.49,0-27-.23-40.49-.07-4.08,1-5.42,5.25-5.37,19,.22,38,.12,57,.09,8.59,0,12.29-3.59,12.32-12q.09-24.51,0-49c0-8.42-3.49-11.83-11.86-11.84q-34.74,0-69.49,0c-10.45,0-13.25,2.83-13.25,13.43,0,34.83,0,69.66.06,104.49a10.62,10.62,0,0,1-3.47,8.3q-30.69,30.45-61.14,61.17a12.24,12.24,0,0,1-9.62,3.93c-66-.11-132,.05-198-.23-8.61,0-13.32,3-16.73,10.88C-60.59,181-74,210.72-87.35,240.51c-3.88,8.66.18,15.38,9.78,15.6,3.12.08,6.23,0,9.65,0Z" transform="translate(250 250)"/><path class="cls-3" d="M-67.92,534.34V256.12c-3.42,0-6.53.07-9.65,0-9.6-.22-13.66-6.94-9.78-15.6C-74,210.72-60.59,181-47.7,151c3.41-7.92,8.12-10.91,16.73-10.88,66,.28,132,.12,198,.23a12.24,12.24,0,0,0,9.62-3.93q30.4-30.75,61.14-61.17a10.62,10.62,0,0,0,3.47-8.3c-.11-34.83-.07-69.66-.06-104.49,0-10.6,2.8-13.43,13.25-13.43q34.74,0,69.49,0c8.37,0,11.83,3.42,11.86,11.84q.08,24.49,0,49c0,8.46-3.73,12-12.32,12-19,0-38,.13-57-.09-4.25-.05-5.32,1.29-5.25,5.37.24,13.49-.07,27,.23,40.49A11.79,11.79,0,0,0,264.62,75c20.48,20.76,41.19,41.29,61.72,62a10.67,10.67,0,0,0,8.33,3.36c66.33-.09,132.65,0,199-.21,8.41,0,13,3,16.33,10.7,12.37,28.75,25.29,57.27,38,85.88a59.22,59.22,0,0,1,2.31,5.53c2.47,7.44-1.67,13.5-9.49,13.85-3.3.15-6.62,0-10.39,0V534.3c3.34,0,6.77-.09,10.2,0,6.52.2,10.5,4.2,10.35,10.27-.14,5.91-3.9,9.26-10.53,9.39-.83,0-1.67,0-2.5,0q-326.71,0-653.42-.05c-2.91,0-6.19-.15-8.67-1.44a8.67,8.67,0,0,1-4.52-10.62,9.87,9.87,0,0,1,9-7.47C-75.86,534.11-72,534.34-67.92,534.34ZM252.14,89.41c-2.47,2.31-3.7,3.4-4.86,4.55q-78,77.94-155.84,156A19.9,19.9,0,0,1,76,256.23c-39.16-.22-78.32-.12-117.48-.1-1.92,0-3.84.16-5.9.25V533.94H156v-5.23c0-8.67-.11-17.34,0-26,.11-7.1,3.86-10.72,10.89-10.87,3.27-.07,6.55,0,10.3,0v-6.09q0-38.24,0-76.49c0-9.94,3.29-13.26,13.13-13.26q60.74,0,121.49,0c9.91,0,13.17,3.25,13.18,13.14q0,36,0,72c0,10.47,0,10.47,10.24,10.71,7.2.17,11,3.82,11.13,11.25.17,9,0,18,0,27,0,1.27.18,2.54.27,3.78H549.64V256.08c-4,0-7.59.16-11.2,0-5.63-.3-9.49-4.22-9.65-9.5a9.62,9.62,0,0,1,8.93-10.18,81.07,81.07,0,0,1,9.49-.21c5.88,0,11.77,0,18.22,0-.62-1.88-.84-2.83-1.23-3.71-10.12-22.83-20.32-45.63-30.32-68.51-1.43-3.27-3.55-3.74-6.64-3.74q-86,.1-172,.06c-1.33,0-2.66.19-4.79.35,1.3,1.52,1.89,2.3,2.58,3q35,35,70.09,69.9a11,11,0,0,0,7,2.55c20.83.19,41.66.09,62.49.14a23.28,23.28,0,0,1,6.41.71,9.24,9.24,0,0,1,6.9,8.84A9,9,0,0,1,500.4,255a17,17,0,0,1-6.8,1.07c-22.67.08-45.33-.09-68,.15a18.15,18.15,0,0,1-14.12-5.83q-77.81-78.1-155.81-156A38.53,38.53,0,0,1,252.14,89.41ZM-63.25,235.88c1.82.14,2.63.26,3.45.26,44.33,0,88.65.05,133-.11a10.28,10.28,0,0,0,6.41-2.84q34.82-34.47,69.35-69.22a39.53,39.53,0,0,0,2.7-3.52c-1.8-.11-2.74-.21-3.68-.21q-86.75,0-173.47-.09c-3.54,0-4.94,1.53-6.2,4.4q-14,31.78-28.11,63.48C-60.88,230.42-61.91,232.82-63.25,235.88ZM241.18,454.5c0-11.33-.11-22.67.07-34,.05-3.39-.81-4.7-4.43-4.64-11.67.21-23.34.23-35,0-3.89-.07-4.72,1.35-4.7,4.94q.21,33.25,0,66.5c0,3.41.89,4.68,4.47,4.62,11.67-.2,23.34-.24,35,0,3.94.09,4.72-1.35,4.65-4.92C241.05,476.17,241.18,465.33,241.18,454.5Zm63.25,37.33a9.78,9.78,0,0,0,.62-2.05c0-23.49,0-47,.1-70.49,0-2.72-1.16-3.4-3.62-3.38q-18.5.1-37,0c-2.65,0-3.45,1.08-3.44,3.59,0,23,0,46,.16,69,0,1.11,1.94,3.17,3,3.18C277.56,491.9,290.88,491.83,304.43,491.83ZM176.17,534h149.9V512.19H176.17Zm85-565c0,10.35-.05,20.6.12,30.84,0,.72,1.73,2,2.65,2q24.46.19,48.92,0c1,0,2.81-1.51,2.82-2.34.2-10.09.13-20.18.13-30.52Z" transform="translate(250 250)"/><path class="cls-4" d="M252.14,89.41a38.53,38.53,0,0,0,3.53,5q77.9,78,155.81,156a18.15,18.15,0,0,0,14.12,5.83c22.67-.24,45.33-.07,68-.15a17,17,0,0,0,6.8-1.07,9,9,0,0,0,5.55-9.27,9.24,9.24,0,0,0-6.9-8.84,23.28,23.28,0,0,0-6.41-.71c-20.83-.05-41.66,0-62.49-.14a11,11,0,0,1-7-2.55q-35.22-34.78-70.09-69.9c-.69-.69-1.28-1.47-2.58-3,2.13-.16,3.46-.35,4.79-.35q86,0,172-.06c3.09,0,5.21.47,6.64,3.74,10,22.88,20.2,45.68,30.32,68.51.39.88.61,1.83,1.23,3.71-6.45,0-12.34,0-18.22,0a81.07,81.07,0,0,0-9.49.21,9.62,9.62,0,0,0-8.93,10.18c.16,5.28,4,9.2,9.65,9.5,3.61.19,7.24,0,11.2,0V533.86H346.72c-.09-1.24-.27-2.51-.27-3.78,0-9,.14-18,0-27-.13-7.43-3.93-11.08-11.13-11.25-10.24-.24-10.24-.24-10.24-10.71q0-36,0-72c0-9.89-3.27-13.14-13.18-13.14q-60.75,0-121.49,0c-9.84,0-13.13,3.32-13.13,13.26q0,38.25,0,76.49v6.09c-3.75,0-7-.06-10.3,0-7,.15-10.78,3.77-10.89,10.87-.15,8.66,0,17.33,0,26v5.23H-47.39V256.38c2.06-.09,4-.25,5.9-.25,39.16,0,78.32-.12,117.48.1a19.9,19.9,0,0,0,15.45-6.31Q169.21,171.8,247.28,94C248.44,92.81,249.67,91.72,252.14,89.41ZM442.62,479.82q36,0,72,0c9.21,0,12.71-3.48,12.72-12.65q0-29.22,0-58.46c0-9.32-3.33-12.71-12.56-12.71q-72,0-143.9,0c-8.95,0-12.48,3.45-12.5,12.31q-.06,29.47,0,58.95c0,9.15,3.56,12.56,12.84,12.56Q406.9,479.84,442.62,479.82Zm.19-106.54q35.71,0,71.43,0c9.64,0,13-3.34,13-12.79q0-29.22,0-58.44c0-9-3.41-12.55-12.3-12.56q-72.18-.06-144.35,0c-8.93,0-12.29,3.52-12.31,12.53q-.06,29.22,0,58.45c0,9.49,3.41,12.8,13.05,12.8Q407.1,373.3,442.81,373.28ZM59.58,289.63q-36.22,0-72.44,0c-8.62,0-12.1,3.5-12.11,12.12q0,29.48,0,58.95c0,9,3.46,12.55,12.29,12.55q72.2,0,144.38,0c8.86,0,12.28-3.5,12.29-12.49q0-29,0-57.95c0-10.15-3-13.18-13-13.19ZM49.19,459.26C41.58,461.62,38.27,465.55,39,471c.8,5.77,5.26,8.79,13,8.79q40,0,80,0c8.18,0,11.94-3.73,12-11.9q.06-30.24,0-60.48C144,400,140.3,396,133.17,396q-73.72-.07-147.46,0c-6.62,0-10.62,4-10.65,10.59q-.14,31.25,0,62.48c0,6.56,4.08,10.53,10.69,10.68s13.33.14,20,0c6.19-.13,10.33-4.17,10.41-9.81.09-5.91-4-9.89-10.59-10.07-3.42-.09-6.85,0-10.21,0v-43.6H49.19ZM251.4,193.74a74,74,0,0,0-74.11,73.54C177,307.73,210.2,341,251,341.28c40.54.25,73.9-32.91,74-73.58A73.82,73.82,0,0,0,251.4,193.74Z" transform="translate(250 250)"/><path class="cls-4" d="M-63.25,235.88c1.34-3.06,2.37-5.46,3.43-7.85q14.07-31.72,28.11-63.48c1.26-2.87,2.66-4.4,6.2-4.4q86.73.18,173.47.09c.94,0,1.88.1,3.68.21a39.53,39.53,0,0,1-2.7,3.52q-34.62,34.67-69.35,69.22A10.28,10.28,0,0,1,73.18,236c-44.33.16-88.65.12-133,.11C-60.62,236.14-61.43,236-63.25,235.88Z" transform="translate(250 250)"/><path class="cls-5" d="M241.18,454.5c0,10.83-.13,21.67.07,32.5.07,3.57-.71,5-4.65,4.92-11.66-.25-23.33-.21-35,0-3.58.06-4.49-1.21-4.47-4.62q.18-33.26,0-66.5c0-3.59.81-5,4.7-4.94,11.66.24,23.33.22,35,0,3.62-.06,4.48,1.25,4.43,4.64C241.07,431.83,241.18,443.17,241.18,454.5Z" transform="translate(250 250)"/><path class="cls-5" d="M304.43,491.83c-13.55,0-26.87.07-40.17-.15-1.06,0-3-2.07-3-3.18-.17-23-.11-46-.16-69,0-2.51.79-3.61,3.44-3.59q18.49.12,37,0c2.46,0,3.63.66,3.62,3.38-.09,23.5-.07,47-.1,70.49A9.78,9.78,0,0,1,304.43,491.83Z" transform="translate(250 250)"/><path class="cls-6" d="M176.17,534V512.19h149.9V534Z" transform="translate(250 250)"/><path class="cls-5" d="M261.16-31H315.8c0,10.34.07,20.43-.13,30.52,0,.83-1.83,2.33-2.82,2.34q-24.47.21-48.92,0c-.92,0-2.63-1.31-2.65-2C261.11-10.39,261.16-20.64,261.16-31Z" transform="translate(250 250)"/><path class="cls-3" d="M442.62,479.82q-35.72,0-71.45,0c-9.28,0-12.81-3.41-12.84-12.56q-.07-29.47,0-58.95c0-8.86,3.55-12.31,12.5-12.31q72,0,143.9,0c9.23,0,12.55,3.39,12.56,12.71q0,29.24,0,58.46c0,9.17-3.51,12.65-12.72,12.65Q478.6,479.84,442.62,479.82Zm-10.1-20.24V415.94c-17.36,0-34.3,0-51.25,0-3.45,0-3,2.3-3,4.44q0,16.45,0,32.93c0,2.09.18,4.18.28,6.29Zm74.4,0V416.31H453.21v43.27Z" transform="translate(250 250)"/><path class="cls-7" d="M442.81,373.28q-35.71,0-71.43,0c-9.64,0-13-3.31-13.05-12.8q0-29.24,0-58.45c0-9,3.38-12.52,12.31-12.53q72.17-.08,144.35,0c8.89,0,12.29,3.57,12.3,12.56q0,29.22,0,58.44c0,9.45-3.41,12.79-13,12.79Q478.53,373.3,442.81,373.28Zm-10.16-19.76V310.16a5,5,0,0,0-1.53-.63c-16.64-.07-33.29-.17-49.93,0-1,0-2.79,2.49-2.82,3.85-.22,12,0,24-.19,35.95,0,3.37,1.2,4.24,4.39,4.21,13.48-.14,27-.06,40.45-.06Zm20.44-.5h54V309.83h-54Z" transform="translate(250 250)"/><path class="cls-7" d="M59.58,289.63H131c10,0,13,3,13,13.19q0,29,0,57.95c0,9-3.43,12.49-12.29,12.49q-72.19,0-144.38,0c-8.83,0-12.28-3.56-12.29-12.55q0-29.47,0-58.95c0-8.62,3.49-12.11,12.11-12.12Q23.36,289.6,59.58,289.63ZM-4.75,309.81v43a6.48,6.48,0,0,0,1.66.58c16.48.05,33,0,49.45.14,3.32,0,3.26-1.91,3.26-4.22,0-11.82-.12-23.65.06-35.47,0-3.46-1-4.6-4.51-4.56-15.32.17-30.64.07-46,.09C-2.08,309.41-3.36,309.66-4.75,309.81Zm101.24-.43c-7.49,0-15,.13-22.46-.05-3.28-.08-4.79.63-4.73,4.36.22,11.82.16,23.64,0,35.45,0,3.08.65,4.48,4.13,4.45q23.21-.24,46.43,0c3.34,0,4.28-1.18,4.24-4.37-.15-11.82-.19-23.64,0-35.45.06-3.67-1.36-4.51-4.69-4.43C111.81,309.51,104.15,309.38,96.49,309.38Z" transform="translate(250 250)"/><path class="cls-8" d="M49.19,459.26v-43H-4.65v43.6c3.36,0,6.79-.08,10.21,0,6.54.18,10.68,4.16,10.59,10.07-.08,5.64-4.22,9.68-10.41,9.81q-10,.23-20,0c-6.61-.15-10.66-4.12-10.69-10.68q-.14-31.23,0-62.48c0-6.6,4-10.59,10.65-10.59q73.74-.09,147.46,0C140.3,396,144,400,144,407.42q.09,30.24,0,60.48c0,8.17-3.78,11.89-12,11.9q-40,0-80,0c-7.76,0-12.22-3-13-8.79C38.27,465.55,41.58,461.62,49.19,459.26Zm20.2.21h54.67c0-13-.15-25.65.09-38.26.08-4-.91-5.45-5.2-5.38-14.79.26-29.6.09-44.4.12-1.58,0-3.16.21-5.16.35v43.17Z" transform="translate(250 250)"/><path class="cls-3" d="M251.4,193.74a73.82,73.82,0,0,1,73.6,74c-.12,40.67-33.48,73.83-74,73.58-40.78-.25-73.94-33.55-73.69-74A74,74,0,0,1,251.4,193.74ZM251,321.34a53.83,53.83,0,1,0,.32-107.65c-29.84-.06-54.2,24.21-54.09,53.89A54,54,0,0,0,251,321.34Z" transform="translate(250 250)"/><path class="cls-9" d="M432.52,459.58h-54c-.1-2.11-.28-4.2-.28-6.29q0-16.47,0-32.93c0-2.14-.44-4.46,3-4.44,17,.05,33.89,0,51.25,0Z" transform="translate(250 250)"/><path class="cls-10" d="M506.92,459.58H453.21V416.31h53.71Z" transform="translate(250 250)"/><path class="cls-9" d="M432.65,353.52H423c-13.48,0-27-.08-40.45.06-3.19,0-4.43-.84-4.39-4.21.16-12,0-24,.19-35.95,0-1.36,1.82-3.84,2.82-3.85,16.64-.21,33.29-.11,49.93,0a5,5,0,0,1,1.53.63Z" transform="translate(250 250)"/><path class="cls-5" d="M453.09,353V309.83h54V353Z" transform="translate(250 250)"/><path class="cls-9" d="M-4.75,309.81c1.39-.15,2.67-.4,4-.41,15.32,0,30.64.08,46-.09,3.53,0,4.56,1.1,4.51,4.56-.18,11.82-.09,23.65-.06,35.47,0,2.31.06,4.25-3.26,4.22-16.48-.13-33-.09-49.45-.14a6.48,6.48,0,0,1-1.66-.58Z" transform="translate(250 250)"/><path class="cls-9" d="M96.49,309.38c7.66,0,15.32.13,23-.05,3.33-.08,4.75.76,4.69,4.43-.21,11.81-.17,23.63,0,35.45,0,3.19-.9,4.4-4.24,4.37q-23.22-.21-46.43,0c-3.48,0-4.16-1.37-4.13-4.45.13-11.81.19-23.63,0-35.45-.06-3.73,1.45-4.44,4.73-4.36C81.51,309.51,89,309.38,96.49,309.38Z" transform="translate(250 250)"/><path class="cls-9" d="M69.39,459.47V416.3c2-.14,3.58-.35,5.16-.35,14.8,0,29.61.14,44.4-.12,4.29-.07,5.28,1.34,5.2,5.38-.24,12.61-.09,25.24-.09,38.26Z" transform="translate(250 250)"/><path class="cls-10" d="M251,321.34a54,54,0,0,1-53.77-53.76c-.11-29.68,24.25-53.95,54.09-53.89A53.83,53.83,0,1,1,251,321.34Zm-9.83-43.41c0,3.49,0,7,0,10.48a8.24,8.24,0,0,0,.07,1c.72,5.51,4.83,9.37,9.93,9.34,5.41,0,9.55-4.05,9.87-9.88.21-3.81-.3-7.69.22-11.45a8.12,8.12,0,0,1,3.26-5.21c3.91-2.49,8.32-4.16,12.37-6.46,5.07-2.88,6.83-8.44,4.5-13.23-2.43-5-8.09-6.91-13.65-4.4-3.93,1.79-7.58,4.28-11.62,5.71C244.58,257.91,238.06,264.85,241.19,277.93Z" transform="translate(250 250)"/><path class="cls-11" d="M241.19,277.93c-3.13-13.08,3.39-20,15-24.11,4-1.43,7.69-3.92,11.62-5.71,5.56-2.51,11.22-.6,13.65,4.4,2.33,4.79.57,10.35-4.5,13.23-4.05,2.3-8.46,4-12.37,6.46a8.12,8.12,0,0,0-3.26,5.21c-.52,3.76,0,7.64-.22,11.45-.32,5.83-4.46,9.85-9.87,9.88-5.1,0-9.21-3.83-9.93-9.34a8.24,8.24,0,0,1-.07-1C241.19,284.92,241.19,281.42,241.19,277.93Z" transform="translate(250 250)"/></svg>