<svg id="Layer_1" data-name="Layer 1" xmlns="http://www.w3.org/2000/svg" viewBox="0 0 1000 1000"><defs><style>.cls-1{fill:#fefefe;}.cls-2{fill:#df2929;}.cls-3{fill:#fefbfb;}.cls-4{fill:#fdf9f9;}.cls-5{fill:#e02d2d;}.cls-6{fill:#e03131;}.cls-7{fill:#e02e2e;}.cls-8{fill:#e02b2b;}.cls-9{fill:#df2a2a;}</style></defs><path class="cls-1" d="M750,750H-250V-250H750Zm-500.16-6C523.26,743.63,744.18,522.69,744,249.79,743.82-23.83,522.33-244.3,247.91-244-23.35-243.71-244.41-21.49-244,250.47-243.59,523.15-22.24,744.37,249.84,744Z" transform="translate(250 250)"/><path class="cls-2" d="M249.84,744C-22.24,744.37-243.59,523.15-244,250.47c-.41-272,220.65-494.18,491.91-494.47C522.33-244.3,743.82-23.83,744,249.79,744.18,522.69,523.26,743.63,249.84,744ZM380.69,274.68c-.64.92-1.31,2.06-2.14,3.08C358.8,301.84,339.1,326,319.22,350c-10.43,12.6-23.38,21.73-39.21,26.34q-58.44,17-116.93,33.86c-17.42,5-34.87,9.93-52.27,15-6.33,1.86-8.83,5.21-8.61,10.6.33,7.94,6.6,12.15,14.85,9.71,6.53-1.94,13-4.22,19.46-6.29,5.1-1.63,10.24-3.17,16-4.93,0,29.26,0,57.55-.15,85.85,0,1-2.06,2.69-3.31,2.86-3.12.41-6.32.08-9.49.15-7.59.18-12.47,4.48-12.35,10.8s5.31,10.72,12.6,10.74q30.49.06,61,0c7.54,0,12.46-4.22,12.59-10.59.14-6.82-4.43-10.86-12.58-10.94-7.33-.08-14.67-.26-22,.07-4.07.18-5-1.22-5-5.11.15-28,.08-56,.1-84a36.63,36.63,0,0,1,.44-4h6.83c129.32,0,258.64-.17,388,.14a43.4,43.4,0,0,0,44.06-44.12c-.74-28.48-.17-57-.17-85.49q0-132,0-264C613,17,600-.2,580.92-3.8c-10-1.89-20.54-1.1-30.83-1.46-2.92-.11-5.85,0-8.54,0a10.39,10.39,0,0,1-.5-1.78c0-8.17,0-16.33-.06-24.5,0-9-4.09-13.12-13.07-13.13q-29.5,0-59,0c-9,0-13.18,4.17-13.21,13,0,8.61,0,17.23,0,26H104.21c0-8.89,0-17.37,0-25.85,0-9.07-4.08-13.14-13-13.15q-29.51,0-59,0c-9,0-13.21,4.12-13.25,13,0,8.62,0,17.23,0,26.38-8,0-15.46-.27-22.89.1-5.44.27-11.08.62-16.21,2.25C-41,3.72-53.07,21.32-53.07,44.3q0,126.5,0,253a25.46,25.46,0,0,0,.35,5.46,10.31,10.31,0,0,0,11.38,8.31,10.26,10.26,0,0,0,9.41-9.91c.14-2,.08-4,.08-6,0-83.16.2-166.32-.16-249.48-.08-18.43,12.52-29.91,29.67-29.88q285,.45,569.94.19c16.21,0,24.18,8,24.18,24.25V384.7c0,1,0,2,0,3-.19,10.61-7,19.47-17.34,20.68-8.34,1-16.88.19-25.82.19v-5.21c0-11,.08-22,0-33-.08-7.86-4.1-12.4-11.25-12.41q-56.5-.12-113,0c-7.18,0-11.27,4.37-11.31,11.73-.07,11.66,0,23.33,0,35,0,1.26-.2,2.53-.29,3.71H247.1a249.49,249.49,0,0,1,27.28-8.17c23.85-5.66,44.55-16.61,60.36-35.7q34.41-41.56,68.47-83.44a14.84,14.84,0,0,0,3-7.69c2.05-24.4,3.63-48.84,5.8-73.24.88-9.93-.85-18.23-10.17-23.42a6.89,6.89,0,0,1,.8-1.64c3.67-3.51,4.67-7.71,2.63-12.28-2.16-4.81-6.33-6.49-11.44-6.41-6.17.09-12.34,0-18.5,0-8.67,0-17.34-.15-26,.08a10.82,10.82,0,0,0-10.89,10.78c.1,5.95,4.7,10.31,11.11,10.49,2.33.06,4.67,0,7,0H383.2c-13.59,13.6-26.69,26.11-39.05,39.32-8.29,8.85-15.61,18.61-23.2,28.1-2.74,3.43-2.8,7.48-.76,11.3s5.69,6.22,9.89,5.28a18.77,18.77,0,0,0,8.66-5.12c4-4.09,7.35-8.86,10.62-12.91ZM-70.72,523.11h-6.06c-8.66,0-17.34-.15-26,.17A10.31,10.31,0,0,0-113,533.48a11.07,11.07,0,0,0,10,11.16,25,25,0,0,0,3,.06H84.5a30,30,0,0,0,3,0c5.78-.62,10.35-5.57,10.25-11s-4.26-9.78-10.21-10.37c-1.82-.18-3.66-.12-5.49-.12H-49c-.15-1.89-.34-3.18-.34-4.47,0-18-.05-36,0-54,.17-34,7.73-66.28,21.7-97.2,10.33-22.85,27.85-33.77,52.82-33.71,58.33.13,116.66,0,175,0a157.65,157.65,0,0,0,85.19-24.59,176,176,0,0,0,16.94-12.33c5.23-4.22,5.81-10.3,2-15s-10-5.32-15.17-1.58c-1.22.87-2.36,1.85-3.55,2.77-24.24,18.67-51.61,28.81-82.25,29.26-25.17.37-50.34.09-75.5.07a32.38,32.38,0,0,1-4-.53C137.3,297,143,280.07,142.57,260.9c-.21-9.49.36-19-.19-28.49-.31-5.45,1.74-6.79,6.66-7.8,20.53-4.2,34.22-16.6,40.26-36.62s.95-37.76-13.67-52.29c-21-20.89-61-20.32-82.24,1-7.92,7.94-16.89,11.92-28.12,11.54-9.32-.32-18.68-.34-28,.12-22.86,1.13-41.64,19.18-42.13,41.59q-.93,42.72,0,85.49c.35,15.63,7.8,27.64,22.93,33.89,1.36.56,2.61,1.36,4.31,2.26a7.84,7.84,0,0,1-1.25.73c-.82.08-1.65.12-2.47.19-26.47,2.22-47.78,13.6-60.92,37.05-13.63,24.32-21.07,50.91-25.57,78.39-3.5,21.35-2.83,42.85-2.92,64.33C-70.76,502.24-70.72,512.23-70.72,523.11ZM443,98.43h90.43a45.79,45.79,0,0,0,6-.21,10.17,10.17,0,0,0,8.89-8.81,10,10,0,0,0-5.83-11,21.77,21.77,0,0,0-7.76-1.23Q444,77.06,353.32,77.1c-9.73,0-15,3.82-14.87,10.79s5.08,10.53,15.09,10.53ZM279.69,118.07c9.17,0,18.33,0,27.5,0q12.35-.08,12.41-12.22.09-18,0-36c0-8.14-4.13-12.32-12.32-12.35q-27.24-.12-54.49,0c-8.14,0-12.44,4.26-12.51,12.28q-.14,18,0,36c.06,8.08,4.29,12.24,12.41,12.3C261.7,118.12,270.7,118.07,279.69,118.07Zm.54,79.4c9,0,18,0,27,0,8.16,0,12.35-4.18,12.38-12.27q.09-18,0-36c0-8.1-4.16-12.28-12.35-12.31q-27.24-.12-54.48,0c-8.22,0-12.41,4.18-12.47,12.28q-.13,18,0,36c.06,8.06,4.36,12.25,12.45,12.3C261.91,197.51,271.07,197.46,280.23,197.47Z" transform="translate(250 250)"/><path class="cls-3" d="M380.69,274.68l-31.33-30.94c-3.27,4-6.61,8.82-10.62,12.91a18.77,18.77,0,0,1-8.66,5.12c-4.2.94-7.82-1.41-9.89-5.28s-2-7.87.76-11.3c7.59-9.49,14.91-19.25,23.2-28.1,12.36-13.21,25.46-25.72,39.05-39.32H356.54c-2.33,0-4.67,0-7,0-6.41-.18-11-4.54-11.11-10.49a10.82,10.82,0,0,1,10.89-10.78c8.66-.23,17.33-.08,26-.08,6.16,0,12.33.07,18.5,0,5.11-.08,9.28,1.6,11.44,6.41,2,4.57,1,8.77-2.63,12.28a6.89,6.89,0,0,0-.8,1.64c9.32,5.19,11.05,13.49,10.17,23.42-2.17,24.4-3.75,48.84-5.8,73.24a14.84,14.84,0,0,1-3,7.69q-34.08,41.85-68.47,83.44c-15.81,19.09-36.51,30-60.36,35.7a249.49,249.49,0,0,0-27.28,8.17H412.7c.09-1.18.29-2.45.29-3.71,0-11.67,0-23.34,0-35,0-7.36,4.13-11.72,11.31-11.73q56.49-.1,113,0c7.15,0,11.17,4.55,11.25,12.41.11,11,0,22,0,33v5.21c8.94,0,17.48.77,25.82-.19,10.38-1.21,17.15-10.07,17.34-20.68,0-1,0-2,0-3V40.23c0-16.23-8-24.25-24.18-24.25q-285,0-569.94-.19c-17.15,0-29.75,11.45-29.67,29.88.36,83.16.16,166.32.16,249.48,0,2,.06,4-.08,6a10.26,10.26,0,0,1-9.41,9.91,10.31,10.31,0,0,1-11.38-8.31,25.46,25.46,0,0,1-.35-5.46q0-126.49,0-253c0-23,12.08-40.58,32.88-47.23C-15.06-4.56-9.42-4.91-4-5.18c7.43-.37,14.9-.1,22.89-.1,0-9.15,0-17.76,0-26.38,0-8.91,4.22-13,13.25-13q29.51,0,59,0c9,0,13,4.08,13,13.15,0,8.48,0,17,0,25.85H455.7c0-8.72,0-17.34,0-25.95,0-8.88,4.23-13,13.21-13q29.5,0,59,0c9,0,13,4.08,13.07,13.13,0,8.17,0,16.33.06,24.5a10.39,10.39,0,0,0,.5,1.78c2.69,0,5.62-.09,8.54,0,10.29.36,20.82-.43,30.83,1.46C600-.2,613,17,613,36.64q.09,132,0,264c0,28.5-.57,57,.17,85.49a43.4,43.4,0,0,1-44.06,44.12c-129.32-.31-258.64-.14-388-.14h-6.83a36.63,36.63,0,0,0-.44,4c0,28,.05,56-.1,84,0,3.89,1,5.29,5,5.11,7.32-.33,14.66-.15,22-.07,8.15.08,12.72,4.12,12.58,10.94-.13,6.37-5,10.58-12.59,10.59q-30.49,0-61,0c-7.29,0-12.47-4.51-12.6-10.74s4.76-10.62,12.35-10.8c3.17-.07,6.37.26,9.49-.15,1.25-.17,3.3-1.85,3.31-2.86.18-28.3.15-56.59.15-85.85-5.75,1.76-10.89,3.3-16,4.93-6.5,2.07-12.93,4.35-19.46,6.29-8.25,2.44-14.52-1.77-14.85-9.71-.22-5.39,2.28-8.74,8.61-10.6,17.4-5.1,34.85-10,52.27-15Q221.55,393.26,280,376.3c15.83-4.61,28.78-13.74,39.21-26.34,19.88-24,39.58-48.12,59.33-72.2C379.38,276.74,380.05,275.6,380.69,274.68ZM527,379.42H434.52v29.07H527ZM40.51-23.16V-5.58H83v-8.69c0-8.89,0-8.89-9-8.89Zm436.78,0V-5.56h42.49c0-5.25.12-10.2-.11-15.14A3.36,3.36,0,0,0,517.35-23C504.09-23.19,490.83-23.15,477.29-23.15ZM387,248.41c1.17-15.69,2.3-30.93,3.45-46.42l-24.89,24.65Z" transform="translate(250 250)"/><path class="cls-4" d="M-70.72,523.11c0-10.88,0-20.87,0-30.85.09-21.48-.58-43,2.92-64.33,4.5-27.48,11.94-54.07,25.57-78.39,13.14-23.45,34.45-34.83,60.92-37.05.82-.07,1.65-.11,2.47-.19a7.84,7.84,0,0,0,1.25-.73c-1.7-.9-2.95-1.7-4.31-2.26C3,303.06-4.48,291.05-4.83,275.42q-1-42.74,0-85.49c.49-22.41,19.27-40.46,42.13-41.59,9.31-.46,18.67-.44,28-.12,11.23.38,20.2-3.6,28.12-11.54,21.25-21.3,61.21-21.87,82.24-1C190.25,150.23,195.32,168,189.3,188S169.57,220.41,149,224.61c-4.92,1-7,2.35-6.66,7.8.55,9.47,0,19,.19,28.49.43,19.17-5.27,36.06-18.67,50.93a32.38,32.38,0,0,0,4,.53c25.16,0,50.33.3,75.5-.07,30.64-.45,58-10.59,82.25-29.26,1.19-.92,2.33-1.9,3.55-2.77,5.22-3.74,11.4-3.08,15.17,1.58s3.23,10.79-2,15a176,176,0,0,1-16.94,12.33,157.65,157.65,0,0,1-85.19,24.59c-58.33,0-116.66.09-175,0-25-.06-42.49,10.86-52.82,33.71-14,30.92-21.53,63.23-21.7,97.2-.09,18-.05,36,0,54,0,1.29.19,2.58.34,4.47h131c1.83,0,3.67-.06,5.49.12,5.95.59,10.1,4.86,10.21,10.37s-4.47,10.43-10.25,11a30,30,0,0,1-3,0H-100a25,25,0,0,1-3-.06,11.07,11.07,0,0,1-10-11.16,10.31,10.31,0,0,1,10.23-10.2c8.65-.32,17.33-.14,26-.17ZM16.18,232.2c0,13.33-.13,26.66.06,40,.11,7.76,2.56,14.5,10.46,17.75,12.92,5.33,26.06-3.4,26.16-17.45.11-18,0-36,0-54,0-10.58,3.36-13.89,14.11-13.9h39c11.33,0,22.67.28,34-.15a31.18,31.18,0,0,0,30.18-28,30.42,30.42,0,0,0-23.46-33.22c-14.5-3.23-28.51-1.77-39.76,9.87C96.06,164.34,82.62,169.62,67,169.53c-8.83,0-17.67-.1-26.49,0-14.69.2-24.27,9.95-24.33,24.66C16.14,206.87,16.18,219.54,16.18,232.2Zm58-6.07c0,14.93-.21,29.4.06,43.87.3,15.87-5.17,28.59-18.9,37.24-.19.12-.18.58-.32,1.13a8.77,8.77,0,0,0,1.49,1c25.78,10.32,57.42-5.06,62.67-32.4,3.15-16.41,2-33.66,2.76-50.83Z" transform="translate(250 250)"/><path class="cls-3" d="M443,98.43H353.54c-10,0-15-3.47-15.09-10.53s5.14-10.79,14.87-10.79q90.68,0,181.35.05a21.77,21.77,0,0,1,7.76,1.23,10,10,0,0,1,5.83,11,10.17,10.17,0,0,1-8.89,8.81,45.79,45.79,0,0,1-6,.21Z" transform="translate(250 250)"/><path class="cls-4" d="M279.69,118.07c-9,0-18,.05-27,0-8.12-.06-12.35-4.22-12.41-12.3q-.12-18,0-36c.07-8,4.37-12.24,12.51-12.28q27.26-.09,54.49,0c8.19,0,12.28,4.21,12.32,12.35q.08,18,0,36-.06,12.17-12.41,12.22C298,118.11,288.86,118.07,279.69,118.07Zm-18-21.55h36.16V78.84c-11.22,0-22-.07-32.8.11-1.14,0-3.15,1.53-3.21,2.45C261.5,86.33,261.67,91.28,261.67,96.52Z" transform="translate(250 250)"/><path class="cls-4" d="M280.23,197.46c-9.16,0-18.32,0-27.49,0-8.09,0-12.39-4.24-12.45-12.3q-.12-18,0-36c.06-8.1,4.25-12.24,12.47-12.28q27.24-.1,54.48,0c8.19,0,12.32,4.21,12.35,12.31q.09,18,0,36c0,8.09-4.22,12.22-12.38,12.27C298.23,197.51,289.23,197.47,280.23,197.46Zm-18.36-21.69h35.91v-17.3H261.87Z" transform="translate(250 250)"/><path class="cls-5" d="M527,379.42v29.07H434.52V379.42Z" transform="translate(250 250)"/><path class="cls-6" d="M40.51-23.16H74c9,0,9,0,9,8.89v8.69H40.51Z" transform="translate(250 250)"/><path class="cls-6" d="M477.29-23.15c13.54,0,26.8,0,40.06.11a3.36,3.36,0,0,1,2.32,2.34c.23,4.94.11,9.89.11,15.14H477.29Z" transform="translate(250 250)"/><path class="cls-7" d="M387,248.41l-21.44-21.77L390.45,202C389.3,217.48,388.17,232.72,387,248.41Z" transform="translate(250 250)"/><path class="cls-8" d="M16.18,232.2c0-12.66,0-25.33,0-38,.06-14.71,9.64-24.46,24.33-24.66,8.82-.12,17.66-.06,26.49,0,15.61.09,29.05-5.19,39.92-16.43,11.25-11.64,25.26-13.1,39.76-9.87a30.42,30.42,0,0,1,23.46,33.22,31.18,31.18,0,0,1-30.18,28c-11.31.43-22.65.14-34,.15H67c-10.75,0-14.1,3.32-14.11,13.9,0,18,.08,36,0,54-.1,14.05-13.24,22.78-26.16,17.45-7.9-3.25-10.35-10-10.46-17.75C16.05,258.86,16.18,245.53,16.18,232.2Z" transform="translate(250 250)"/><path class="cls-9" d="M74.14,226.13H121.9c-.79,17.17.39,34.42-2.76,50.83-5.25,27.34-36.89,42.72-62.67,32.4a8.77,8.77,0,0,1-1.49-1c.14-.55.13-1,.32-1.13C69,298.59,74.5,285.87,74.2,270,73.93,255.53,74.14,241.06,74.14,226.13Z" transform="translate(250 250)"/><path class="cls-7" d="M261.67,96.52c0-5.24-.17-10.19.15-15.12.06-.92,2.07-2.43,3.21-2.45,10.79-.18,21.58-.11,32.8-.11V96.52Z" transform="translate(250 250)"/><path class="cls-5" d="M261.87,175.77v-17.3h35.91v17.3Z" transform="translate(250 250)"/></svg>