<svg id="Layer_1" data-name="Layer 1" xmlns="http://www.w3.org/2000/svg" viewBox="0 0 1000 1000"><defs><style>.cls-1{fill:#fefefe;}.cls-2{fill:#df2828;}.cls-3{fill:#fdfafa;}.cls-4{fill:#df2929;}.cls-5{fill:#e02b2b;}.cls-6{fill:#df2a2a;}.cls-7{fill:#e02c2c;}.cls-8{fill:#e02e2e;}</style></defs><path class="cls-1" d="M-250-250H750V750H-250ZM249.86,744C523.27,743.62,744.2,522.65,744,249.77,743.8-23.86,522.31-244.31,247.89-244-23.36-243.7-244.43-21.46-244,250.49-243.57,523.18-22.22,744.38,249.86,744Z" transform="translate(250 250)"/><path class="cls-2" d="M249.86,744C-22.22,744.38-243.57,523.18-244,250.49-244.43-21.46-23.36-243.7,247.89-244,522.31-244.31,743.8-23.86,744,249.77,744.2,522.65,523.27,743.62,249.86,744ZM115.62,443.68c-2.25,6.74-4.41,13.35-6.69,19.93-.93,2.66-.13,3.79,2.58,4.64a431.29,431.29,0,0,0,101.28,19.29c53.56,3.47,106.46.07,158.44-14.39a438.22,438.22,0,0,0,146-71.69c6.78-5.06,9.33-10.67,9.28-18.95-.27-49.5-.1-99-.23-148.49,0-3.18,1-4.79,3.77-6.12,5.08-2.46,10-5.26,15-7.91q42.69-22.77,85.39-45.52c4.8-2.55,8.4-5.76,8.64-11.78.28-6.72-3.53-10.3-8.87-13.15Q561.49,113,492.84,76.36,376.43,14.26,260.05-47.92c-6.82-3.65-12.93-3.91-19.77-.12-14.82,8.23-29.88,16-44.84,24Q32.81,62.69-129.83,149.37c-5.33,2.84-9.32,6.18-9.23,12.91.09,6.49,4,9.71,9.17,12.44,33,17.53,66,35.22,99.08,52.67,3.49,1.84,4.55,3.93,4.54,7.76q-.19,73.48-.09,147v6.3h25.1A52.37,52.37,0,0,0,7.46,416.2a8.09,8.09,0,0,1,.81,5.45c-1.42,7-3.3,13.92-4.8,20.91-6,27.8-4.61,56-4.6,84.16,0,4.9,2.53,8.54,6.87,10.79s8.91,4.52,13.39,6.72a70.09,70.09,0,0,0,26.33,6.86c17.92,1.31,33.13-5.9,48-14.27,4-2.26,5.81-6.25,5.79-11,0-9.83-.14-19.66,0-29.49A254.1,254.1,0,0,0,90,423.27,9.39,9.39,0,0,1,91.17,415c17.57-27.74,5.29-63-25.7-73.94-3.17-1.12-3.89-2.77-3.87-5.83.12-17.66,0-35.32.07-53,0-1.41.22-2.83.38-4.82,2,.95,3.44,1.6,4.86,2.35l122.38,65.21c17.61,9.39,35.28,18.67,52.8,28.22,5.54,3,10.68,3.22,16-.09,1.27-.79,2.62-1.45,3.94-2.16q101.21-54,202.4-108c12-6.38,24-12.66,36.44-19.24.13,1.68.29,2.78.29,3.88,0,43.49,0,87-.12,130.49a8.46,8.46,0,0,1-3.09,6c-11.78,8.11-23.5,16.38-35.8,23.65a401.21,401.21,0,0,1-126.73,48.07c-31.35,6.25-63,8.15-94.94,7.7-28.07-.4-55.88-3-83.25-9.31C143.49,451,129.88,447.3,115.62,443.68Z" transform="translate(250 250)"/><path class="cls-3" d="M115.62,443.68c14.26,3.62,27.87,7.35,41.61,10.5,27.37,6.29,55.18,8.91,83.25,9.31,31.9.45,63.59-1.45,94.94-7.7a401.21,401.21,0,0,0,126.73-48.07c12.3-7.27,24-15.54,35.8-23.65a8.46,8.46,0,0,0,3.09-6c.17-43.5.13-87,.12-130.49,0-1.1-.16-2.2-.29-3.88-12.45,6.58-24.48,12.86-36.44,19.24q-101.21,54-202.4,108c-1.32.71-2.67,1.37-3.94,2.16-5.32,3.31-10.46,3.11-16,.09-17.52-9.55-35.19-18.83-52.8-28.22L66.91,279.72c-1.42-.75-2.89-1.4-4.86-2.35-.16,2-.38,3.41-.38,4.82,0,17.67,0,35.33-.07,53,0,3.06.7,4.71,3.87,5.83,31,10.94,43.27,46.2,25.7,73.94A9.39,9.39,0,0,0,90,423.27a254.1,254.1,0,0,1,9.3,73.09c-.16,9.83-.06,19.66,0,29.49,0,4.72-1.77,8.71-5.79,11-14.89,8.37-30.1,15.58-48,14.27a70.09,70.09,0,0,1-26.33-6.86c-4.48-2.2-8.95-4.42-13.39-6.72s-6.87-5.89-6.87-10.79c0-28.13-1.39-56.36,4.6-84.16,1.5-7,3.38-13.9,4.8-20.91a8.09,8.09,0,0,0-.81-5.45,52.37,52.37,0,0,1-8.72-27.77h-25.1v-6.3q0-73.49.09-147c0-3.83-1.05-5.92-4.54-7.76-33.08-17.45-66-35.14-99.08-52.67-5.16-2.73-9.08-5.95-9.17-12.44-.09-6.73,3.9-10.07,9.23-12.91Q32.83,62.71,195.44-24c15-8,30-15.77,44.84-24,6.84-3.79,12.95-3.53,19.77.12Q376.38,14.35,492.84,76.36,561.5,113,630.19,149.54c5.34,2.85,9.15,6.43,8.87,13.15-.24,6-3.84,9.23-8.64,11.78Q587.72,197.21,545,220c-5,2.65-9.92,5.45-15,7.91-2.73,1.33-3.78,2.94-3.77,6.12.13,49.5,0,99,.23,148.49,0,8.28-2.5,13.89-9.28,18.95a438.22,438.22,0,0,1-146,71.69c-52,14.46-104.88,17.86-158.44,14.39a431.29,431.29,0,0,1-101.28-19.29c-2.71-.85-3.51-2-2.58-4.64C111.21,457,113.37,450.42,115.62,443.68ZM-99.76,162c2.57,1.5,4,2.43,5.58,3.25Q-27.07,201,40,236.81c3,1.61,5.09,1.09,7.77-.34Q117.93,199,188.13,161.6c5.36-2.85,10.68-5.8,15.93-8.67-7.75-19.06-3.77-33.06,12.09-44.08,18.57-12.91,49.61-12.78,68.1.28,21.74,15.35,21.41,41.81-1,56.17C266.44,176,248.28,177,229.43,171.44a10.68,10.68,0,0,0-7.27.58Q153,208.64,83.94,245.58c-4.15,2.22-8.25,4.53-13.14,7.23,2.37,1.42,3.85,2.4,5.41,3.23q84.9,45.34,169.78,90.72c3.3,1.77,5.64,1.15,8.64-.45q168.31-89.85,336.69-179.55c2.56-1.37,5.06-2.83,8.36-4.69-2.34-1.34-3.83-2.25-5.38-3.08L485.61,101q-115.5-61.62-231-123.29c-3.25-1.74-5.69-1.89-9.1-.07Q100.17,55.39-45.34,132.87C-63.07,142.33-80.79,151.81-99.76,162ZM31.46,435.2c-.54.56-.91.76-1,1-6.75,26.25-7,53-6.45,79.88a5.4,5.4,0,0,0,2.53,3.7c14.81,8.4,29.77,8.61,44.58.11A6.67,6.67,0,0,0,74,515c-.29-17-.43-34-1.57-50.89-.65-9.66-3.07-19.19-4.79-29.37C54.92,439.53,43,439.37,31.46,435.2ZM-.81,243.52V377.94c5.2-18.63,16.54-31.21,34.79-37.6,1.16-.41,2.33-2.73,2.34-4.18q.23-34.73,0-69.47c0-1.4-.74-3.5-1.79-4.09C23,256.19,11.3,250-.81,243.52ZM48.86,413.23A25.09,25.09,0,1,0,24,388,25.17,25.17,0,0,0,48.86,413.23Zm200.23-263.7c9.14,0,17.52-2.56,22.08-6.38,5.1-4.27,5.12-8.1.07-12.34-10.1-8.49-31.92-8.59-42.21-.19-5.5,4.48-5.46,8.59.33,12.92C235.48,148.11,242.65,149.33,249.09,149.53Z" transform="translate(250 250)"/><path class="cls-4" d="M-99.76,162c19-10.14,36.69-19.62,54.42-29.08Q100.13,55.3,245.54-22.34c3.41-1.82,5.85-1.67,9.1.07Q370.08,39.47,485.61,101L594.3,159c1.55.83,3,1.74,5.38,3.08-3.3,1.86-5.8,3.32-8.36,4.69Q423,256.52,254.63,346.31c-3,1.6-5.34,2.22-8.64.45Q161.17,301.29,76.21,256c-1.56-.83-3-1.81-5.41-3.23,4.89-2.7,9-5,13.14-7.23Q153,208.72,222.16,172a10.68,10.68,0,0,1,7.27-.58c18.85,5.52,37,4.59,53.79-6.14,22.44-14.36,22.77-40.82,1-56.17-18.49-13.06-49.53-13.19-68.1-.28-15.86,11-19.84,25-12.09,44.08-5.25,2.87-10.57,5.82-15.93,8.67Q117.95,199,47.77,236.47c-2.68,1.43-4.79,1.95-7.77.34Q-27,200.89-94.18,165.2C-95.72,164.38-97.19,163.45-99.76,162Z" transform="translate(250 250)"/><path class="cls-5" d="M31.46,435.2c11.58,4.17,23.46,4.33,36.19-.47,1.72,10.18,4.14,19.71,4.79,29.37C73.58,481,73.72,498,74,515a6.67,6.67,0,0,1-2.87,4.94c-14.81,8.5-29.77,8.29-44.58-.11a5.4,5.4,0,0,1-2.53-3.7c-.51-26.84-.3-53.63,6.45-79.88C30.55,436,30.92,435.76,31.46,435.2Z" transform="translate(250 250)"/><path class="cls-6" d="M-.81,243.52C11.3,250,23,256.19,34.56,262.6c1,.59,1.78,2.69,1.79,4.09q.15,34.74,0,69.47c0,1.45-1.18,3.77-2.34,4.18-18.25,6.39-29.59,19-34.79,37.6Z" transform="translate(250 250)"/><path class="cls-7" d="M48.86,413.23a25.09,25.09,0,1,1,25.25-24.91A25.19,25.19,0,0,1,48.86,413.23Z" transform="translate(250 250)"/><path class="cls-8" d="M249.09,149.53c-6.44-.2-13.61-1.42-19.73-6-5.79-4.33-5.83-8.44-.33-12.92,10.29-8.4,32.11-8.3,42.21.19,5.05,4.24,5,8.07-.07,12.34C266.61,147,258.23,149.5,249.09,149.53Z" transform="translate(250 250)"/></svg>