<svg id="Layer_1" data-name="Layer 1" xmlns="http://www.w3.org/2000/svg" viewBox="0 0 492.18 492.18"><defs><style>.cls-1{fill:#fefefe;}.cls-2{fill:#1b3e65;}.cls-3{fill:#e1332b;}</style></defs><path class="cls-1" d="M2.91,144V3.91H495.09V496.09H2.91V261c.51,1.11,1.09,2.19,1.51,3.32,3.8,10.14,11.15,15.91,21.87,16.59,4.6.3,9.31-1,14.23-1.61,0,1-.05,2.59,0,4.18Q42.76,355.63,45,427.77c.42,13.08,9,23,21.84,25.42,9.35,1.81,17.18-1.47,24-7.7a11.1,11.1,0,0,1,1.31.84c8.95,7.68,18.93,9.85,29.74,4.7,10.6-5,15-14,15.34-25.57q1.92-70.69,4.09-141.4c.05-1.65.24-3.29.39-5.14,21.45,8.63,37.75-7,37.12-26.62-1.07-33.22-.21-66.49-.17-99.74,0-18.73-12.11-35-30.38-39.22-7.51-1.71-15.52-1.13-23.29-1.77-4.65-.39-8.21,1.12-11.55,4.42-7.25,7.17-14.84,14-23.4,22-3.83-4.34-7.19-8.63-11-12.44-15.07-15-15.13-14.91-36.35-13.94A41.09,41.09,0,0,0,4.74,140.37,26.72,26.72,0,0,1,2.91,144ZM204.5,82.63V88.3q0,67.14,0,134.3c0,20,11.51,31.48,31.55,31.49q39.33,0,78.67,0h6.19l-29,25.91c-6.32,5.64-12.69,11.23-18.95,16.93-3.41,3.1-3.81,7.13-1.25,10.22,2.75,3.34,6.7,3.47,10.57.33,1.24-1,2.41-2.1,3.6-3.17l49.57-44.13c1.77,1.54,3.48,3,5.14,4.45,15.64,13.93,31.22,27.92,46.95,41.75,1.8,1.58,4.51,3.31,6.59,3.08s5.45-2.42,5.93-4.33c.6-2.39-.31-6.23-2.05-7.94-7.27-7.18-15.1-13.8-22.73-20.62L350.16,254.1h6.33q39.09,0,78.18,0c20.24,0,31.49-11.25,31.5-31.44q0-67.15,0-134.3V82.63c3.38,0,6.08,0,8.78,0,8,0,10.23-2.28,10.25-10.29q0-20.39,0-40.77c0-9.33-1.82-11.13-11.29-11.13H197.62c-1.27,0-2.56-.07-3.83,0-4.58.35-7.21,2.69-7.25,7.29q-.22,23.75,0,47.48c0,4.79,2.9,7.22,7.67,7.37C197.41,82.7,200.59,82.63,204.5,82.63Zm5.62,397.93c15.33,0,30.67,0,46,0,6.29,0,8.63-2.42,8.65-8.74,0-14.22.09-28.43,0-42.65-.12-15-10.15-26.81-24.92-29.59-4.86-.92-8.76-.07-12.39,3.95a23,23,0,0,1-34.7,0c-3.64-4.05-7.53-4.84-12.38-3.92-15,2.85-24.82,14.64-24.89,30.08-.06,13.73,0,27.47,0,41.21,0,7.56,2.07,9.67,9.62,9.69Q187.6,480.59,210.12,480.56Zm114.59,0c15.33,0,30.67,0,46,0,6.87,0,9.22-2.42,9.23-9.19q0-20.6,0-41.21c0-16-9.87-27.7-25.46-30.58-4.71-.88-8.45-.07-12,3.81-9.68,10.68-25.59,10.69-35.07,0-3.52-4-7.32-4.64-12-3.8-14.77,2.69-24.75,14.51-24.84,29.61-.08,13.73,0,27.47,0,41.21,0,8.38,1.77,10.19,10,10.19Zm115.27,0h46c5.88-.13,8.12-2.31,8.13-8.13,0-14.7.11-29.4,0-44.1a29.34,29.34,0,0,0-25.55-28.94c-4.4-.63-7.85.36-11.05,3.91-9.91,11-25.58,11-35.35-.09-3.22-3.64-6.71-4.45-11.08-3.76-15.69,2.46-26.16,14.58-26.23,30.49-.06,13.59,0,27.17,0,40.75,0,7.57,2.31,9.85,10.09,9.87Q417.45,480.59,440,480.56ZM129.49,66.74c0-3.52,0-6.08,0-8.63a39.89,39.89,0,0,0-35-38.72c-19.55-2.21-38.31,10-42.5,29.23-2,9.3-1.89,19.38-1,28.94,1.58,16.86,14.61,29.82,31.68,33.32,15.86,3.26,32.76-4.5,41.29-18.84C128.78,83.89,130,75,129.49,66.74ZM210.3,337.58a32.52,32.52,0,1,0,32.4,32.75A32.44,32.44,0,0,0,210.3,337.58ZM292.56,370a32.59,32.59,0,0,0,32.57,32.6c17.9-.08,32.71-15,32.52-32.79a32.55,32.55,0,0,0-65.09.19ZM440,337.58a32.52,32.52,0,1,0,32.37,32.67A32.33,32.33,0,0,0,440,337.58Z" transform="translate(-2.91 -3.91)"/><path class="cls-2" d="M2.91,144a26.72,26.72,0,0,0,1.83-3.62,41.09,41.09,0,0,1,37.92-28.74c21.22-1,21.28-1,36.35,13.94,3.84,3.81,7.2,8.1,11,12.44,8.56-8,16.15-14.85,23.4-22,3.34-3.3,6.9-4.81,11.55-4.42,7.77.64,15.78.06,23.29,1.77,18.27,4.19,30.41,20.49,30.38,39.22,0,33.25-.9,66.52.17,99.74.63,19.6-15.67,35.25-37.12,26.62-.15,1.85-.34,3.49-.39,5.14q-2.08,70.71-4.09,141.4C136.92,437,132.49,446,121.89,451c-10.81,5.15-20.79,3-29.74-4.7a11.1,11.1,0,0,0-1.31-.84c-6.81,6.23-14.64,9.51-24,7.7C54,450.72,45.43,440.85,45,427.77q-2.32-72.13-4.49-144.26c-.05-1.59,0-3.18,0-4.18-4.92.61-9.63,1.91-14.23,1.61-10.72-.68-18.07-6.45-21.87-16.59-.42-1.13-1-2.21-1.51-3.32Zm125.58,96.79v-4.72c0-15.35-.06-30.7,0-46.05,0-4.69,2.71-7.56,6.76-7.65s6.82,2.6,7.23,7.28c.11,1.27.06,2.56.06,3.84v31.65c0,10.07-.06,20.15,0,30.22.06,5.92,2.54,9.74,7,11.39,7.73,2.83,14.7-2.58,14.72-11.66.07-31.33,0-62.67,0-94a52.2,52.2,0,0,1,.26-5.73c1.46-13.24-7.09-25.79-20.22-28.52-5.55-1.15-11.42-1-17.15-.92a10.34,10.34,0,0,0-6.21,2.49c-8.19,7.39-16.1,15.08-24.17,22.6-4.34,4.06-7.72,4-12-.16-7.81-7.56-15.51-15.23-23.46-22.65a10.19,10.19,0,0,0-5.77-2.31,107.42,107.42,0,0,0-12.94-.05,26.66,26.66,0,0,0-25.64,26.94q.15,21.83.21,43.64c0,19.83,0,39.65,0,59.48,0,5.66,3.34,9.88,8.25,10.85,5.54,1.09,11.05-1.7,12.79-6.82a21.06,21.06,0,0,0,.91-6.58c.07-18.39,0-36.78,0-55.16,0-3-.1-6.08.06-9.11.2-3.9,2.44-6.28,6.26-6.63,4.09-.38,6.69,1.76,7.51,5.79A24.47,24.47,0,0,1,53.4,193q0,18.94,0,37.89v9.9ZM54,255.35c-.06,1-.12,1.46-.11,1.93q2,66.14,4,132.25c.4,12.78.75,25.56,1.41,38.32A12.06,12.06,0,0,0,71.08,439.5a12.49,12.49,0,0,0,13.07-10.86,36.43,36.43,0,0,0,.22-5.73q0-70,0-140c0-7,2.28-10.37,7-10.32S98.48,276,98.5,283v2.88q0,68.33,0,136.64c0,1.91,0,3.84.13,5.75.38,5.14,3.14,8.59,7.88,10.42C114.91,442,122.72,436,123,426q2.49-83.86,4.9-167.72c0-.9,0-1.8,0-2.9Z" transform="translate(-2.91 -3.91)"/><path class="cls-3" d="M204.5,82.63c-3.91,0-7.09.07-10.28,0-4.77-.15-7.62-2.58-7.67-7.37q-.26-23.73,0-47.48c0-4.6,2.67-6.94,7.25-7.29,1.27-.1,2.56,0,3.83,0H473.91c9.47,0,11.29,1.8,11.29,11.13q0,20.38,0,40.77c0,8-2.29,10.27-10.25,10.29-2.7,0-5.4,0-8.78,0v5.73q0,67.15,0,134.3c0,20.19-11.26,31.43-31.5,31.44q-39.09,0-78.18,0h-6.33l25.14,22.48C382.93,283.4,390.76,290,398,297.2c1.74,1.71,2.65,5.55,2.05,7.94-.48,1.91-3.72,4.09-5.93,4.33s-4.79-1.5-6.59-3.08c-15.73-13.83-31.31-27.82-46.95-41.75-1.66-1.48-3.37-2.91-5.14-4.45L285.9,304.32c-1.19,1.07-2.36,2.16-3.6,3.17-3.87,3.14-7.82,3-10.57-.33-2.56-3.09-2.16-7.12,1.25-10.22,6.26-5.7,12.63-11.29,18.95-16.93l29-25.91h-6.19q-39.35,0-78.67,0c-20,0-31.55-11.49-31.55-31.49q0-67.15,0-134.3Zm14.19.12v5.1q0,67.36,0,134.74c0,12.4,5,17.35,17.42,17.36h199C447,239.94,452,235,452,223.13q0-67.86,0-135.7c0-1.53-.13-3.06-.21-4.68ZM200.93,34.8V68.24h270V34.8Z" transform="translate(-2.91 -3.91)"/><path class="cls-2" d="M210.12,480.56q-22.53,0-45,0c-7.55,0-9.62-2.13-9.62-9.69,0-13.74-.05-27.48,0-41.21.07-15.44,9.89-27.23,24.89-30.08,4.85-.92,8.74-.13,12.38,3.92a23,23,0,0,0,34.7,0c3.63-4,7.53-4.87,12.39-3.95,14.77,2.78,24.8,14.56,24.92,29.59.11,14.22.05,28.43,0,42.65,0,6.32-2.36,8.72-8.65,8.74C240.79,480.6,225.45,480.56,210.12,480.56ZM169.8,466.1h80.66c0-13.19.19-26.11-.1-39-.12-5.47-3.39-9.47-8.09-12.25-2.63-1.56-4.58-1.44-7.13.84-14.21,12.73-35.41,13.07-49.39.54-3.71-3.33-6.75-3.07-9.36-.18-2.75,3.05-6.08,7-6.3,10.66C169.33,439.72,169.8,452.82,169.8,466.1Z" transform="translate(-2.91 -3.91)"/><path class="cls-2" d="M324.71,480.56H280.62c-8.22,0-10-1.81-10-10.19,0-13.74-.06-27.48,0-41.21.09-15.1,10.07-26.92,24.84-29.61,4.64-.84,8.44-.18,12,3.8,9.48,10.72,25.39,10.71,35.07,0,3.51-3.88,7.25-4.69,12-3.81,15.59,2.88,25.42,14.62,25.46,30.58q.06,20.61,0,41.21c0,6.77-2.36,9.16-9.23,9.19C355.38,480.59,340,480.56,324.71,480.56Zm41-14.43c0-13.08.12-25.84-.06-38.6-.08-5.32-3-9.3-7.39-12.19-2.93-1.92-5.19-2.21-8.36.55a37.24,37.24,0,0,1-48.73.78c-4.56-3.82-6.7-4.13-10.76.23-2.46,2.65-5,6.43-5.16,9.81-.59,13-.24,26.13-.24,39.42Z" transform="translate(-2.91 -3.91)"/><path class="cls-2" d="M440,480.56q-22.53,0-45.06,0c-7.78,0-10.09-2.3-10.09-9.87,0-13.58-.05-27.16,0-40.75.07-15.91,10.54-28,26.23-30.49,4.37-.69,7.86.12,11.08,3.76,9.77,11.07,25.44,11.1,35.35.09,3.2-3.55,6.65-4.54,11.05-3.91a29.34,29.34,0,0,1,25.55,28.94c.13,14.7.06,29.4,0,44.1,0,5.82-2.25,8-8.13,8.13H440Zm39.94-14.4c0-13,0-25.46,0-37.92,0-5.95-2.93-10.33-7.94-13.35-2.5-1.51-4.49-1.73-7.16.68-14.09,12.74-34.41,13-49.09,1.08-4.68-3.81-6.68-4.09-10.84.16-2.45,2.5-5.21,6-5.36,9.21-.59,13.33-.25,26.71-.25,40.14Z" transform="translate(-2.91 -3.91)"/><path class="cls-2" d="M129.49,66.74c.51,8.29-.71,17.15-5.55,25.3-8.53,14.34-25.43,22.1-41.29,18.84C65.58,107.38,52.55,94.42,51,77.56c-.89-9.56-1-19.64,1-28.94,4.19-19.28,23-31.44,42.5-29.23a39.89,39.89,0,0,1,35,38.72C129.54,60.66,129.49,63.22,129.49,66.74ZM115,65.55h.3c0-2.39,0-4.79,0-7.19-.29-12.81-10-23.65-22.19-24.78-13.81-1.29-25.5,6.61-27.87,19.87A86.67,86.67,0,0,0,64.51,74,25,25,0,0,0,88.3,97.18c13.09.62,24.35-8,26.57-20.64C115.49,73,115,69.22,115,65.55Z" transform="translate(-2.91 -3.91)"/><path class="cls-2" d="M210.3,337.58A32.52,32.52,0,1,1,177.57,370,32.45,32.45,0,0,1,210.3,337.58Zm-18.5,32.47a18.34,18.34,0,1,0,18.56-18.43A18.45,18.45,0,0,0,191.8,370.05Z" transform="translate(-2.91 -3.91)"/><path class="cls-2" d="M292.56,370a32.55,32.55,0,0,1,65.09-.19c.19,17.78-14.62,32.71-32.52,32.79A32.59,32.59,0,0,1,292.56,370Zm50.92.25A18.55,18.55,0,0,0,325,351.61a18.46,18.46,0,0,0,0,36.91A18.68,18.68,0,0,0,343.48,370.26Z" transform="translate(-2.91 -3.91)"/><path class="cls-2" d="M440,337.58a32.52,32.52,0,1,1-32.59,32.47A32.29,32.29,0,0,1,440,337.58ZM458.41,370a18.49,18.49,0,1,0-18.69,18.52A18.66,18.66,0,0,0,458.41,370Z" transform="translate(-2.91 -3.91)"/><path class="cls-1" d="M128.49,240.78H53.4v-9.9q0-18.94,0-37.89a24.47,24.47,0,0,0-.28-4.77c-.82-4-3.42-6.17-7.51-5.79-3.82.35-6.06,2.73-6.26,6.63-.16,3-.06,6.07-.06,9.11,0,18.38,0,36.77,0,55.16a21.06,21.06,0,0,1-.91,6.58c-1.74,5.12-7.25,7.91-12.79,6.82-4.91-1-8.23-5.19-8.25-10.85-.05-19.83,0-39.65,0-59.48q0-21.83-.21-43.64A26.66,26.66,0,0,1,42.7,125.82a107.42,107.42,0,0,1,12.94.05,10.19,10.19,0,0,1,5.77,2.31c8,7.42,15.65,15.09,23.46,22.65,4.29,4.15,7.67,4.22,12,.16,8.07-7.52,16-15.21,24.17-22.6a10.34,10.34,0,0,1,6.21-2.49c5.73-.08,11.6-.23,17.15.92,13.13,2.73,21.68,15.28,20.22,28.52a52.2,52.2,0,0,0-.26,5.73c0,31.34,0,62.68,0,94,0,9.08-7,14.49-14.72,11.66-4.49-1.65-7-5.47-7-11.39-.09-10.07,0-20.15,0-30.22V193.48c0-1.28,0-2.57-.06-3.84-.41-4.68-3.12-7.37-7.23-7.28s-6.74,3-6.76,7.65c-.07,15.35,0,30.7,0,46.05Z" transform="translate(-2.91 -3.91)"/><path class="cls-1" d="M54,255.35h73.91c0,1.1,0,2,0,2.9Q125.48,342.12,123,426c-.29,10-8.1,16-16.49,12.74-4.74-1.83-7.5-5.28-7.88-10.42-.14-1.91-.13-3.84-.13-5.75q0-68.32,0-136.64V283c0-7-2.3-10.38-7.08-10.43s-7,3.28-7,10.32q0,70,0,140a36.43,36.43,0,0,1-.22,5.73A12.49,12.49,0,0,1,71.08,439.5a12.06,12.06,0,0,1-11.75-11.65c-.66-12.76-1-25.54-1.41-38.32q-2-66.12-4-132.25C53.89,256.81,54,256.34,54,255.35Z" transform="translate(-2.91 -3.91)"/><path class="cls-1" d="M218.69,82.75H451.76c.08,1.62.21,3.15.21,4.68q0,67.84,0,135.7c0,11.88-5,16.81-16.88,16.82h-199c-12.46,0-17.42-5-17.42-17.36q0-67.38,0-134.74ZM335.84,192.89h63.3c7.19,0,14.39.1,21.58,0,4.26-.08,7.11-3,7.23-6.76s-2.52-6.74-6.79-7.26a32.56,32.56,0,0,0-3.83-.07q-81.52,0-163,0a22.22,22.22,0,0,0-5.23.39,6.42,6.42,0,0,0-5.32,7c.11,3.7,2.34,5.85,5.8,6.64a19.82,19.82,0,0,0,4.3.14Zm0-41.17H254.33a24.73,24.73,0,0,0-4.31.12c-3.72.64-6.14,2.78-6.27,6.7-.14,4.17,2.3,6.48,6.22,7.23a22.81,22.81,0,0,0,4.3.12q81.53,0,163,0a35.11,35.11,0,0,0,3.84,0c4.19-.46,7-3.4,6.77-7.25-.25-4.14-2.75-6.29-6.72-6.81a30.54,30.54,0,0,0-3.83-.06Zm-20.16-28H253.88a22,22,0,0,0-4.3.14c-3.54.69-5.69,2.9-5.83,6.56a6.33,6.33,0,0,0,5.28,7,25.85,25.85,0,0,0,5.71.41q60.61,0,121.23,0a34.27,34.27,0,0,0,4.3-.14c4.32-.58,6.84-3.37,6.5-7.38s-2.8-6.24-6.87-6.53c-1.27-.08-2.56,0-3.83,0Z" transform="translate(-2.91 -3.91)"/><path class="cls-1" d="M200.93,34.8h270V68.24h-270Z" transform="translate(-2.91 -3.91)"/><path class="cls-1" d="M169.8,466.1c0-13.28-.47-26.38.29-39.41.22-3.7,3.55-7.61,6.3-10.66,2.61-2.89,5.65-3.15,9.36.18,14,12.53,35.18,12.19,49.39-.54,2.55-2.28,4.5-2.4,7.13-.84,4.7,2.78,8,6.78,8.09,12.25.29,12.91.1,25.83.1,39Z" transform="translate(-2.91 -3.91)"/><path class="cls-1" d="M365.66,466.13H285c0-13.29-.35-26.38.24-39.42.16-3.38,2.7-7.16,5.16-9.81,4.06-4.36,6.2-4,10.76-.23a37.24,37.24,0,0,0,48.73-.78c3.17-2.76,5.43-2.47,8.36-.55,4.41,2.89,7.31,6.87,7.39,12.19C365.78,440.29,365.66,453.05,365.66,466.13Z" transform="translate(-2.91 -3.91)"/><path class="cls-1" d="M479.92,466.16H399.26c0-13.43-.34-26.81.25-40.14.15-3.18,2.91-6.71,5.36-9.21,4.16-4.25,6.16-4,10.84-.16,14.68,12,35,11.66,49.09-1.08,2.67-2.41,4.66-2.19,7.16-.68,5,3,7.91,7.4,7.94,13.35C480,440.7,479.92,453.17,479.92,466.16Z" transform="translate(-2.91 -3.91)"/><path class="cls-1" d="M115,65.55c0,3.67.53,7.43-.09,11C112.65,89.23,101.39,97.8,88.3,97.18A25,25,0,0,1,64.51,74a86.67,86.67,0,0,1,.69-20.5c2.37-13.26,14.06-21.16,27.87-19.87,12.19,1.13,21.9,12,22.19,24.78,0,2.4,0,4.8,0,7.19Z" transform="translate(-2.91 -3.91)"/><path class="cls-1" d="M191.8,370.05a18.34,18.34,0,1,1,36.67,0,18.34,18.34,0,1,1-36.67,0Z" transform="translate(-2.91 -3.91)"/><path class="cls-1" d="M343.48,370.26a18.68,18.68,0,0,1-18.42,18.26,18.46,18.46,0,1,1,18.42-18.26Z" transform="translate(-2.91 -3.91)"/><path class="cls-1" d="M458.41,370a18.49,18.49,0,1,1-18.29-18.39A18.75,18.75,0,0,1,458.41,370Z" transform="translate(-2.91 -3.91)"/><path class="cls-3" d="M335.84,192.89h-82a19.82,19.82,0,0,1-4.3-.14c-3.46-.79-5.69-2.94-5.8-6.64a6.42,6.42,0,0,1,5.32-7,22.22,22.22,0,0,1,5.23-.39q81.53,0,163,0a32.56,32.56,0,0,1,3.83.07c4.27.52,6.91,3.39,6.79,7.26s-3,6.68-7.23,6.76c-7.19.15-14.39,0-21.58,0Z" transform="translate(-2.91 -3.91)"/><path class="cls-3" d="M335.85,151.72h81.53a30.54,30.54,0,0,1,3.83.06c4,.52,6.47,2.67,6.72,6.81.23,3.85-2.58,6.79-6.77,7.25a35.11,35.11,0,0,1-3.84,0q-81.52,0-163,0a22.81,22.81,0,0,1-4.3-.12c-3.92-.75-6.36-3.06-6.22-7.23.13-3.92,2.55-6.06,6.27-6.7a24.73,24.73,0,0,1,4.31-.12Z" transform="translate(-2.91 -3.91)"/><path class="cls-3" d="M315.69,123.75h60.38c1.27,0,2.56,0,3.83,0,4.07.29,6.53,2.4,6.87,6.53s-2.18,6.8-6.5,7.38a34.27,34.27,0,0,1-4.3.14q-60.62,0-121.23,0a25.85,25.85,0,0,1-5.71-.41,6.33,6.33,0,0,1-5.28-7c.14-3.66,2.29-5.87,5.83-6.56a22,22,0,0,1,4.3-.14Z" transform="translate(-2.91 -3.91)"/></svg>