<svg id="Layer_1" data-name="Layer 1" xmlns="http://www.w3.org/2000/svg" viewBox="0 0 500 500"><defs><style>.cls-1{fill:#fefefe;}.cls-2{fill:#1b3e65;}.cls-3{fill:#fefcfc;}.cls-4{fill:#faf9f9;}.cls-5{fill:#fcfcfd;}.cls-6{fill:#f9f9fa;}.cls-7{fill:#f3f3f5;}.cls-8{fill:#e1302a;}.cls-9{fill:#e1322b;}.cls-10{fill:#e1312b;}.cls-11{fill:#e1362c;}.cls-12{fill:#e1352c;}.cls-13{fill:#e1312a;}.cls-14{fill:#fef9f6;}</style></defs><path class="cls-1" d="M-1,500V0H499V500ZM122.69,234.4H19.55c-9.28,0-11.8,2.55-11.8,11.91q0,105.76,0,211.53c0,9.48,2.59,12,12.24,12h459.1c9.53,0,12.1-2.6,12.1-12.18v-211c0-9.69-2.44-12.18-12-12.18q-48.74,0-97.47,0h-5.44c0-6.69-.16-12.7.06-18.69.17-4.83-1.85-8-6-10.22-4.59-2.44-9.07-5.07-13.6-7.63q-47.52-26.76-95-53.57c-1.43-.81-3.52-2.24-3.55-3.42-.28-10.34-.16-20.69-.16-30.95H280.4c0,3.51,0,6.6,0,9.68.09,7.74,2.9,10.73,10.55,10.76q31.68.11,63.36,0c9.2,0,13.19-5.22,9.39-13.6-5.21-11.51-5.67-22.22,0-33.82,4.11-8.45-.11-13.64-9.65-13.66-9.22,0-18.44,0-28,0,0-3.4,0-6.31,0-9.21-.08-8.32-2.91-11.22-11.12-11.26s-16.57,0-24.86,0H258V42.74c0-8.05-3.07-12.44-8.59-12.35S241,34.78,241,43c0,30.45-.22,60.9.18,91.35.09,6.31-2,9.32-7.35,12.27-34.95,19.31-69.67,39.06-104.53,58.53-4.64,2.59-6.93,5.91-6.66,11.32C122.91,222.23,122.69,228.06,122.69,234.4Z" transform="translate(1)"/><path class="cls-2" d="M122.69,234.4c0-6.34.22-12.17-.07-18-.27-5.41,2-8.73,6.66-11.32,34.86-19.47,69.58-39.22,104.53-58.53,5.33-2.95,7.44-6,7.35-12.27-.4-30.45-.18-60.9-.18-91.35,0-8.17,2.89-12.48,8.39-12.56s8.57,4.3,8.59,12.35v6.14H290c8.29,0,16.57,0,24.86,0s11,2.94,11.12,11.26c0,2.9,0,5.81,0,9.21,9.59,0,18.81,0,28,0,9.54,0,13.76,5.21,9.65,13.66-5.65,11.6-5.19,22.31,0,33.82,3.8,8.38-.19,13.56-9.39,13.6q-31.68.11-63.36,0c-7.65,0-10.46-3-10.55-10.76,0-3.08,0-6.17,0-9.68H258c0,10.26-.12,20.61.16,31,0,1.18,2.12,2.61,3.55,3.42q47.47,26.85,95,53.57c4.53,2.56,9,5.19,13.6,7.63,4.15,2.21,6.17,5.39,6,10.22-.22,6-.06,12-.06,18.69h5.44q48.74,0,97.47,0c9.59,0,12,2.49,12,12.18v211c0,9.58-2.57,12.18-12.1,12.18H20c-9.65,0-12.24-2.56-12.24-12q0-105.77,0-211.53c0-9.36,2.52-11.91,11.8-11.91H122.69ZM359.47,452.79a14.68,14.68,0,0,0,.3-1.86q-.06-114.29-.07-228.59c0-3-1.32-4.25-3.63-5.55Q304.67,188,253.39,159c-3-1.68-5-1.57-7.92.07q-51,29-102.22,57.65c-3.12,1.75-4.19,3.58-4.19,7.15q.16,111.85.09,223.71v5.24h41.4V353.06c0-9.51,2.65-12.15,12.16-12.15H306.25c9.5,0,12.13,2.65,12.14,12.17v99.71ZM24.75,251.49V452.61h97.67V251.49ZM376.47,452.74h97.67V251.53H376.47ZM197.91,357.92v94.86h42.78V357.92Zm103.21,94.86V358H258.35v94.76ZM308.84,66H258.2V92.56h50.64Zm-12.15,45.93,1.13,1.28h47.59c-5.86-8.84-5-17.53-.86-26.24H325.62c0,4.25,0,8.13,0,12,.11,7.71-2.59,10.52-10.38,10.61-5,.06-10.06-.14-15.07.11C299,109.73,297.85,111.13,296.69,111.91Z" transform="translate(1)"/><path class="cls-3" d="M359.47,452.79H318.39V353.08c0-9.52-2.64-12.17-12.14-12.17H192.71c-9.51,0-12.16,2.64-12.16,12.15v99.72h-41.4v-5.24q0-111.85-.09-223.71c0-3.57,1.07-5.4,4.19-7.15Q194.46,188,245.47,159c2.88-1.64,5-1.75,7.92-.07Q304.63,188,356.07,216.79c2.31,1.3,3.63,2.57,3.63,5.55q-.06,114.3.07,228.59A14.68,14.68,0,0,1,359.47,452.79ZM249,252.2a35,35,0,0,0,35.42-34.64c.26-18.92-15.25-34.71-34.47-35.11-19.06-.4-35.14,15.33-35.43,34.66C214.23,236.05,229.78,251.88,249,252.2Zm-51.53,17.7H164.74V286h32.73ZM266,270H233.13v16H266Zm68.26,0H301.59v16h32.65ZM164.82,308.79v16.13h32.5V308.79ZM233,325h32.86V308.92H233Zm68.49,0h32.74V308.92H301.44Z" transform="translate(1)"/><path class="cls-4" d="M24.75,251.49h97.67V452.61H24.75ZM60.83,368.66V335.52H44.88v33.14ZM102,335.58H85.84v33H102ZM44.74,302.66H60.9V270H44.74ZM85.85,269.9v32.87H102V269.9ZM45,401.51V434.3H60.87V401.51ZM102,434.43V401.57H85.84v32.86Z" transform="translate(1)"/><path class="cls-4" d="M376.47,452.74V251.53h97.67V452.74Zm36.6-84.19v-33H396.94v33Zm24.95-33v33h16.12v-33Zm-40.91-65.73v32.85h15.83V269.79Zm40.87.07v32.86h16.08V269.86ZM413.06,434.48V401.6H397v32.88Zm24.87-.05h16V401.57h-16Z" transform="translate(1)"/><path class="cls-5" d="M197.91,357.92h42.78v94.86H197.91Z" transform="translate(1)"/><path class="cls-5" d="M301.12,452.78H258.35V358h42.77Z" transform="translate(1)"/><path class="cls-6" d="M308.84,66V92.56H258.2V66Z" transform="translate(1)"/><path class="cls-7" d="M296.69,111.91c1.16-.78,2.29-2.18,3.49-2.24,5-.25,10,0,15.07-.11,7.79-.09,10.49-2.9,10.38-10.61-.05-3.87,0-7.75,0-12h18.93c-4.14,8.71-5,17.4.86,26.24H297.82Z" transform="translate(1)"/><path class="cls-8" d="M249,252.2c-19.22-.32-34.77-16.15-34.48-35.09.29-19.33,16.37-35.06,35.43-34.66,19.22.4,34.73,16.19,34.47,35.11A35,35,0,0,1,249,252.2Zm.67-16.65c9.83-.06,18.13-8.32,18.05-18a18.2,18.2,0,1,0-18.05,18Z" transform="translate(1)"/><path class="cls-9" d="M197.47,269.9V286H164.74V269.9Z" transform="translate(1)"/><path class="cls-9" d="M266,270v16H233.13V270Z" transform="translate(1)"/><path class="cls-9" d="M334.24,270v16H301.59V270Z" transform="translate(1)"/><path class="cls-10" d="M164.82,308.79h32.5v16.13h-32.5Z" transform="translate(1)"/><path class="cls-10" d="M233,325V308.92h32.86V325Z" transform="translate(1)"/><path class="cls-10" d="M301.44,325V308.92h32.74V325Z" transform="translate(1)"/><path class="cls-11" d="M60.83,368.66H44.88V335.52H60.83Z" transform="translate(1)"/><path class="cls-12" d="M102,335.58v33H85.84v-33Z" transform="translate(1)"/><path class="cls-13" d="M44.74,302.66V270H60.9v32.63Z" transform="translate(1)"/><path class="cls-8" d="M85.85,269.9H102v32.87H85.85Z" transform="translate(1)"/><path class="cls-8" d="M45,401.51H60.87V434.3H45Z" transform="translate(1)"/><path class="cls-8" d="M102,434.43H85.84V401.57H102Z" transform="translate(1)"/><path class="cls-12" d="M413.07,368.55H396.94v-33h16.13Z" transform="translate(1)"/><path class="cls-11" d="M438,335.52h16.12v33H438Z" transform="translate(1)"/><path class="cls-8" d="M397.11,269.79h15.83v32.85H397.11Z" transform="translate(1)"/><path class="cls-13" d="M438,269.86h16.08v32.86H438Z" transform="translate(1)"/><path class="cls-8" d="M413.06,434.48H397V401.6h16.1Z" transform="translate(1)"/><path class="cls-8" d="M437.93,434.43V401.57h16v32.86Z" transform="translate(1)"/><path class="cls-14" d="M249.67,235.55a18.22,18.22,0,1,1,18.05-18C267.8,227.23,259.5,235.49,249.67,235.55Z" transform="translate(1)"/></svg>