<svg width="84" height="84" viewBox="0 0 84 84" fill="none" xmlns="http://www.w3.org/2000/svg">
<path d="M32.8716 43.4937V26.9272L44.0721 43.1461C44.2797 43.4462 44.5021 43.2991 44.5021 42.9343L44.3471 26.8961" stroke="#043963" stroke-width="2.8" stroke-miterlimit="10" stroke-linecap="round" stroke-linejoin="round"/>
<path d="M24.5953 26.8961H17.6018V43.4937H24.5953" stroke="#043963" stroke-width="2.8" stroke-miterlimit="10" stroke-linecap="round" stroke-linejoin="round"/>
<path d="M24.0796 35.1953H17.6018" stroke="#043963" stroke-width="2.8" stroke-miterlimit="10" stroke-linecap="round" stroke-linejoin="round"/>
<path d="M65.2023 28.3134C63.8778 27.4186 62.2811 26.8961 60.5624 26.8961C55.9792 26.8961 52.2637 30.6117 52.2637 35.1949C52.2637 39.7781 55.9792 43.4937 60.5624 43.4937C65.1457 43.4937 67.7262 39.7781 67.7262 35.1949H62.7611" stroke="#043963" stroke-width="2.8" stroke-miterlimit="10" stroke-linecap="round" stroke-linejoin="round"/>
<path d="M76.8548 58.4312H7.14526V11.9581H76.8548V58.4312Z" stroke="#E02828" stroke-width="2.8" stroke-miterlimit="10" stroke-linecap="round" stroke-linejoin="round"/>
<path d="M82 11.9585H2V1.99999H82V11.9585Z" stroke="#E02828" stroke-width="2.8" stroke-miterlimit="10" stroke-linecap="round" stroke-linejoin="round"/>
<path d="M35.3609 58.4315L23.5767 82" stroke="#E02828" stroke-width="2.8" stroke-miterlimit="10" stroke-linecap="round" stroke-linejoin="round"/>
<path d="M60.4229 82L48.6387 58.4315" stroke="#E02828" stroke-width="2.8" stroke-miterlimit="10" stroke-linecap="round" stroke-linejoin="round"/>
<path d="M28.7217 71.7095H55.2777" stroke="#E02828" stroke-width="2.8" stroke-miterlimit="10" stroke-linecap="round" stroke-linejoin="round"/>
</svg>
