<svg id="Layer_1" data-name="Layer 1" xmlns="http://www.w3.org/2000/svg" viewBox="0 0 483.86 483.86"><defs><style>.cls-1{fill:#fefefe;}.cls-2{fill:#e02e2a;}.cls-3{fill:#183c64;}.cls-4{fill:#1a3d65;}.cls-5{fill:#193c64;}.cls-6{fill:#163b63;}.cls-7{fill:#1e3f66;}.cls-8{fill:#1d3e66;}.cls-9{fill:#1b3d65;}.cls-10{fill:#fffdfc;}.cls-11{fill:#fef9f7;}.cls-12{fill:#f9f9fa;}.cls-13{fill:#f6f6f8;}.cls-14{fill:#fef9f6;}.cls-15{fill:#fdfdfe;}.cls-16{fill:#fdfdfd;}.cls-17{fill:#fbfbfc;}.cls-18{fill:#e1302a;}.cls-19{fill:#fdeee7;}</style></defs><path class="cls-1" d="M12.86,491.93V8.07H496.73V491.93ZM317,405.49c7.53,18.93,14.94,37.91,22.64,56.77,4,9.88,11.69,14.8,22.44,14.78,12.26,0,24.52.11,36.77,0a22.63,22.63,0,0,0,.07-45.26c-5.5-.09-11-.06-16.5,0-3.87,0-6.73-1.5-8.18-5.13-4-9.9-7.82-19.82-11.72-29.74,1.36-.34,2.71-.75,4.09-1,31.76-6,63.52-12,95.26-18.09,12.55-2.42,20.78-13.1,18.54-25.29-1-5.54-4.6-10.6-7.47-16.84,3.58-7.16,3.54-15.57-2.28-23.42-5.46-7.37-13.12-10.23-22-8.72-13,2.2-25.95,4.66-38.81,7.5-8.3,1.83-14.25,7.28-15.84,15.64-1.06,5.55,0,11.5.16,17.94l-21.75,4c-2.73-14.61-5.46-29.23-8.24-44.14,1.74-.41,3.08-.77,4.43-1,8-1.55,16-3,24-4.65,5.39-1.11,7.92-4.65,6.95-9.3-.88-4.25-4.8-6.54-9.89-5.59-10.33,1.94-20.64,4-31,5.94q-18.16,3.47-36.43,6.89c-5.16-12.91-10.13-25.45-15.18-37.94C302.78,248,295.36,243,283.87,243c-9,0-17.92,0-26.88,0H247.9V144.87c4.24,0,8.29-.13,12.33,0,4.24.17,8-.56,9.63-5,1.6-4.22-.71-7.12-3.64-9.85q-55-51.3-110-102.65c-4.94-4.6-8.25-4.62-13.08-.12q-55,51.33-110,102.65c-3,2.83-5.52,5.75-3.68,10.22s5.64,4.76,9.79,4.75q94.08-.08,188.16,0h5.2v5.24q0,94.59,0,189.18c0,6,2.73,9.36,7.49,9.39s7.57-3.36,7.59-9.3c0-8.65,0-17.3,0-25.95v-24.7a6.81,6.81,0,0,1,1.35-.38q6.36,0,12.73,0c7.22,0,8.69,1,11.3,7.49,4.37,10.92,8.8,21.81,13.1,32.75,4.46,11.36,8.79,22.77,13.17,34.16-4.48.78-8.94,1.75-13.45,2.25a9.11,9.11,0,0,1-5.54-1.1c-21.24-13.59-47.36-8.63-62.26,11.79a9.26,9.26,0,0,1-5.22,3.2c-12.44,2.58-24.93,4.91-37.42,7.28-8.4,1.59-16.81,3.1-25.45,4.69-2.85-15.16-5.59-29.69-8.35-44.4,10.06-1.89,19.3-3.58,28.53-5.38,5.11-1,7.64-4.38,6.93-8.94-.68-4.38-4.38-6.92-9.55-6Q131.26,333,95,340c-5.06,1-7.57,4.71-6.65,9.07s4.78,6.46,9.85,5.54c9.39-1.72,18.77-3.49,28.55-5.31,2.83,14.88,5.6,29.47,8.43,44.37l-23.13,4.41c-.07-1.29-.16-2.2-.18-3.12C111.57,380.64,100,370.27,86,372.48,72.8,374.54,59.7,377.15,46.68,380c-10.27,2.24-17,11.54-17,22.11,0,7.44,3.63,13.07,8.68,17.86-4.38,8.91-4.43,17.38,1.5,25.15,6.15,8.09,14.53,10.19,24.35,8.3q60.54-11.62,121.12-23c8.09-1.54,16.17-3.05,24.62-4.64,0,14.47,0,28.29,0,42.11,0,6.47,2.7,9.18,9.16,9.19q36.06,0,72.13,0c6.66,0,9.24-2.71,9.25-9.58q0-21,0-42V408.33Zm-107-170a60.37,60.37,0,1,0-120.74.3c0,32.86,27.18,60,60.05,60A60.35,60.35,0,0,0,210,235.53ZM66.6,265.89q0-47.64,0-95.27a21.38,21.38,0,0,0-.11-4.24c-.84-4-3.35-6.42-7.55-6.35s-6.64,2.49-7.34,6.57a25,25,0,0,0-.08,4.24q0,94.8,0,189.6c0,1.1,0,2.21,0,3.3.28,4.47,3.27,7.51,7.4,7.58,4.33.07,7.41-3.05,7.66-7.8.06-1.09,0-2.2,0-3.3ZM399,69.37c-20.75-.16-37.89,16.43-38.12,36.86-.24,21.28,16.38,38.47,37.34,38.64a37.75,37.75,0,0,0,.78-75.5Zm41.43,3.14c2.08-.66,3.59-.7,4.4-1.47,4.74-4.54,9.65-9,13.82-14,2.31-2.79,1.22-6.41-1.51-8.9-2.88-2.64-6.43-3.15-9.39-.55a94.31,94.31,0,0,0-12.49,12.71C433.94,62,434,65.82,435,68,435.84,70.05,438.75,71.21,440.45,72.51Zm-77,75.94c-.94-1.16-2.24-4.16-4.42-5.06s-5.94-.62-7.74.78a68.15,68.15,0,0,0-11.92,12,8.73,8.73,0,0,0-.71,7.69c1,2.06,4.16,3.89,6.61,4.24C349.71,168.69,363.42,154.52,363.46,148.45ZM344.28,46c-1.4,1-4.23,2.15-5.24,4.16s-1.22,5.8,0,7.34a82.24,82.24,0,0,0,13.26,13.18c1.58,1.23,5.78.81,7.64-.49s3.06-4.64,3.11-7.12c.08-3.61-12.63-15.88-16.27-16.6ZM460,161.32c-.73-2.18-.81-3.84-1.67-4.76a160.84,160.84,0,0,0-12.94-12.91c-3-2.51-6.61-1.71-9.32,1.12s-3.25,6.41-.71,9.38a86.68,86.68,0,0,0,12.33,12.2c1.74,1.36,5.53,1.37,7.76.45C457.42,166,458.6,163.06,460,161.32ZM406.17,39.09c0-2.51.11-5,0-7.54-.24-4.43-3.34-7.44-7.48-7.46a7.32,7.32,0,0,0-7.53,7.38c-.17,5.18-.19,10.37,0,15.55a7.5,7.5,0,0,0,15,.08C406.3,44.44,406.15,41.76,406.17,39.09ZM330.73,99.57c-2.52,0-5-.1-7.54,0-4.48.22-7.48,3.23-7.56,7.38a7.33,7.33,0,0,0,7.29,7.64c5.17.19,10.36.19,15.54,0a7.34,7.34,0,0,0,7.33-7.59c-.06-4.15-3.08-7.2-7.53-7.43C335.76,99.46,333.24,99.57,330.73,99.57Zm136,15.1c2.36,0,4.72.08,7.07,0,4.71-.21,7.84-3.34,7.77-7.66-.07-4.15-3.09-7.25-7.56-7.39q-7.53-.22-15.07,0c-4.47.14-7.47,3.24-7.52,7.39-.07,4.33,3.06,7.45,7.78,7.65C461.76,114.75,464.27,114.67,466.78,114.67Zm-60.61,60.39c0-2.52.11-5,0-7.54-.24-4.47-3.27-7.48-7.41-7.54a7.3,7.3,0,0,0-7.6,7.3q-.28,7.77,0,15.55a7.34,7.34,0,0,0,7.6,7.32c4.13-.07,7.17-3.09,7.41-7.56C406.28,180.09,406.17,177.57,406.17,175.06Z" transform="translate(-12.86 -8.07)"/><path class="cls-2" d="M372.41,348.54l21.75-4c-.14-6.44-1.22-12.39-.16-17.94,1.59-8.36,7.54-13.81,15.84-15.64,12.86-2.84,25.82-5.3,38.81-7.5,8.89-1.51,16.55,1.35,22,8.72,5.82,7.85,5.86,16.26,2.28,23.42,2.87,6.24,6.46,11.3,7.47,16.84,2.24,12.19-6,22.87-18.54,25.29-31.74,6.1-63.5,12.06-95.26,18.09-1.38.26-2.73.67-4.09,1l-15.26,2.93-15,2.79L317,405.49l-16.46,2.84v17.15q0,21,0,42c0,6.87-2.59,9.57-9.25,9.58q-36.07,0-72.13,0c-6.46,0-9.14-2.72-9.16-9.19,0-13.82,0-27.64,0-42.11-8.45,1.59-16.53,3.1-24.62,4.64q-60.56,11.49-121.12,23c-9.82,1.89-18.2-.21-24.35-8.3C34,437.34,34,428.87,38.38,420c-5.05-4.79-8.68-10.42-8.68-17.86,0-10.57,6.71-19.87,17-22.11,13-2.84,26.12-5.45,39.29-7.51,14-2.21,25.6,8.16,25.91,22.51,0,.92.11,1.83.18,3.12l23.13-4.41c-2.83-14.9-5.6-29.49-8.43-44.37-9.78,1.82-19.16,3.59-28.55,5.31-5.07.92-9-1.31-9.85-5.54S90,341,95,340q36.27-7.06,72.57-13.89c5.17-1,8.87,1.58,9.55,6,.71,4.56-1.82,7.94-6.93,8.94-9.23,1.8-18.47,3.49-28.53,5.38,2.76,14.71,5.5,29.24,8.35,44.4,8.64-1.59,17-3.1,25.45-4.69,12.49-2.37,25-4.7,37.42-7.28a9.26,9.26,0,0,0,5.22-3.2c14.9-20.42,41-25.38,62.26-11.79a9.11,9.11,0,0,0,5.54,1.1c4.51-.5,9-1.47,13.45-2.25l17.64-3.4L329.49,357,346,353.78l11.47-2.4Zm-87,113.24c0-19.87,0-39.34,0-58.82,0-18.16-13.07-31.69-30.35-31.61-17,.08-29.95,13.59-30,31.49-.05,18.4,0,36.8,0,55.2,0,1.2.1,2.41.17,3.74Zm14.72-68.68,20-3.81Q389.23,376.14,458.33,363c5.49-1,8.13-4.49,7.23-9s-4.74-6.58-10.2-5.55L318,374.32c-7.75,1.47-15.48,3.05-23.14,4.55C296.73,383.86,298.35,388.25,300.15,393.1ZM210,394.92c-15.18,2.87-30.1,5.68-45,8.53q-53.62,10.21-107.22,20.48c-5.48,1.05-8.07,4.54-7.22,9.1.81,4.38,4.71,6.55,10.22,5.51q64.27-12.15,128.53-24.33c6.87-1.3,13.74-2.62,20.7-3.95Zm207-54.65c11.81-2.32,24.89-4.73,37.88-7.54,4.11-.88,5.74-4.34,5-8.38s-3.55-6.33-7.73-5.94c-3.88.36-7.72,1.24-11.57,1.95-8.61,1.6-17.24,3.17-25.83,4.88-4.54.9-7.06,4.19-6.69,8.27S411.58,340.22,417,340.27ZM88.14,387.34c-2.66.51-6.19,1.21-9.73,1.87-8.76,1.65-17.54,3.24-26.3,4.94-5.33,1-8.06,4.61-7.2,9.18.8,4.26,4.5,6.45,9.77,5.71,1.55-.21,3.07-.59,4.61-.89,10.15-1.91,20.31-3.79,30.45-5.75,4.88-.95,7.48-4.16,7-8.43C96.38,390,93.23,387.34,88.14,387.34Z" transform="translate(-12.86 -8.07)"/><path class="cls-3" d="M317,359.31l-17.64,3.4c-4.38-11.39-8.71-22.8-13.17-34.16-4.3-10.94-8.73-21.83-13.1-32.75-2.61-6.51-4.08-7.49-11.3-7.49q-6.37,0-12.73,0a6.81,6.81,0,0,0-1.35.38v24.7c0,8.65,0,17.3,0,25.95,0,5.94-2.82,9.33-7.59,9.3s-7.49-3.4-7.49-9.39q0-94.59,0-189.18v-5.24h-5.2q-94.08,0-188.16,0c-4.15,0-8-.3-9.79-4.75s.64-7.39,3.68-10.22q55-51.3,110-102.65c4.83-4.5,8.14-4.48,13.08.12q55,51.32,110,102.65c2.93,2.73,5.24,5.63,3.64,9.85-1.67,4.44-5.39,5.17-9.63,5-4-.16-8.09,0-12.33,0V243H257c9,0,17.92,0,26.88,0,11.49,0,18.91,5,23.23,15.7,5,12.49,10,25,15.18,37.94q18.3-3.45,36.43-6.89c10.33-2,20.64-4,31-5.94,5.09-.95,9,1.34,9.89,5.59,1,4.65-1.56,8.19-6.95,9.3-8,1.64-16,3.1-24,4.65-1.35.27-2.69.63-4.43,1,2.78,14.91,5.51,29.53,8.24,44.14l-15,2.84C354.71,336.68,352,322,349.2,307L328,311.12c5.63,14.06,11,27.55,16.46,41,.26.64,1,1.09,1.48,1.64L329.49,357a3.87,3.87,0,0,0,0-1.4c-12.32-30.84-24.57-61.72-37.18-92.44-.91-2.23-4.32-4.75-6.66-4.84-12.51-.47-25-.22-37.73-.22v15.08H261.7c13.7,0,20.5,4.56,25.54,17.17,8.67,21.67,17.29,43.37,26.08,65C314,356.93,315.75,358,317,359.31ZM243.35,129.53,149.61,42c-31.29,29.22-62.21,58.1-93.71,87.5Z" transform="translate(-12.86 -8.07)"/><path class="cls-4" d="M210,235.53a60.35,60.35,0,0,1-60.69,60.32c-32.87,0-60-27.16-60-60a60.37,60.37,0,1,1,120.74-.3Zm-60.32-45.36a45.53,45.53,0,0,0-45.31,45.72c.12,24.56,20.62,44.89,45.22,44.84a45.28,45.28,0,0,0,.09-90.56Z" transform="translate(-12.86 -8.07)"/><path class="cls-5" d="M347.26,399.81l15.26-2.93c3.9,9.92,7.76,19.84,11.72,29.74,1.45,3.63,4.31,5.17,8.18,5.13,5.5-.06,11-.09,16.5,0a22.63,22.63,0,0,1-.07,45.26c-12.25.14-24.51,0-36.77,0-10.75,0-18.4-4.9-22.44-14.78-7.7-18.86-15.11-37.84-22.65-56.77l15.31-2.89q10.72,27.07,21.45,54.14c1.44,3.62,4.26,5.22,8.13,5.21,11.93,0,23.86,0,35.8,0,5.05,0,8.47-3.23,8.45-7.55s-3.37-7.41-8.5-7.5-10.36,0-15.54,0c-10.3-.11-17.77-4.87-21.79-14.3C355.71,421.73,351.59,410.72,347.26,399.81Z" transform="translate(-12.86 -8.07)"/><path class="cls-6" d="M66.6,265.89v94.33c0,1.1,0,2.21,0,3.3-.25,4.75-3.33,7.87-7.66,7.8-4.13-.07-7.12-3.11-7.4-7.58-.07-1.09,0-2.2,0-3.3q0-94.8,0-189.6a25,25,0,0,1,.08-4.24c.7-4.08,3.17-6.5,7.34-6.57s6.71,2.32,7.55,6.35a21.38,21.38,0,0,1,.11,4.24Q66.6,218.26,66.6,265.89Z" transform="translate(-12.86 -8.07)"/><path class="cls-4" d="M399,69.37a37.75,37.75,0,0,1-.78,75.5c-21-.17-37.58-17.36-37.34-38.64C361.13,85.8,378.27,69.21,399,69.37Zm-.33,15.12a22.62,22.62,0,1,0,22.53,22.93A22.82,22.82,0,0,0,398.69,84.49Z" transform="translate(-12.86 -8.07)"/><path class="cls-7" d="M440.45,72.51c-1.7-1.3-4.61-2.46-5.48-4.49-1-2.2-1-6,.31-7.73a94.31,94.31,0,0,1,12.49-12.71c3-2.6,6.51-2.09,9.39.55,2.73,2.49,3.82,6.11,1.51,8.9-4.17,5-9.08,9.47-13.82,14C444,71.81,442.53,71.85,440.45,72.51Z" transform="translate(-12.86 -8.07)"/><path class="cls-7" d="M363.46,148.45c0,6.07-13.75,20.24-18.18,19.61-2.45-.35-5.59-2.18-6.61-4.24a8.73,8.73,0,0,1,.71-7.69,68.15,68.15,0,0,1,11.92-12c1.8-1.4,5.57-1.68,7.74-.78S362.52,147.29,363.46,148.45Z" transform="translate(-12.86 -8.07)"/><path class="cls-8" d="M344.28,46l2.53.47c3.64.72,16.35,13,16.27,16.6-.05,2.48-1.26,5.81-3.11,7.12s-6.06,1.72-7.64.49a82.24,82.24,0,0,1-13.26-13.18c-1.25-1.54-1-5.31,0-7.34S342.88,47.05,344.28,46Z" transform="translate(-12.86 -8.07)"/><path class="cls-8" d="M460,161.32c-1.35,1.74-2.53,4.65-4.55,5.48-2.23.92-6,.91-7.76-.45a86.68,86.68,0,0,1-12.33-12.2c-2.54-3-2-6.55.71-9.38s6.35-3.63,9.32-1.12a160.84,160.84,0,0,1,12.94,12.91C459.14,157.48,459.22,159.14,460,161.32Z" transform="translate(-12.86 -8.07)"/><path class="cls-9" d="M406.16,39.09c0,2.67.14,5.35,0,8a7.5,7.5,0,0,1-15-.08c-.2-5.18-.18-10.37,0-15.55a7.32,7.32,0,0,1,7.53-7.38c4.14,0,7.24,3,7.48,7.46C406.28,34.06,406.17,36.58,406.16,39.09Z" transform="translate(-12.86 -8.07)"/><path class="cls-9" d="M330.73,99.57c2.51,0,5-.11,7.53,0,4.45.23,7.47,3.28,7.53,7.43a7.34,7.34,0,0,1-7.33,7.59c-5.18.19-10.37.19-15.54,0a7.33,7.33,0,0,1-7.29-7.64c.08-4.15,3.08-7.16,7.56-7.38C325.7,99.47,328.21,99.57,330.73,99.57Z" transform="translate(-12.86 -8.07)"/><path class="cls-9" d="M466.78,114.67c-2.51,0-5,.08-7.53,0-4.72-.2-7.85-3.32-7.78-7.65,0-4.15,3-7.25,7.52-7.39q7.53-.24,15.07,0c4.47.14,7.49,3.24,7.56,7.39.07,4.32-3.06,7.45-7.77,7.66C471.5,114.75,469.14,114.67,466.78,114.67Z" transform="translate(-12.86 -8.07)"/><path class="cls-9" d="M406.17,175.06c0,2.51.11,5,0,7.53-.24,4.47-3.28,7.49-7.41,7.56a7.34,7.34,0,0,1-7.6-7.32q-.28-7.77,0-15.55a7.3,7.3,0,0,1,7.6-7.3c4.14.06,7.17,3.07,7.41,7.54C406.28,170,406.17,172.54,406.17,175.06Z" transform="translate(-12.86 -8.07)"/><path class="cls-10" d="M285.43,461.78H225.25c-.07-1.33-.17-2.54-.17-3.74,0-18.4-.05-36.8,0-55.2,0-17.9,12.95-31.41,30-31.49,17.28-.08,30.31,13.45,30.35,31.61C285.46,422.44,285.43,441.91,285.43,461.78Zm-30.19-41.4a18.86,18.86,0,1,0-18.84-18.85A18.9,18.9,0,0,0,255.24,420.38Z" transform="translate(-12.86 -8.07)"/><path class="cls-11" d="M300.15,393.1c-1.8-4.85-3.42-9.24-5.26-14.23,7.66-1.5,15.39-3.08,23.14-4.55l137.33-26c5.46-1,9.31,1.07,10.2,5.55s-1.74,8-7.23,9q-69.09,13.2-138.21,26.33Z" transform="translate(-12.86 -8.07)"/><path class="cls-11" d="M210,394.92v15.34c-7,1.33-13.83,2.65-20.7,3.95q-64.26,12.17-128.53,24.33c-5.51,1-9.41-1.13-10.22-5.51-.85-4.56,1.74-8,7.22-9.1q53.6-10.31,107.22-20.48C179.91,400.6,194.83,397.79,210,394.92Z" transform="translate(-12.86 -8.07)"/><path class="cls-12" d="M317,359.31c-1.25-1.3-3.05-2.38-3.68-3.93-8.79-21.63-17.41-43.33-26.08-65-5-12.61-11.84-17.17-25.54-17.17H247.92V258.13c12.69,0,25.22-.25,37.73.22,2.34.09,5.75,2.61,6.66,4.84,12.61,30.72,24.86,61.6,37.18,92.44a3.87,3.87,0,0,1,0,1.4Z" transform="translate(-12.86 -8.07)"/><path class="cls-12" d="M347.26,399.81c4.33,10.91,8.45,21.92,13,32.72,4,9.43,11.49,14.19,21.79,14.3,5.18.05,10.36-.06,15.54,0s8.49,3.13,8.5,7.5-3.4,7.52-8.45,7.55c-11.94.08-23.87,0-35.8,0-3.87,0-6.69-1.59-8.13-5.21Q343,429.68,332.3,402.6Z" transform="translate(-12.86 -8.07)"/><path class="cls-13" d="M346,353.78c-.5-.55-1.22-1-1.48-1.64-5.44-13.47-10.83-27-16.46-41L349.2,307c2.78,15,5.51,29.68,8.23,44.38Z" transform="translate(-12.86 -8.07)"/><path class="cls-14" d="M417,340.27c-5.43,0-8.58-2.83-8.95-6.76s2.15-7.37,6.69-8.27c8.59-1.71,17.22-3.28,25.83-4.88,3.85-.71,7.69-1.59,11.57-1.95,4.18-.39,7,1.86,7.73,5.94s-.88,7.5-5,8.38C441.9,335.54,428.82,338,417,340.27Z" transform="translate(-12.86 -8.07)"/><path class="cls-14" d="M88.14,387.34c5.09,0,8.24,2.7,8.64,6.63.44,4.27-2.16,7.48-7,8.43-10.14,2-20.3,3.84-30.45,5.75-1.54.3-3.06.68-4.61.89-5.27.74-9-1.45-9.77-5.71-.86-4.57,1.87-8.15,7.2-9.18,8.76-1.7,17.54-3.29,26.3-4.94C82,388.55,85.48,387.85,88.14,387.34Z" transform="translate(-12.86 -8.07)"/><path class="cls-15" d="M243.35,129.53H55.9c31.5-29.4,62.42-58.28,93.71-87.5Z" transform="translate(-12.86 -8.07)"/><path class="cls-16" d="M149.65,190.17a45.28,45.28,0,0,1-.09,90.56c-24.6,0-45.1-20.28-45.22-44.84A45.53,45.53,0,0,1,149.65,190.17Z" transform="translate(-12.86 -8.07)"/><path class="cls-17" d="M398.69,84.49A22.62,22.62,0,1,1,376,106.79,22.8,22.8,0,0,1,398.69,84.49Z" transform="translate(-12.86 -8.07)"/><path class="cls-18" d="M255.24,420.38a18.86,18.86,0,1,1,18.86-18.84A18.89,18.89,0,0,1,255.24,420.38ZM255,396.11c-1.62,2.68-3.34,4.28-3.24,5.76.09,1.21,2.68,3.43,3.54,3.16a5.8,5.8,0,0,0,3.47-3.88C258.93,400,256.9,398.53,255,396.11Z" transform="translate(-12.86 -8.07)"/><path class="cls-19" d="M255,396.11c1.92,2.42,4,3.91,3.77,5a5.8,5.8,0,0,1-3.47,3.88c-.86.27-3.45-1.95-3.54-3.16C251.64,400.39,253.36,398.79,255,396.11Z" transform="translate(-12.86 -8.07)"/></svg>