<svg id="Layer_1" data-name="Layer 1" xmlns="http://www.w3.org/2000/svg" viewBox="0 0 492.82 492.82"><defs><style>.cls-1{fill:#fff;}.cls-2{fill:#1a3d65;}.cls-3{fill:#fefeff;}.cls-4{fill:#fdfcfb;}.cls-5{fill:#faf9fb;}.cls-6{fill:#f9f9fb;}.cls-7{fill:#f8f8f9;}.cls-8{fill:#f9f9fa;}.cls-9{fill:#e1302a;}.cls-10{fill:#e12f2a;}.cls-11{fill:#fffaf8;}.cls-12{fill:#fffaf7;}.cls-13{fill:#fffbf9;}.cls-14{fill:#fffcfa;}.cls-15{fill:#e1362c;}</style></defs><path class="cls-1" d="M496.41,465.67v30.74H3.59V3.59H496.41V243.76a38.59,38.59,0,0,1-2.06-3.56c-9.25-20.7-18.66-41.32-27.55-62.17-2.62-6.13-6.28-8.21-12.8-8.18q-71.07.32-142.16,0c-2.28,0-5.2-.8-6.75-2.32-15.1-14.77-30-29.77-44.89-44.76-1.05-1.06-2.26-2.6-2.28-3.93-.18-11.33-.1-22.66-.1-34.47h5.11q19.69,0,39.38,0c6.87,0,9.37-2.4,9.41-9.14q.09-17.28,0-34.58c0-6.69-2.63-9.17-9.4-9.18q-24.49,0-49,0c-8,0-10.17,2.21-10.17,10.33,0,24.66-.06,49.31.06,74a10.1,10.1,0,0,1-3.23,8q-21.72,21.4-43.14,43.12a9.58,9.58,0,0,1-7.51,3.15C155.88,169.92,122.42,170,89,170c-14.73,0-29.46,0-44.19,0-3.75,0-7.1.67-8.79,4.47-10.26,23-20.56,46.05-30.67,69.15-2.28,5.21.67,9.7,6.35,10.25,2.63.25,5.31,0,7.92,0v201.2H15.42c-7.47,0-10.79,2.19-10.86,7.09-.08,5.05,3.4,7.35,11.11,7.35q234.62,0,469.24.08C489.38,469.57,493.21,468.84,496.41,465.67Z" transform="translate(-3.59 -3.59)"/><path class="cls-2" d="M496.41,465.67c-3.2,3.17-7,3.9-11.5,3.9q-234.62-.13-469.24-.08c-7.71,0-11.19-2.3-11.11-7.35.07-4.9,3.39-7.06,10.86-7.09h4.16V253.85c-2.61,0-5.29.21-7.92,0-5.68-.55-8.63-5-6.35-10.25,10.11-23.1,20.41-46.12,30.67-69.15,1.69-3.8,5-4.48,8.79-4.47,14.73.05,29.46,0,44.19,0,33.46,0,66.92,0,100.38.07a9.58,9.58,0,0,0,7.51-3.15q21.43-21.69,43.14-43.12a10.1,10.1,0,0,0,3.23-8c-.12-24.66-.08-49.31-.06-74,0-8.12,2.2-10.32,10.17-10.33q24.5,0,49,0c6.77,0,9.36,2.49,9.4,9.18q.09,17.3,0,34.58c0,6.74-2.54,9.12-9.41,9.14q-19.68,0-39.38,0h-5.11c0,11.81-.08,23.14.1,34.47,0,1.33,1.23,2.87,2.28,3.93,14.89,15,29.79,30,44.89,44.76,1.55,1.52,4.47,2.32,6.75,2.32q71.09.19,142.16,0c6.52,0,10.18,2.05,12.8,8.18,8.89,20.85,18.3,41.47,27.55,62.17a38.59,38.59,0,0,0,2.06,3.56v5.76c-3.75,5.51-9.68,4.22-15.07,4.5V455c5.48.28,11.18-1.11,15.07,4ZM34.68,253.9V454.77H181.53c0-7.15,0-14,0-20.88,0-7.2,2.37-9.56,9.4-9.62,1.87,0,3.74,0,6,0v-5.71q0-26.9,0-53.78c0-7.48,2.3-9.79,9.71-9.79q43.71,0,87.41,0c7.74,0,10,2.23,10,10q0,26.89,0,53.79v5.47h4.3c9.33.05,11.1,1.86,11.1,11.3,0,6.35,0,12.71,0,19.13h147V254.1c-3.23-.16-6.51.38-9.19-.65-2.31-.9-5.12-3.34-5.53-5.52s1.31-5.41,3.09-7.21c1.27-1.3,4.14-1.32,6.32-1.39,5.36-.18,10.73-.06,16.65-.06-.76-2-1.2-3.35-1.76-4.63-6.8-15.31-13.74-30.57-20.33-46-1.45-3.39-3.27-4.27-6.78-4.25q-60.51.18-121,.08h-4.58c-.48.69-1,1.38-1.45,2.06,1.56.85,3.41,1.4,4.62,2.6,13.76,13.62,27.81,27,41,41.2,6.3,6.79,12.71,9.76,22,9.12,12.11-.84,24.32-.27,36.49-.18,5.57,0,8.9,2.87,9,7.24s-3.27,7.2-8.8,7.36c-.64,0-1.28,0-1.92,0-15.69,0-31.37-.11-47.06.08a14.2,14.2,0,0,1-11-4.61q-55.72-56-111.66-111.78c-1.22-1.21-2.5-2.37-3.92-3.71-1.33,1.26-2.49,2.32-3.6,3.43q-55.53,55.51-111,111.1a17.29,17.29,0,0,1-13.5,5.6C93.27,253.79,64.14,253.9,34.68,253.9Zm144.11-69a19.55,19.55,0,0,0-2.28-.37q-62.85,0-125.7-.08c-2.63,0-3.94.8-5,3.24-7,16.09-14.16,32.09-21.25,48.14-.42.95-.66,2-1.13,3.46h5.68q35.74,0,71.49,0c7.83,0,16.56,2,23.24-.77,6.85-2.87,11.74-10.47,17.4-16.1C153.59,210.13,165.88,197.79,178.79,184.88Zm17.48,269.89H304.56V439H196.27Zm15.41-30.72h31.23V369.76H211.68Zm77.59-54.21H258V424h31.24Zm7.59-300.12V46.27H258V69.72Z" transform="translate(-3.59 -3.59)"/><path class="cls-3" d="M496.41,458.94c-3.89-5.07-9.59-3.68-15.07-4V254c5.39-.28,11.32,1,15.07-4.5Z" transform="translate(-3.59 -3.59)"/><path class="cls-4" d="M34.68,253.9c29.46,0,58.59-.11,87.72.11a17.29,17.29,0,0,0,13.5-5.6q55.33-55.69,111-111.1c1.11-1.11,2.27-2.17,3.6-3.43,1.42,1.34,2.7,2.5,3.92,3.71q55.86,55.86,111.66,111.78a14.2,14.2,0,0,0,11,4.61c15.69-.19,31.37-.08,47.06-.08.64,0,1.28,0,1.92,0,5.53-.16,8.86-3,8.8-7.36s-3.39-7.2-9-7.24c-12.17-.09-24.38-.66-36.49.18-9.3.64-15.71-2.33-22-9.12-13.15-14.2-27.2-27.58-41-41.2-1.21-1.2-3.06-1.75-4.62-2.6.49-.68,1-1.37,1.45-2.06h4.58q60.51,0,121-.08c3.51,0,5.33.86,6.78,4.25,6.59,15.4,13.53,30.66,20.33,46,.56,1.28,1,2.61,1.76,4.63-5.92,0-11.29-.12-16.65.06-2.18.07-5.05.09-6.32,1.39-1.78,1.8-3.51,5-3.09,7.21s3.22,4.62,5.53,5.52c2.68,1,6,.49,9.19.65V454.7H319.43c0-6.42,0-12.78,0-19.13,0-9.44-1.77-11.25-11.1-11.3H304v-5.47q0-26.9,0-53.79c0-7.79-2.22-10-10-10q-43.71,0-87.41,0c-7.41,0-9.7,2.31-9.71,9.79q0,26.89,0,53.78v5.71c-2.25,0-4.12,0-6,0-7,.06-9.37,2.42-9.4,9.62,0,6.86,0,13.73,0,20.88H34.68ZM112.07,278c-17.43,0-34.86,0-52.29,0-6.55,0-9,2.48-9.06,8.92q-.06,21.35,0,42.69c0,6.38,2.63,9,9.11,9q52.05.06,104.1,0c6.51,0,8.94-2.51,9-9.05q.08-21.1,0-42.21c0-7.19-2.19-9.34-9.5-9.35Q137.73,278,112.07,278Zm277.22,0c-17.43,0-34.86,0-52.29,0-6.62,0-8.91,2.32-8.93,8.94q-.06,21.1,0,42.21c0,7.13,2.34,9.46,9.52,9.46q51.57,0,103.14,0c7,0,9.5-2.51,9.51-9.56q0-20.64,0-41.26c0-7.51-2.23-9.79-9.64-9.8Q414.95,278,389.29,278ZM389,355q-25.9,0-51.8,0c-6.87,0-9.11,2.28-9.13,9.22q0,21.11,0,42.21c0,6.77,2.45,9.13,9.33,9.13q51.81,0,103.61,0c6.71,0,9.21-2.56,9.23-9.33q0-20.86,0-41.74c0-7.14-2.33-9.48-9.43-9.49Q414.91,355,389,355ZM65.35,369.7h39.06v30.82c-5.83,2.24-8.21,5-7.33,9,.93,4.19,3.8,6.1,8,6.1,20,0,40,0,60,0,5,0,7.74-2.73,7.77-7.75q.15-22.56,0-45.12c0-5.08-2.65-7.63-7.78-7.64q-53.27-.09-106.54,0c-5,0-7.75,2.7-7.79,7.73-.1,15-.07,30.08,0,45.11,0,4.27,2.31,7.22,6.53,7.54a128.71,128.71,0,0,0,16.78,0,6.8,6.8,0,0,0,6.4-7.57c-.39-4.07-2.78-6.37-6.86-6.63-2.66-.17-5.34,0-8.24,0Zm184-161.06c-30,1.36-53.55,25.91-52.23,54.56,1.38,30,25.94,53.55,54.57,52.24,30-1.38,53.57-26,52.23-54.58C302.46,230.76,278,207.35,249.31,208.64Z" transform="translate(-3.59 -3.59)"/><path class="cls-5" d="M178.79,184.88c-12.91,12.91-25.2,25.25-37.55,37.52-5.66,5.63-10.55,13.23-17.4,16.1-6.68,2.8-15.41.76-23.24.77q-35.75,0-71.49,0H23.43c.47-1.46.71-2.51,1.13-3.46,7.09-16.05,14.26-32.05,21.25-48.14,1.06-2.44,2.37-3.24,5-3.24q62.85.13,125.7.08A19.55,19.55,0,0,1,178.79,184.88Z" transform="translate(-3.59 -3.59)"/><path class="cls-6" d="M196.27,454.77V439H304.56v15.78Z" transform="translate(-3.59 -3.59)"/><path class="cls-7" d="M211.68,424.05V369.76h31.23v54.29Z" transform="translate(-3.59 -3.59)"/><path class="cls-7" d="M289.27,369.84V424H258V369.84Z" transform="translate(-3.59 -3.59)"/><path class="cls-8" d="M296.86,69.72H258V46.27h38.84Z" transform="translate(-3.59 -3.59)"/><path class="cls-9" d="M112.07,278q25.65,0,51.32,0c7.31,0,9.49,2.16,9.5,9.35q.06,21.11,0,42.21c0,6.54-2.45,9.05-9,9.05q-52.05.08-104.1,0c-6.48,0-9.09-2.61-9.11-9q-.06-21.35,0-42.69c0-6.44,2.51-8.91,9.06-8.92C77.21,278,94.64,278,112.07,278Zm-46.64,14.6v31.32h38.86V292.59ZM158.25,324V292.71H119.34V324Z" transform="translate(-3.59 -3.59)"/><path class="cls-9" d="M389.29,278q25.66,0,51.32,0c7.41,0,9.63,2.29,9.64,9.8q0,20.63,0,41.26c0,7.05-2.46,9.55-9.51,9.56q-51.57,0-103.14,0c-7.18,0-9.51-2.33-9.52-9.46q-.06-21.11,0-42.21c0-6.62,2.31-8.93,8.93-8.94C354.43,278,371.86,278,389.29,278Zm7.35,45.84h38.81v-31.2H396.64Zm-53.88-31.17v31.22h38.82V292.66Z" transform="translate(-3.59 -3.59)"/><path class="cls-10" d="M389,355q25.9,0,51.81,0c7.1,0,9.42,2.35,9.43,9.49q0,20.88,0,41.74c0,6.77-2.52,9.32-9.23,9.33q-51.79,0-103.61,0c-6.88,0-9.3-2.36-9.33-9.13q-.06-21.1,0-42.21c0-6.94,2.26-9.21,9.13-9.22Q363.09,355,389,355Zm-7.27,14.65h-39v31.26h39ZM435.59,401v-31.3h-39V401Z" transform="translate(-3.59 -3.59)"/><path class="cls-10" d="M65.35,369.7v31.52c2.9,0,5.58-.14,8.24,0,4.08.26,6.47,2.56,6.86,6.63a6.8,6.8,0,0,1-6.4,7.57,128.71,128.71,0,0,1-16.78,0c-4.22-.32-6.51-3.27-6.53-7.54-.06-15-.09-30.07,0-45.11,0-5,2.76-7.72,7.79-7.73q53.27-.09,106.54,0c5.13,0,7.74,2.56,7.78,7.64q.15,22.56,0,45.12c0,5-2.72,7.72-7.77,7.75-20,.09-40,0-60,0-4.21,0-7.08-1.91-8-6.1-.88-3.94,1.5-6.74,7.33-9V369.7Zm92.88,31.23V369.68h-39v31.5c12,0,23.8,0,35.57,0C155.92,401.17,157,401,158.23,400.93Z" transform="translate(-3.59 -3.59)"/><path class="cls-10" d="M249.31,208.64c28.68-1.29,53.15,22.12,54.57,52.22,1.34,28.59-22.21,53.2-52.23,54.58-28.63,1.31-53.19-22.2-54.57-52.24C195.76,234.55,219.27,210,249.31,208.64ZM250.4,223c-21.5.08-39.15,17.85-38.94,39.19a39.26,39.26,0,0,0,38.86,38.83c21.34.17,39.11-17.52,39.17-39A39.15,39.15,0,0,0,250.4,223Z" transform="translate(-3.59 -3.59)"/><path class="cls-11" d="M65.43,292.59h38.86v31.32H65.43Z" transform="translate(-3.59 -3.59)"/><path class="cls-12" d="M158.25,324H119.34V292.71h38.91Z" transform="translate(-3.59 -3.59)"/><path class="cls-11" d="M396.64,323.83v-31.2h38.81v31.2Z" transform="translate(-3.59 -3.59)"/><path class="cls-12" d="M342.76,292.66h38.82v31.22H342.76Z" transform="translate(-3.59 -3.59)"/><path class="cls-13" d="M381.73,369.67v31.26h-39V369.67Z" transform="translate(-3.59 -3.59)"/><path class="cls-14" d="M435.59,401h-39v-31.3h39Z" transform="translate(-3.59 -3.59)"/><path class="cls-13" d="M158.23,400.93c-1.24.09-2.31.24-3.39.24-11.77,0-23.54,0-35.57,0v-31.5h39Z" transform="translate(-3.59 -3.59)"/><path class="cls-13" d="M250.4,223a39.15,39.15,0,0,1,39.09,39c-.06,21.47-17.83,39.16-39.17,39a39.26,39.26,0,0,1-38.86-38.83C211.25,240.89,228.9,223.12,250.4,223Zm-7.16,46.37q0,3.6,0,7.2a7.75,7.75,0,0,0,.07,1c.51,4.26,3.27,7,7.09,7s7.61-2.79,7-6.87c-1.32-9.28,2.94-13.83,11.05-16.81a7,7,0,0,0,3.76-9.92c-1.87-3.66-5.9-4.8-10.35-2.7-4.62,2.18-9.11,4.63-13.73,6.81a7.93,7.93,0,0,0-4.91,7.56C243.22,264.92,243.26,267.17,243.24,269.41Z" transform="translate(-3.59 -3.59)"/><path class="cls-15" d="M243.25,269.41c0-2.24,0-4.49,0-6.73a7.93,7.93,0,0,1,4.91-7.56c4.62-2.18,9.11-4.63,13.73-6.81,4.45-2.1,8.48-1,10.35,2.7a7,7,0,0,1-3.76,9.92c-8.11,3-12.37,7.53-11.05,16.81.58,4.08-3.19,6.91-7,6.87s-6.58-2.78-7.09-7a7.75,7.75,0,0,1-.07-1Q243.24,273,243.25,269.41Z" transform="translate(-3.59 -3.59)"/></svg>