<svg id="Layer_1" data-name="Layer 1" xmlns="http://www.w3.org/2000/svg" viewBox="0 0 492 492"><defs><style>.cls-1{fill:#fefefe;}.cls-2{fill:#e02b2b;}.cls-3{fill:#063b64;}.cls-4{fill:#df2b2b;}.cls-5{fill:#073b64;}.cls-6{fill:#083c65;}.cls-7{fill:#fefcfc;}.cls-8{fill:#fefdfd;}.cls-9{fill:#fbfbfc;}.cls-10{fill:#f5f7f8;}.cls-11{fill:#fdf7f7;}.cls-12{fill:#f4f6f8;}</style></defs><path class="cls-1" d="M4,439.42V4H496V496H4V445.17c2.61,3.85,6.36,4.57,10.77,4.56q60.17-.15,120.34-.06c7.76,0,11.31-2.23,11.41-7.15s-3.49-7.31-11.2-7.31H47.11c0-14.13-.12-27.53,0-40.93.24-22.17,5.33-43.24,14.25-63.53,7.14-16.2,19.26-23.77,36.84-23.7,39.31.16,78.62,0,117.94.06,16.23,0,31.79-3.29,46.22-10.64,7.77-4,15-9.07,22.17-14.07,4-2.77,4.34-7.15,1.67-10.44s-6.77-3.45-10.68-.64c-.52.38-1,.8-1.5,1.19-13.78,10.75-29.23,18.07-46.69,19.25-17,1.15-34.15.7-51.24.94-3.75.05-7.51,0-12.5,0,17.28-17.24,12.34-38.42,13.28-58.34,1.65-.38,3-.73,4.44-1a35.42,35.42,0,0,0,21.19-56.52c-13-16.88-42.62-18.9-58.21-3.6-6,5.91-12.6,8.91-21,8.4-4.61-.28-9.26-.07-13.9,0C89.62,181.67,77,194.2,77,213.91c0,15.82.23,31.65-.08,47.46-.28,13.87,3.76,24.83,17.71,30.18.22.09.33.46.74,1-1.24.08-2.26.12-3.28.23C73.85,294.73,59.53,303,50.94,319.48a149.75,149.75,0,0,0-17.06,58.41c-1.27,17.18-.88,34.48-1.22,51.72,0,1.72,0,3.43,0,5.6-6.28,0-12,.2-17.73-.07C10.53,434.94,6.85,436,4,439.42ZM352.06,200.65c2.58-2.52,4.09-5.44,2.54-9-1.64-3.77-5-4.51-8.73-4.47-9.1.1-18.21,0-27.31,0-5.87,0-9.31,2.82-9.2,7.38.09,4.41,3.36,7,9,7q10.53.08,21.07.12l-1.6,1.74c-13.13,14.14-26.35,28.18-39.31,42.47-3.53,3.89-3.09,8.32.16,11,3.41,2.83,7.66,2,11.18-2.23,2.42-2.89,4.76-5.84,6.53-8L337.47,268c-12.92,15.74-26.37,31.95-39.62,48.32a59.81,59.81,0,0,1-30.93,20.56c-36.77,10.46-73.5,21.1-110.24,31.67-5.94,1.71-8.13,4.77-6.82,9.5s5,6.12,10.83,4.29c7.52-2.37,15-4.81,22.53-7.21q.18,28,.35,56c0,1.25-.17,2.49-.29,4.16-3.41,0-6.58-.09-9.75,0a6.62,6.62,0,0,0-6.79,5.6c-1.07,4.84,2.34,8.62,8.12,8.67,12,.11,24,0,36,0a51.29,51.29,0,0,0,7.65-.18c4-.61,6.33-3,6.21-7.22s-2.46-6.46-6.53-6.87c-2.22-.21-4.47-.13-6.71-.13-4.38,0-8.76,0-13.23,0v-63h5.85q129.93,0,259.87,0c19.45,0,31.11-11.56,31.11-30.87q0-116.28,0-232.54c0-19.45-11.53-31-30.92-31.06-5.85,0-11.69,0-17.81,0,0-6.22,0-11.8,0-17.37-.05-6.66-2.33-9.09-8.83-9.12q-19.91-.1-39.8,0c-6.51,0-9,2.56-9.05,9-.05,5.71,0,11.42,0,17.17H150.92c0-6.08.05-11.81,0-17.55-.07-6-2.46-8.55-8.39-8.59q-20.37-.13-40.75,0c-5.89,0-8.46,2.7-8.53,8.53s0,11.73,0,18c-5.07,0-9.67,0-14.27,0-21.11.06-34.43,13.32-34.44,34.4q0,84.63,0,169.26a19.18,19.18,0,0,0,.49,5.2c1.08,3.74,3.83,5.48,7.64,5a6.5,6.5,0,0,0,6.13-6.27,51.44,51.44,0,0,0,.11-5.27q0-83.67,0-167.34c0-13.89,6.69-20.61,20.51-20.61H463.47c12.13,0,17.18,5,17.18,17.1V340.89c0,1.12,0,2.24,0,3.36-.33,6.63-4.62,12.39-11.08,13.2-5.9.73-12,.15-18.11.15,0-8.38,0-16.37,0-24.36,0-7.45-2.36-9.79-9.7-9.8h-72.4c-7.17,0-9.53,2.35-9.55,9.39,0,8.26,0,16.51,0,24.86-1.13.09-1.75.19-2.36.19q-53.7,0-107.4,0a15.85,15.85,0,0,1-3.57-.81c8.28-2.17,16.55-4.32,24.82-6.51a69.72,69.72,0,0,0,36.68-23.87c14.81-18,29.65-36,44.3-54.1a14.19,14.19,0,0,0,3-7.28c1.45-16.37,2.4-32.79,3.92-49.16C359.75,209.34,357.81,204.26,352.06,200.65Zm28.22-52.71H431c4.47,0,8.95.12,13.41-.09,4.17-.19,7-3.2,6.85-7.11-.14-4.09-2.47-6.42-6.43-7.12a19.55,19.55,0,0,0-3.34-.08H319.4a19.41,19.41,0,0,0-3.82.12c-3.95.81-6.3,3.35-6.13,7.36s2.53,6.44,6.65,6.84c1.43.14,2.87.06,4.31.07Zm-110.91,67c6.39,0,12.78.09,19.16,0,5.3-.1,8-2.75,8-8q.13-12.47,0-24.92c-.06-5.21-2.71-7.94-8.07-8q-18.69-.19-37.38,0c-5.26.06-8,2.86-8.09,8.07q-.21,12.45,0,24.92c.09,5.19,2.91,7.85,8.17,7.94C257.22,215,263.3,214.93,269.37,214.93Zm.25-53.67c6.23,0,12.46.08,18.69,0,5.56-.09,8.18-2.74,8.23-8.29q.12-12.23,0-24.44c-.06-5.49-2.7-8.15-8.34-8.19q-18.45-.15-36.9,0c-5.55,0-8.24,2.78-8.32,8.31-.12,8-.1,16,0,24,.07,6,2.75,8.6,8.92,8.67C257.8,161.31,263.71,161.26,269.62,161.26Z" transform="translate(-4 -4)"/><path class="cls-2" d="M4,439.42c2.85-3.45,6.53-4.48,10.93-4.28,5.71.27,11.45.07,17.73.07,0-2.17,0-3.88,0-5.6.34-17.24,0-34.54,1.22-51.72a149.75,149.75,0,0,1,17.06-58.41c8.59-16.49,22.91-24.75,41.14-26.66,1-.11,2-.15,3.28-.23-.41-.58-.52-.95-.74-1-14-5.35-18-16.31-17.71-30.18.31-15.81,0-31.64.08-47.46,0-19.71,12.63-32.24,32.43-32.32,4.64,0,9.29-.23,13.9,0,8.39.51,15-2.49,21-8.4,15.59-15.3,45.25-13.28,58.21,3.6a35.42,35.42,0,0,1-21.19,56.52c-1.4.28-2.79.63-4.44,1-.94,19.92,4,41.1-13.28,58.34,5,0,8.75,0,12.5,0,17.09-.24,34.22.21,51.24-.94,17.46-1.18,32.91-8.5,46.69-19.25.5-.39,1-.81,1.5-1.19,3.91-2.81,8.09-2.56,10.68.64s2.32,7.67-1.67,10.44c-7.18,5-14.4,10.11-22.17,14.07-14.43,7.35-30,10.65-46.22,10.64-39.32,0-78.63.1-117.94-.06-17.58-.07-29.7,7.5-36.84,23.7-8.92,20.29-14,41.36-14.25,63.53-.14,13.4,0,26.8,0,40.93h88.21c7.71,0,11.3,2.36,11.2,7.31s-3.65,7.15-11.41,7.15q-60.17,0-120.34.06c-4.41,0-8.16-.71-10.77-4.56ZM91.39,238.57c0,9-.11,17.9,0,26.85.11,7.09,3.6,11.71,9.28,12.8,8.46,1.62,15.38-3.85,15.47-12.52.13-12,0-24,0-36,0-7.79,2.17-10,9.91-10,16.14,0,32.28.1,48.42-.06,11.09-.11,19.72-8.16,21-19.14,1.19-10-5.85-20.35-16.2-22.4-9.9-2-19.35-.88-27,7.07-7.1,7.39-16,10.86-26.26,10.76-5.92-.05-11.83-.07-17.74,0-10.62.14-16.93,6.51-17,17.16C91.33,221.63,91.38,230.1,91.39,238.57Zm39.21-4.2V245c0,7,0,14.06,0,21.09,0,10.16-4.55,17.94-13.15,23.55,18.14,9.5,42.27-3.69,44.5-24.49,1.08-10.06.19-20.33.19-30.74Z" transform="translate(-4 -4)"/><path class="cls-3" d="M246.44,357a15.85,15.85,0,0,0,3.57.81q53.7.07,107.4,0c.61,0,1.23-.1,2.36-.19,0-8.35,0-16.6,0-24.86,0-7,2.38-9.38,9.55-9.39h72.4c7.34,0,9.67,2.35,9.7,9.8.05,8,0,16,0,24.36,6.15,0,12.21.58,18.11-.15,6.46-.81,10.75-6.57,11.08-13.2.06-1.12,0-2.24,0-3.36V109.31c0-12.06-5-17.1-17.18-17.1H79.41c-13.82,0-20.51,6.72-20.51,20.61q0,83.67,0,167.34a51.44,51.44,0,0,1-.11,5.27,6.5,6.5,0,0,1-6.13,6.27c-3.81.45-6.56-1.29-7.64-5a19.18,19.18,0,0,1-.49-5.2q0-84.63,0-169.26c0-21.08,13.33-34.34,34.44-34.4,4.6,0,9.2,0,14.27,0,0-6.22-.06-12.08,0-18s2.64-8.49,8.53-8.53q20.37-.13,40.75,0c5.93,0,8.32,2.59,8.39,8.59.07,5.74,0,11.47,0,17.55H388.61c0-5.75,0-11.46,0-17.17.05-6.42,2.54-8.95,9.05-9q19.9-.09,39.8,0c6.5,0,8.78,2.46,8.83,9.12,0,5.57,0,11.15,0,17.37,6.12,0,12,0,17.81,0,19.39,0,30.92,11.61,30.92,31.06q0,116.26,0,232.54c0,19.31-11.66,30.87-31.11,30.87q-129.93,0-259.87,0h-5.85v63c4.47,0,8.85,0,13.23,0,2.24,0,4.49-.08,6.71.13,4.07.41,6.41,2.74,6.53,6.87s-2.24,6.61-6.21,7.22a51.29,51.29,0,0,1-7.65.18c-12,0-24,.08-36,0-5.78-.05-9.19-3.83-8.12-8.67a6.62,6.62,0,0,1,6.79-5.6c3.17-.12,6.34,0,9.75,0,.12-1.67.3-2.91.29-4.16q-.15-28-.35-56c12.91-3.85,25.79-7.78,38.73-11.52C230.07,361.26,238.28,359.22,246.44,357Zm190.32-18.91H374.51v19.59h62.25ZM136.3,77.59V66H107.91V77.59Zm266.83,0h28.56V66H403.13Z" transform="translate(-4 -4)"/><path class="cls-4" d="M246.44,357c-8.16,2.18-16.37,4.22-24.49,6.56-12.94,3.74-25.82,7.67-38.73,11.52-7.51,2.4-15,4.84-22.53,7.21-5.82,1.83-9.57.32-10.83-4.29s.88-7.79,6.82-9.5c36.74-10.57,73.47-21.21,110.24-31.67a59.81,59.81,0,0,0,30.93-20.56c13.25-16.37,26.7-32.58,39.62-48.32l-21.07-21.3c-1.77,2.18-4.11,5.13-6.53,8-3.52,4.23-7.77,5.06-11.18,2.23-3.25-2.69-3.69-7.12-.16-11,13-14.29,26.18-28.33,39.31-42.47l1.6-1.74,12.62-1.07c5.75,3.61,7.69,8.69,7.06,15.47-1.52,16.37-2.47,32.79-3.92,49.16a14.19,14.19,0,0,1-3,7.28c-14.65,18.12-29.49,36.11-44.3,54.1a69.72,69.72,0,0,1-36.68,23.87C263,352.72,254.72,354.87,246.44,357ZM342.19,249.2c.78-10.44,1.55-20.64,2.31-30.66l-16.72,16.54Z" transform="translate(-4 -4)"/><path class="cls-5" d="M380.28,147.94H320.41c-1.44,0-2.88.07-4.31-.07-4.12-.4-6.48-2.86-6.65-6.84s2.18-6.55,6.13-7.36a19.41,19.41,0,0,1,3.82-.12H441.53a19.55,19.55,0,0,1,3.34.08c4,.7,6.29,3,6.43,7.12.14,3.91-2.68,6.92-6.85,7.11-4.46.21-8.94.08-13.41.09Z" transform="translate(-4 -4)"/><path class="cls-6" d="M269.37,214.93c-6.07,0-12.15.08-18.21,0-5.26-.09-8.08-2.75-8.17-7.94q-.23-12.47,0-24.92c.09-5.21,2.83-8,8.09-8.07q18.69-.21,37.38,0c5.36.05,8,2.78,8.07,8q.15,12.45,0,24.92c-.06,5.27-2.71,7.92-8,8C282.15,215,275.76,214.93,269.37,214.93Zm-11.86-14.66H282V188.61H257.51Z" transform="translate(-4 -4)"/><path class="cls-6" d="M269.62,161.26c-5.91,0-11.82.05-17.73,0-6.17-.07-8.85-2.63-8.92-8.67-.09-8-.11-16,0-24,.08-5.53,2.77-8.26,8.32-8.31q18.45-.16,36.9,0c5.64,0,8.28,2.7,8.34,8.19q.13,12.23,0,24.44c-.05,5.55-2.67,8.2-8.23,8.29C282.08,161.34,275.85,161.26,269.62,161.26Zm12.23-14.57V135.05H257.67v11.64Z" transform="translate(-4 -4)"/><path class="cls-5" d="M352.06,200.65l-12.62,1.07q-10.54-.06-21.07-.12c-5.65,0-8.92-2.59-9-7-.11-4.56,3.33-7.36,9.2-7.38,9.1,0,18.21.06,27.31,0,3.78,0,7.09.7,8.73,4.47C356.15,195.21,354.64,198.13,352.06,200.65Z" transform="translate(-4 -4)"/><path class="cls-7" d="M91.38,238.57c0-8.47,0-16.94,0-25.41.07-10.65,6.38-17,17-17.16,5.91-.08,11.82-.06,17.74,0,10.27.1,19.16-3.37,26.26-10.76,7.64-7.95,17.09-9,27-7.07,10.35,2.05,17.39,12.4,16.2,22.4-1.32,11-10,19-21,19.14-16.14.16-32.28,0-48.42.06-7.74,0-9.9,2.19-9.91,10,0,12,.09,24,0,36-.09,8.67-7,14.14-15.47,12.52-5.68-1.09-9.17-5.71-9.28-12.8C91.28,256.47,91.39,247.52,91.38,238.57Z" transform="translate(-4 -4)"/><path class="cls-8" d="M130.6,234.37h31.53c0,10.41.89,20.68-.19,30.74-2.23,20.8-26.36,34-44.5,24.49,8.6-5.61,13.11-13.39,13.15-23.55,0-7,0-14.06,0-21.09Z" transform="translate(-4 -4)"/><path class="cls-9" d="M436.76,338.13v19.59H374.51V338.13Z" transform="translate(-4 -4)"/><path class="cls-10" d="M136.3,77.59H107.91V66H136.3Z" transform="translate(-4 -4)"/><path class="cls-10" d="M403.13,77.59V66h28.56V77.59Z" transform="translate(-4 -4)"/><path class="cls-11" d="M342.19,249.2l-14.41-14.12,16.72-16.54C343.74,228.56,343,238.76,342.19,249.2Z" transform="translate(-4 -4)"/><path class="cls-12" d="M257.51,200.27V188.61H282v11.66Z" transform="translate(-4 -4)"/><path class="cls-12" d="M281.85,146.69H257.67V135.05h24.18Z" transform="translate(-4 -4)"/></svg>