<svg id="Layer_1" data-name="Layer 1" xmlns="http://www.w3.org/2000/svg" viewBox="0 0 512 512"><defs><style>.cls-1{fill:#fffeff;}.cls-2{fill:#193d64;}.cls-3{fill:#e02e2a;}.cls-4{fill:#fefefe;}.cls-5{fill:#fefdfc;}.cls-6{fill:#fffbf9;}.cls-7{fill:#fef8f5;}.cls-8{fill:#fef6f3;}</style></defs><path class="cls-1" d="M506,506H-6V-6H506ZM130.42,267Q188,297.87,245.55,328.76c3.68,2,6.95,1,10.37-.79q71.24-38.09,142.53-76.07c3.69-2,7.41-3.88,11.53-6,0,28.83,0,56.83-.12,84.84a7.45,7.45,0,0,1-2.72,5.17c-61.3,44.36-129.84,57.51-203.72,46.48-13.08-1.95-25.89-5.68-39.22-8.67l-4.69,14.49c31.84,10.59,63.86,14.36,96.58,13.85q90.18-1.39,162.86-54.59c5.09-3.72,7.24-7.73,7.18-14.14-.3-32-.14-64-.14-96.11q33.17-17.69,66.13-35.25c3.29-1.74,5.8-3.94,5.86-8s-2.49-6.28-5.76-8Q373.83,122.84,255.44,59.66a10.41,10.41,0,0,0-10.79-.06Q126.29,122.82,7.84,185.88C4.56,187.64,2,189.79,2,193.81c0,4.26,2.67,6.42,6.14,8.26,20.28,10.73,40.42,21.75,60.82,32.25,4.14,2.13,5.12,4.51,5.09,8.79-.17,29.84-.09,59.68-.09,89.51v5.27H89.64c1.93,5.94,3.93,11.86,5.75,17.84a8.6,8.6,0,0,1,.36,4.66c-6.36,21.44-6.18,43.45-5.62,65.44.06,2.47,2.19,5.75,4.34,7.14,18.13,11.78,36.58,11.95,54.74.1,2.25-1.47,4.46-4.92,4.53-7.51.6-21.84.69-43.67-5.54-65a8,8,0,0,1,.72-5.51c10.62-19.08,4-38.32-16.35-47.24-1.09-.48-2.51-1.93-2.51-2.92C130.05,292.28,130.26,279.63,130.42,267Z" transform="translate(6 6)"/><path class="cls-2" d="M89.64,337.89H73.93v-5.27c0-29.83-.08-59.67.09-89.51,0-4.28-1-6.66-5.09-8.79-20.4-10.5-40.54-21.52-60.82-32.25-3.47-1.84-6.17-4-6.14-8.26,0-4,2.59-6.17,5.87-7.93Q126.28,122.81,244.65,59.6a10.41,10.41,0,0,1,10.79.06Q373.81,122.89,492.22,186c3.27,1.74,5.81,4,5.76,8s-2.57,6.22-5.86,8q-33,17.55-66.13,35.25c0,32.11-.16,64.11.14,96.11.06,6.41-2.09,10.42-7.18,14.14Q346.16,400.66,256.09,402c-32.72.51-64.74-3.26-96.58-13.85l4.69-14.49c13.33,3,26.14,6.72,39.22,8.67,73.88,11,142.42-2.12,203.72-46.48a7.45,7.45,0,0,0,2.72-5.17c.17-28,.12-56,.12-84.84-4.12,2.15-7.84,4.06-11.53,6q-71.28,38-142.53,76.07c-3.42,1.83-6.69,2.77-10.37.79Q188,297.84,130.41,267c.12-5.75-2.58-12.53,5.59-15.35a12.08,12.08,0,0,0,1.57,1.2q55,29.37,110,58.59c1.45.77,4.16.33,5.77-.52q108.14-57.48,216.16-115.18a24.79,24.79,0,0,0,2.7-2c-.84-.5-1.25-.77-1.69-1q-108.69-58-217.36-116.13c-2.92-1.57-4.88-.75-7.28.52Q139,134.2,32,191.25c-1.4.74-2.73,1.59-4.68,2.74L118,242.47c-4.32,2.84-4.37,7.14-4,11.62a27.56,27.56,0,0,1-.27,3.94L90.12,246V330.9Z" transform="translate(6 6)"/><path class="cls-3" d="M136,251.63c-8.17,2.82-5.47,9.6-5.59,15.35-.15,12.65-.36,25.3-.35,37.95,0,1,1.42,2.44,2.51,2.92,20.33,8.92,27,28.16,16.35,47.24a8,8,0,0,0-.72,5.51c6.23,21.29,6.14,43.12,5.54,65-.07,2.59-2.28,6-4.53,7.51-18.16,11.85-36.61,11.68-54.74-.1-2.15-1.39-4.28-4.67-4.34-7.14-.56-22-.74-44,5.62-65.44a8.6,8.6,0,0,0-.36-4.66c-1.82-6-3.82-11.9-5.75-17.84l.48-7c4.18-11.64,11.36-20.37,23.51-23.8V258a27.56,27.56,0,0,0,.27-3.94c-.32-4.48-.27-8.78,4-11.62A35,35,0,0,0,121.6,241q48.19-25.65,96.34-51.37a24.64,24.64,0,0,0,2.62-1.88c-5-12.27-1.83-22.47,9.48-28.7,13-7.18,26.47-7.2,39.58-.12,7.47,4,12.38,10.26,12.27,19.17s-5.2,14.89-12.64,19c-10,5.47-20.51,6.09-31.43,3a8.83,8.83,0,0,0-5.95.36Q183.86,225.92,136,251.63ZM133.76,369H110.12c-4.45,15.87-4.38,33-4.08,50.13a4.25,4.25,0,0,0,2.08,2.85c9.12,5.26,18.37,5.23,27.52.09a4.72,4.72,0,0,0,2.21-3.29C138.17,401.84,138.15,384.87,133.76,369Zm4.18-31a16,16,0,1,0-16.27,16A16.14,16.14,0,0,0,137.94,338ZM249.76,187.14c4.91-1.93,9.66-3.29,13.86-5.64,3.29-1.83,2.9-4.82.06-7.36-6.3-5.62-21.23-5.6-27.47,0-2.85,2.57-3.15,5.51.11,7.36C240.37,183.84,245,185.2,249.76,187.14Z" transform="translate(6 6)"/><path class="cls-4" d="M136,251.63q47.91-25.62,95.87-51.14a8.83,8.83,0,0,1,5.95-.36c10.92,3.06,21.44,2.44,31.43-3,7.44-4.08,12.53-10.09,12.64-19S277.09,163,269.62,159c-13.11-7.08-26.55-7.06-39.58.12-11.31,6.23-14.51,16.43-9.48,28.7a24.64,24.64,0,0,1-2.62,1.88Q169.79,215.37,121.6,241a35,35,0,0,1-3.65,1.44L27.34,194c1.95-1.15,3.28-2,4.68-2.74Q139,134.17,245.9,77.11c2.4-1.27,4.36-2.09,7.28-.52q108.61,58.18,217.36,116.13c.44.23.85.5,1.69,1a24.79,24.79,0,0,1-2.7,2q-108,57.65-216.16,115.18c-1.61.85-4.32,1.29-5.77.52q-55.11-29.12-110-58.59A12.08,12.08,0,0,1,136,251.63Z" transform="translate(6 6)"/><path class="cls-5" d="M113.63,258V307.1c-12.15,3.43-19.33,12.16-23.51,23.8V246Z" transform="translate(6 6)"/><path class="cls-6" d="M133.76,369c4.39,15.84,4.41,32.81,4.09,49.78a4.72,4.72,0,0,1-2.21,3.29c-9.15,5.14-18.4,5.17-27.52-.09a4.25,4.25,0,0,1-2.08-2.85c-.3-17.13-.37-34.26,4.08-50.13Z" transform="translate(6 6)"/><path class="cls-7" d="M137.94,338a16,16,0,1,1-15.74-16A16.16,16.16,0,0,1,137.94,338Z" transform="translate(6 6)"/><path class="cls-8" d="M249.76,187.14c-4.8-1.94-9.39-3.3-13.44-5.6-3.26-1.85-3-4.79-.11-7.36,6.24-5.64,21.17-5.66,27.47,0,2.84,2.54,3.23,5.53-.06,7.36C259.42,183.85,254.67,185.21,249.76,187.14Z" transform="translate(6 6)"/></svg>