<svg id="Layer_1" data-name="Layer 1" xmlns="http://www.w3.org/2000/svg" viewBox="0 0 512 512"><defs><style>.cls-1{fill:#fefefe;}.cls-2{fill:#e02b2b;}.cls-3{fill:#e02c2c;}.cls-4{fill:#fefdfd;}.cls-5{fill:#fefbfb;}.cls-6{fill:#fdfafa;}.cls-7{fill:#fdf9f9;}.cls-8{fill:#df2a2a;}.cls-9{fill:#e02d2d;}.cls-10{fill:#e02a2a;}.cls-11{fill:#fefcfc;}.cls-12{fill:#fdf8f8;}.cls-13{fill:#fdf7f7;}.cls-14{fill:#fdf6f6;}</style></defs><path class="cls-1" d="M-6,506V-6H506V506ZM309.36,108.65c-.36-1.8-.64-3.09-.87-4.39C300.5,59,266,30,220.1,30q-63.49,0-127,0a99.5,99.5,0,0,0-16.91,1.22C32.44,39,.93,78.62,4.25,121.55c3.54,45.8,39.75,80.74,85.12,81.2,45,.45,90,.93,135-.15,37.29-.9,63.81-19.8,78.66-54.13,3.25-7.52,4.65-15.85,7-24.3H484.47c7.78,0,11.6-2.61,11.52-7.86s-3.86-7.65-11.75-7.65H309.36ZM429.11,241.36h-413c-9.87,0-12,2.13-12,12.09V458.53c0,9.22,2.35,11.59,11.47,11.59H485.13c7.79,0,10.88-2.65,10.88-9.67q.06-104.79,0-209.59c0-6.53-3-9.42-9.54-9.48-9.33-.08-18.67,0-28,0H445.33V163.19c14.42,0,28.4.06,42.39,0,4.88,0,8.17-3.23,8.27-7.55a7.65,7.65,0,0,0-8-7.86q-25.5-.24-51,0c-5.3.06-7.85,3.2-7.89,8.88-.06,10.67,0,21.34,0,32Z" transform="translate(6 6)"/><path class="cls-2" d="M309.36,108.65H484.24c7.89,0,11.66,2.46,11.75,7.65s-3.74,7.86-11.52,7.86H310.06c-2.39,8.45-3.79,16.78-7,24.3-14.85,34.33-41.37,53.23-78.66,54.13-45,1.08-90,.6-135,.15-45.37-.46-81.58-35.4-85.12-81.2C.93,78.62,32.44,39,76.19,31.28A99.5,99.5,0,0,1,93.1,30.06q63.51-.15,127,0c45.94,0,80.4,29,88.39,74.25C308.72,105.56,309,106.85,309.36,108.65Zm-16.7,0a8.09,8.09,0,0,0,.34-1.6c-2.54-28-28.51-55.81-56-59.75a7.34,7.34,0,0,0-4.54,1.21c-14.17,9.1-29.64,15.07-45.95,18.86-24.59,5.72-49.34,8.08-74.16,1.51-11.44-3-22.22-7.67-28.71-18.36-2-3.34-3.92-4.1-7.48-3.32-45,9.82-69.12,58.14-49.32,99.54C37,168,54.17,180.72,77.05,185.69c1.84.4,5.07-.17,5.92-1.44,6.71-10.08,16.53-15.58,27.74-18.24,41.83-9.94,81.18-2.4,118.64,17.71a14.31,14.31,0,0,0,8.73,1.43c13.63-2.57,25.28-9.19,35-19a69.24,69.24,0,0,0,20.08-41.71H279.45c-4.73,12.81-13.58,21-27.4,21.26q-46.24.72-92.51,0c-16-.22-28.28-13.63-28.29-29.27A29.23,29.23,0,0,1,160,87.12q46-.42,92,0c10.59.1,19.52,5,23.94,14.59,3,6.58,7,7.74,13,7A29.32,29.32,0,0,1,292.66,108.66ZM205.55,130v0c14.83,0,29.67.05,44.51,0,8.56-.05,14.8-5.9,14.79-13.64s-6.24-13.52-14.84-13.54q-44-.06-88,0a18.67,18.67,0,0,0-5.87.8A13.53,13.53,0,0,0,160.53,130C175.54,130.15,190.54,130,205.55,130ZM101.44,46l-.16,1.86C134.53,63,167.68,57.16,200.81,46Zm95.43,140.81c-31.26-9.77-62.53-14.88-93.75,0Z" transform="translate(6 6)"/><path class="cls-3" d="M429.11,241.36V188.64c0-10.67,0-21.34,0-32,0-5.68,2.59-8.82,7.89-8.88q25.5-.27,51,0a7.65,7.65,0,0,1,8,7.86c-.1,4.32-3.39,7.52-8.27,7.55-14,.1-28,0-42.39,0v78.17h13.14c9.33,0,18.67-.06,28,0,6.58.06,9.54,3,9.54,9.48q.06,104.81,0,209.59c0,7-3.09,9.67-10.88,9.67H15.55c-9.12,0-11.47-2.37-11.47-11.59V253.45c0-10,2.11-12.09,12-12.09H429.11ZM20.22,257.27V454H479.9V257.27Z" transform="translate(6 6)"/><path class="cls-4" d="M292.66,108.66a29.32,29.32,0,0,0-3.65,0c-6,.78-10-.38-13-7-4.42-9.55-13.35-14.49-23.94-14.59q-46-.39-92,0a29.23,29.23,0,0,0-28.79,29.31c0,15.64,12.32,29,28.29,29.27q46.25.68,92.51,0c13.82-.22,22.67-8.45,27.4-21.26h13.72a69.24,69.24,0,0,1-20.08,41.71c-9.73,9.81-21.38,16.43-35,19a14.31,14.31,0,0,1-8.73-1.43c-37.46-20.11-76.81-27.65-118.64-17.71-11.21,2.66-21,8.16-27.74,18.24-.85,1.27-4.08,1.84-5.92,1.44-22.88-5-40-17.72-50.19-38.94C7.06,105.35,31.17,57,76.18,47.21c3.56-.78,5.46,0,7.48,3.32,6.49,10.69,17.27,15.34,28.71,18.36,24.82,6.57,49.57,4.21,74.16-1.51,16.31-3.79,31.78-9.76,45.95-18.86A7.34,7.34,0,0,1,237,47.31c27.47,3.94,53.44,31.73,56,59.75A8.09,8.09,0,0,1,292.66,108.66Z" transform="translate(6 6)"/><path class="cls-5" d="M205.55,130c-15,0-30,.11-45,0a13.53,13.53,0,0,1-4.42-26.31,18.67,18.67,0,0,1,5.87-.8q44-.08,88,0c8.6,0,14.83,5.79,14.84,13.54s-6.23,13.59-14.79,13.64c-14.84.07-29.68,0-44.51,0Zm30.52-5.88h12c.33,0,.66,0,1,0,4.83-.28,8-3.38,8-7.76a7.49,7.49,0,0,0-7.58-7.61q-13.23-.28-26.45,0a7.62,7.62,0,0,0-7.81,7.45c-.12,4.3,3.17,7.72,7.89,7.89C227.42,124.27,231.75,124.15,236.07,124.16Z" transform="translate(6 6)"/><path class="cls-6" d="M101.44,46h99.37C167.68,57.16,134.53,63,101.28,47.89Z" transform="translate(6 6)"/><path class="cls-7" d="M196.87,186.84H103.12C134.34,172,165.61,177.07,196.87,186.84Z" transform="translate(6 6)"/><path class="cls-5" d="M20.22,257.27H479.9V454H20.22Zm197.32,182.6q55,0,110,0c8.56,0,11-2.45,11.05-11q.06-13.5,0-27c0-9.2-2.28-11.4-11.63-11.41H198.46q-45.74,0-91.47,0c-7.66,0-10.15,2.56-10.18,10.21,0,9.17,0,18.34,0,27.5,0,9.61,2.09,11.68,11.77,11.68ZM349.18,319.14v6c0,15.33,0,30.65,0,46,0,6.43,2.76,9.31,9,9.37q15.74.15,31.48,0c5.87-.06,8.65-2.76,8.66-8.56q.11-46.72,0-93.44c0-5.74-2.9-8.51-8.72-8.52q-47.22-.08-94.42,0c-6.29,0-9,2.88-9.08,9.26-.07,9.66,0,19.32,0,29,0,8.54,2.39,10.91,11,10.92Zm63.09,66c0,14.83,0,29.66,0,44.49,0,7.3,2.71,10.15,9.85,10.22q14.75.17,29.49,0c7.27-.07,9.85-2.72,9.86-10.08q.06-44.24,0-88.48c0-7.28-2.7-9.92-10-10q-14.5-.09-29,0c-7.48,0-10.22,2.81-10.24,10.33C412.24,356.13,412.27,370.63,412.27,385.12ZM247.51,270c-5.32,0-10.65-.08-16,0s-8.44,2.88-8.5,8.22q-.16,16.22,0,32.44c.06,5.4,3,8.33,8.37,8.39q16.22.17,32.43,0c5.15-.06,8.17-3,8.23-8q.23-16.47,0-32.93c-.05-5.12-3-8-8.11-8.1C258.48,269.9,253,270,247.51,270ZM33.66,414.65h0c0,5.66-.13,11.32,0,17,.15,5,2.71,8,7.65,8.1q16.7.4,33.42,0c5.06-.11,7.95-3.29,8-8.38q.24-16.22,0-32.43c-.07-5.09-3-8.25-8-8.36q-16.45-.35-32.92,0c-5.44.11-8,3.07-8.16,8.65C33.56,404.34,33.66,409.5,33.66,414.65Zm364.69.91c0-5.49.09-11,0-16.47s-2.79-8.45-8.25-8.56q-16.21-.3-32.42,0c-5.39.1-8.36,3.18-8.43,8.49q-.21,16.22,0,32.43c.07,5.05,3,8.18,8.1,8.29q16.46.36,32.92,0c5.39-.11,8-3.16,8.08-8.73C398.43,425.87,398.35,420.72,398.35,415.56ZM58.46,319.1c5,0,10,0,15,0,6.27-.06,9.31-2.89,9.38-9.07q.16-15.51,0-31c-.07-6.06-3-8.94-8.89-9q-15.77-.11-31.51,0c-5.83,0-8.66,2.73-8.73,8.5q-.2,16,0,32c.07,5.73,3,8.45,8.75,8.54C47.79,319.17,53.13,319.1,58.46,319.1Zm378.18,0c5.33,0,10.67.07,16,0,5.79-.08,8.73-2.79,8.8-8.5q.21-16,0-32c-.07-5.81-2.9-8.51-8.7-8.55q-15.76-.11-31.51,0c-5.75,0-8.83,2.82-8.91,8.44q-.25,16,0,32c.08,5.64,3.17,8.5,8.81,8.6C426.3,319.17,431.47,319.1,436.64,319.1ZM272.12,356.35c0-5.5.09-11,0-16.51-.11-5.15-2.85-8.34-7.91-8.45-11.16-.22-22.34-.23-33.5,0-4.83.11-7.58,3.29-7.64,8.17q-.17,16.5,0,33c.06,4.83,3,7.78,7.88,7.85q16.5.27,33,0c5.42-.08,8.05-3,8.16-8.61C272.2,366.69,272.13,361.52,272.12,356.35ZM121,319.1c5.33,0,10.67.07,16,0,5.72-.09,8.82-2.92,8.9-8.5q.21-16,0-32c-.07-5.67-3.06-8.51-8.78-8.55q-15.77-.11-31.51,0c-5.87,0-8.73,2.72-8.79,8.43q-.18,16,0,32c.06,5.75,2.91,8.51,8.67,8.61C110.68,319.18,115.85,319.1,121,319.1Zm38.91-25c0,5.67-.12,11.34,0,17,.14,4.85,3,7.82,7.86,7.89q16.5.22,33,0c5.08-.06,8.1-3.07,8.17-8.16.13-11,.15-22,0-33-.07-4.85-3.08-7.79-7.91-7.84q-16.5-.19-33,0c-5.17,0-8,2.92-8.11,8.1C159.82,283.48,159.93,288.82,159.93,294.15Zm-63.12,61.4c0,5.33-.06,10.67,0,16,.09,6.17,2.67,8.88,8.81,8.95q15.75.18,31.5,0,8.69-.11,8.79-8.57.18-16,0-32c-.07-5.32-3.08-8.47-8.41-8.56-10.83-.18-21.67-.2-32.51,0-5.4.1-8,3.15-8.17,8.67C96.73,345.21,96.81,350.38,96.81,355.55Zm-38.41,25c5.17,0,10.34.1,15.5,0,6-.14,8.86-2.92,8.93-9q.18-15.5,0-31c-.06-6-3-9.1-8.85-9.18q-15.73-.24-31.5,0c-5.84.08-8.71,2.9-8.78,8.6q-.2,16,0,32c.06,5.8,2.8,8.42,8.69,8.57C47.73,380.63,53.07,380.53,58.4,380.53Zm150.65-24.28c0-5.34.07-10.68,0-16-.1-5.66-3-8.79-8.56-8.89q-16-.25-32,0c-5.67.09-8.47,3.14-8.52,8.86q-.12,15.75,0,31.51c.05,5.84,2.73,8.69,8.49,8.77q16,.19,32,0c5.73-.07,8.48-3,8.58-8.74C209.12,366.59,209.05,361.42,209.05,356.25Zm126.17-.08c0-5.17,0-10.34,0-15.51-.08-6.33-2.81-9.26-9.08-9.34q-15.5-.18-31,0c-6,.08-9,3.08-9,9q-.15,15.75,0,31.51c.06,5.73,2.89,8.62,8.64,8.69q16,.19,32,0c5.74-.08,8.36-2.95,8.45-8.82C335.29,366.5,335.22,361.33,335.22,356.17Z" transform="translate(6 6)"/><path class="cls-8" d="M236.07,124.15c-4.32,0-8.65.12-13,0-4.72-.17-8-3.59-7.89-7.89a7.62,7.62,0,0,1,7.81-7.45q13.22-.27,26.45,0a7.49,7.49,0,0,1,7.58,7.61c0,4.38-3.18,7.48-8,7.76-.33,0-.66,0-1,0Z" transform="translate(6 6)"/><path class="cls-9" d="M217.54,439.87h-109c-9.68,0-11.76-2.07-11.77-11.68,0-9.16,0-18.33,0-27.5,0-7.65,2.52-10.2,10.18-10.21q45.74-.06,91.47,0H326.93c9.35,0,11.6,2.21,11.63,11.41q0,13.49,0,27c-.05,8.56-2.49,11-11.05,11Q272.52,439.89,217.54,439.87Zm-105-33.41v17.38h210V406.46Z" transform="translate(6 6)"/><path class="cls-2" d="M349.18,319.14H297.1c-8.61,0-11-2.38-11-10.92,0-9.66-.05-19.32,0-29,0-6.38,2.79-9.25,9.08-9.26q47.21-.08,94.42,0c5.82,0,8.71,2.78,8.72,8.52q.11,46.72,0,93.44c0,5.8-2.79,8.5-8.66,8.56q-15.74.18-31.48,0c-6.24-.06-9-2.94-9-9.37-.06-15.32,0-30.64,0-46ZM365,364.73h17.63V286h-80.4v17.32c17.29,0,34.25,0,51.21,0,9.18,0,11.56,2.39,11.56,11.53C365,331.35,365,347.83,365,364.73Z" transform="translate(6 6)"/><path class="cls-2" d="M412.27,385.12c0-14.49,0-29,0-43.49,0-7.52,2.76-10.29,10.24-10.33q14.49-.09,29,0c7.27.05,10,2.69,10,10q.06,44.24,0,88.48c0,7.36-2.59,10-9.86,10.08q-14.75.15-29.49,0c-7.14-.07-9.83-2.92-9.85-10.22C412.24,414.78,412.27,400,412.27,385.12ZM445.65,424V347.48H428.48V424Z" transform="translate(6 6)"/><path class="cls-2" d="M247.51,270c5.48,0,11-.1,16.46,0,5.12.12,8.06,3,8.11,8.1q.19,16.46,0,32.93c-.06,5.05-3.08,7.95-8.23,8q-16.21.17-32.43,0c-5.4-.06-8.31-3-8.37-8.39q-.16-16.21,0-32.44c.06-5.34,3-8.12,8.5-8.22S242.19,270,247.51,270ZM256,303.06V286H239v17.11Z" transform="translate(6 6)"/><path class="cls-3" d="M33.66,414.65c0-5.15-.1-10.31,0-15.46.14-5.58,2.72-8.54,8.16-8.65q16.45-.32,32.92,0c5,.11,8,3.27,8,8.36q.24,16.21,0,32.43c-.07,5.09-3,8.27-8,8.38q-16.71.38-33.42,0c-4.94-.12-7.5-3.11-7.65-8.1-.17-5.65,0-11.31,0-17Zm15.73,9.21H66.71V406.47H49.39Z" transform="translate(6 6)"/><path class="cls-3" d="M398.35,415.56c0,5.16.08,10.31,0,15.47-.12,5.57-2.69,8.62-8.08,8.73q-16.46.36-32.92,0c-5.1-.11-8-3.24-8.1-8.29q-.23-16.21,0-32.43c.07-5.31,3-8.39,8.43-8.49q16.2-.3,32.42,0c5.46.11,8.12,3.07,8.25,8.56S398.35,410.07,398.35,415.56Zm-33-9.25v17.53h17.13V406.31Z" transform="translate(6 6)"/><path class="cls-2" d="M58.46,319.1c-5.33,0-10.67.07-16,0-5.79-.09-8.68-2.81-8.75-8.54q-.2-16,0-32c.07-5.77,2.9-8.46,8.73-8.5q15.75-.11,31.51,0c5.92,0,8.82,2.92,8.89,9q.16,15.51,0,31c-.07,6.18-3.11,9-9.38,9.07C68.46,319.15,63.46,319.1,58.46,319.1Zm-9-16.1h17.3V285.94H49.45Z" transform="translate(6 6)"/><path class="cls-2" d="M436.64,319.1c-5.17,0-10.34.07-15.51,0-5.64-.1-8.73-3-8.81-8.6q-.22-16,0-32c.08-5.62,3.16-8.4,8.91-8.44q15.75-.11,31.51,0c5.8,0,8.63,2.74,8.7,8.55q.19,16,0,32c-.07,5.71-3,8.42-8.8,8.5C447.31,319.17,442,319.1,436.64,319.1Zm9.05-16v-17H428.41v17Z" transform="translate(6 6)"/><path class="cls-2" d="M272.12,356.35c0,5.17.08,10.34,0,15.51-.11,5.58-2.74,8.53-8.16,8.61q-16.5.25-33,0c-4.91-.07-7.82-3-7.88-7.85q-.19-16.5,0-33c.06-4.88,2.81-8.06,7.64-8.17,11.16-.27,22.34-.26,33.5,0,5.06.11,7.8,3.3,7.91,8.45C272.21,345.34,272.12,350.85,272.12,356.35ZM256,364.76V347.43H239v17.33Z" transform="translate(6 6)"/><path class="cls-2" d="M121,319.1c-5.17,0-10.34.08-15.51,0-5.76-.1-8.61-2.86-8.67-8.61q-.15-16,0-32c.06-5.71,2.92-8.4,8.79-8.43q15.75-.11,31.51,0c5.72,0,8.71,2.88,8.78,8.55q.18,16,0,32c-.08,5.58-3.18,8.41-8.9,8.5C131.69,319.17,126.35,319.1,121,319.1Zm8.77-16v-17.2H112.6v17.2Z" transform="translate(6 6)"/><path class="cls-8" d="M159.93,294.15c0-5.33-.11-10.67,0-16,.13-5.18,2.94-8.05,8.11-8.1q16.5-.17,33,0c4.83.05,7.84,3,7.91,7.84.16,11,.14,22,0,33-.07,5.09-3.09,8.1-8.17,8.16q-16.5.19-33,0c-4.85-.07-7.72-3-7.86-7.89C159.81,305.49,159.93,299.82,159.93,294.15Zm15.72,8.93H193V286H175.65Z" transform="translate(6 6)"/><path class="cls-8" d="M96.81,355.55c0-5.17-.08-10.34,0-15.51.12-5.52,2.77-8.57,8.17-8.67,10.84-.21,21.68-.19,32.51,0,5.33.09,8.34,3.24,8.41,8.56q.2,16,0,32-.1,8.47-8.79,8.57-15.75.18-31.5,0c-6.14-.07-8.72-2.78-8.81-8.95C96.75,366.22,96.81,360.88,96.81,355.55Zm33.12-8.24h-17.3v17.45h17.3Z" transform="translate(6 6)"/><path class="cls-10" d="M58.4,380.53c-5.33,0-10.67.1-16,0-5.89-.15-8.63-2.77-8.69-8.57q-.2-16,0-32c.07-5.7,2.94-8.52,8.78-8.6q15.75-.21,31.5,0c5.84.08,8.79,3.21,8.85,9.18q.15,15.51,0,31c-.07,6.06-2.9,8.84-8.93,9C68.74,380.63,63.57,380.53,58.4,380.53ZM67,347.45H49.46v17.18H67Z" transform="translate(6 6)"/><path class="cls-8" d="M209.05,356.25c0,5.17.07,10.34,0,15.5-.1,5.76-2.85,8.67-8.58,8.74q-16,.19-32,0c-5.76-.08-8.44-2.93-8.49-8.77q-.12-15.75,0-31.51c.05-5.72,2.85-8.77,8.52-8.86q16-.25,32,0c5.61.1,8.46,3.23,8.56,8.89C209.12,345.57,209.05,350.91,209.05,356.25Zm-16-8.91H175.81v17.38h17.28Z" transform="translate(6 6)"/><path class="cls-8" d="M335.22,356.17c0,5.16.07,10.33,0,15.5-.09,5.87-2.71,8.74-8.45,8.82q-16,.21-32,0c-5.75-.07-8.58-3-8.64-8.69q-.15-15.76,0-31.51c.05-5.88,3-8.88,9-9q15.5-.21,31,0c6.27.08,9,3,9.08,9.34C335.27,345.83,335.22,351,335.22,356.17Zm-15.84,8.66V347.32H302.19v17.51Z" transform="translate(6 6)"/><path class="cls-11" d="M112.57,406.46h210v17.38h-210Z" transform="translate(6 6)"/><path class="cls-5" d="M365,364.73c0-16.9,0-33.38,0-49.86,0-9.14-2.38-11.52-11.56-11.53-17,0-33.92,0-51.21,0V286h80.4v78.72Z" transform="translate(6 6)"/><path class="cls-5" d="M445.65,424H428.48V347.48h17.17Z" transform="translate(6 6)"/><path class="cls-1" d="M256,303.06H239V286H256Z" transform="translate(6 6)"/><path class="cls-7" d="M49.39,423.86V406.47H66.71v17.39Z" transform="translate(6 6)"/><path class="cls-12" d="M365.34,406.31h17.13v17.53H365.34Z" transform="translate(6 6)"/><path class="cls-5" d="M49.45,303V285.94h17.3V303Z" transform="translate(6 6)"/><path class="cls-5" d="M445.69,303.07H428.41v-17h17.28Z" transform="translate(6 6)"/><path class="cls-11" d="M256,364.76H239V347.43h17Z" transform="translate(6 6)"/><path class="cls-7" d="M129.79,303.12H112.6v-17.2h17.19Z" transform="translate(6 6)"/><path class="cls-12" d="M175.65,303.08V286H193v17.12Z" transform="translate(6 6)"/><path class="cls-13" d="M129.93,347.31v17.45h-17.3V347.31Z" transform="translate(6 6)"/><path class="cls-12" d="M67,347.45v17.18H49.46V347.45Z" transform="translate(6 6)"/><path class="cls-14" d="M193.09,347.34v17.38H175.81V347.34Z" transform="translate(6 6)"/><path class="cls-13" d="M319.38,364.83H302.19V347.32h17.19Z" transform="translate(6 6)"/></svg>