<svg id="Layer_1" data-name="Layer 1" xmlns="http://www.w3.org/2000/svg" viewBox="0 0 480 480"><defs><style>.cls-1{fill:#fefefe;}.cls-2{fill:#e02c2c;}.cls-3{fill:#e02b2b;}.cls-4{fill:#df2a2a;}.cls-5{fill:#fefcfc;}</style></defs><path class="cls-1" d="M366.49,10H490V490H10V10H157.84c-2.55,1.95-5.34,3.66-7.6,5.9-17.93,17.78-35.73,35.68-53.61,53.5C91.27,74.74,89.09,80.83,92.16,88s9,9.93,16.5,9.86c4.6-.05,9.21,0,14,0,0,15.82-.06,30.93,0,46,.06,11.38,6.4,17.69,17.64,17.72q22.45,0,44.89,0c10.93,0,17.38-6.5,17.43-17.48.05-13.24,0-26.49,0-39.74V97.88c5.63,0,10.6.1,15.57,0,8.2-.21,14.49-5.33,16-13.07,1.21-6.23-1.27-11.21-5.61-15.54-16.89-16.83-33.65-33.79-50.65-50.5-3.44-3.38-7.77-5.86-11.68-8.75H309.42c-9.39,4.88-11.91,12.9-11.24,22.93.55,8.37.11,16.82.11,25.23V73.78c-5.18,0-9.82,0-14.46,0-7.36,0-13,3-16.08,9.86-2.88,6.45-1.31,12.81,4.51,18.64q26.91,27,53.89,53.87c7.57,7.54,16.7,7.57,24.33,0q27-26.87,53.84-53.92a20.62,20.62,0,0,0,5-7.72c3.43-10.47-4.17-20.33-15.68-20.68-5.06-.16-10.12,0-15.35,0,0-14.65-.36-28.52.13-42.37C378.76,21.55,375.88,14.13,366.49,10Zm-116,479.07c52.23,0,104.47-.29,156.7.17,15.21.14,27.12-10.45,27-27q-.57-128.86,0-257.74c.08-16.51-11.66-27.09-27-27.05q-156.69.42-313.4,0c-15.39,0-27.11,10.57-27,27q.57,128.86,0,257.73c-.08,16.91,12.24,27.16,27,27C146,488.79,198.22,489.07,250.46,489.07Z" transform="translate(-10 -10)"/><path class="cls-2" d="M366.49,10c9.39,4.13,12.27,11.55,11.93,21.41-.49,13.85-.13,27.72-.13,42.37,5.23,0,10.29-.13,15.35,0,11.51.35,19.11,10.21,15.68,20.68a20.62,20.62,0,0,1-5,7.72q-26.77,27.09-53.84,53.92c-7.63,7.59-16.76,7.56-24.33,0q-27-26.88-53.89-53.87c-5.82-5.83-7.39-12.19-4.51-18.64,3.07-6.89,8.72-9.83,16.08-9.86,4.64,0,9.28,0,14.46,0V58.16c0-8.41.44-16.86-.11-25.23-.67-10,1.85-18,11.24-22.93ZM284.16,89.77,338.41,144c17.7-17.72,35.92-35.95,54.21-54.24-6.28,0-12.91,0-19.54,0-8.43,0-10.88-2.42-10.89-10.83q0-23.85,0-47.7v-5H314.26v4.89q0,24.08,0,48.16c0,8.11-2.41,10.45-10.65,10.47C297,89.78,290.34,89.77,284.16,89.77Z" transform="translate(-10 -10)"/><path class="cls-3" d="M166.26,10c3.91,2.89,8.24,5.37,11.68,8.75,17,16.71,33.76,33.67,50.65,50.5,4.34,4.33,6.82,9.31,5.61,15.54-1.5,7.74-7.79,12.86-16,13.07-5,.12-9.94,0-15.57,0v6.55c0,13.25,0,26.5,0,39.74,0,11-6.5,17.44-17.43,17.48q-22.44.06-44.89,0c-11.24,0-17.58-6.34-17.64-17.72-.08-15.11,0-30.22,0-46-4.78,0-9.39,0-14,0-7.53.07-13.44-2.68-16.5-9.86s-.89-13.3,4.47-18.64c17.88-17.82,35.68-35.72,53.61-53.5,2.26-2.24,5-4,7.6-5.9Zm-3,17.6L108.94,81.93c5.93,0,12.77,0,19.6,0,7.48,0,10.16,2.64,10.2,10.12.06,11.7,0,23.39,0,35.09v18.33h47.92v-4.76q0-24.33,0-48.66c0-7.58,2.52-10.09,10-10.12,6.9,0,13.81,0,20.85,0Z" transform="translate(-10 -10)"/><path class="cls-4" d="M250.46,489.07c-52.24,0-104.47-.28-156.7.18-14.79.13-27.11-10.12-27-27q.58-128.86,0-257.73c-.07-16.47,11.65-27.08,27-27q156.71.42,313.4,0c15.37,0,27.11,10.54,27,27.05q-.56,128.87,0,257.74c.08,16.55-11.83,27.14-27,27C354.93,488.78,302.69,489.07,250.46,489.07ZM250,473.12H407.14c8.43,0,10.92-2.44,10.92-10.76q0-128.86,0-257.72c0-8.66-2.43-11.08-11.13-11.08H94c-8.72,0-11.16,2.41-11.16,11.05V461.86c0,9,2.31,11.26,11.36,11.26Z" transform="translate(-10 -10)"/><path class="cls-5" d="M284.16,89.77c6.18,0,12.81,0,19.45,0,8.24,0,10.64-2.36,10.65-10.47q0-24.08,0-48.16V26.24h47.92v5q0,23.85,0,47.7c0,8.41,2.46,10.81,10.89,10.83,6.63,0,13.26,0,19.54,0-18.29,18.29-36.51,36.52-54.21,54.24Z" transform="translate(-10 -10)"/><path class="cls-5" d="M163.26,27.6l54.32,54.33c-7,0-14,0-20.85,0-7.53,0-10,2.54-10,10.12q0,24.33,0,48.66v4.76H138.75V127.14c0-11.7.05-23.39,0-35.09,0-7.48-2.72-10.09-10.2-10.12-6.83,0-13.67,0-19.6,0Z" transform="translate(-10 -10)"/><path class="cls-5" d="M250,473.12H94.23c-9,0-11.36-2.29-11.36-11.26V204.61c0-8.64,2.44-11.05,11.16-11.05h312.9c8.7,0,11.13,2.42,11.13,11.08q0,128.85,0,257.72c0,8.32-2.49,10.76-10.92,10.76Zm-119.28-113v5.5c0,25.1-.09,50.19,0,75.28.07,15.14,12.73,26.15,27.62,23.74,4.41-.71,8.52-3.22,12.8-4.91a59.19,59.19,0,0,0,7.09,3.84,23.61,23.61,0,0,0,32.11-22c.28-25.4.09-50.81.1-76.21V360.2c20.09,4.7,33.21-9.51,32.08-26.25-.69-10.4.12-20.89-.36-31.31a39.2,39.2,0,0,0-30.24-36c-2.91-.68-5.91-1-9-1.5,14-21.57,6.38-42.83-6.1-53.68a40,40,0,0,0-50.07-1.85c-17.11,12.82-20.08,31.59-8.68,55.68-.79.1-1.51.21-2.23.29-22.29,2.49-36.92,18.75-37,41.2,0,9.51,0,19,0,28.53C98.86,353.74,112,364.18,130.7,360.08Zm232.14-94.77c11.1-24,8.57-42-7.54-54.87a39.91,39.91,0,0,0-49.74-.19c-16.33,12.77-18.84,30.38-7.77,55.1l-2.31.22c-21.36,2.22-36.27,18-36.88,39.4-.32,10.9-.3,21.82,0,32.72.4,15.13,12.69,25.27,27.68,23.21,1.3-.18,2.59-.41,4.2-.66v5.48c0,24.93-.06,49.87,0,74.81.05,12,7.39,21.49,18.42,23.91a23.67,23.67,0,0,0,21.3-5.42c8.61,6.66,17.74,8.19,27.26,3.17s12.9-13.58,12.81-24.13c-.2-24.31-.06-48.62-.06-72.94v-5c18.7,4.1,31.83-6.34,31.87-24.79,0-10.29.14-20.58-.06-30.86-.23-12.05-5.21-21.95-14.37-29.74C380.56,268.64,372.08,266,362.84,265.31Z" transform="translate(-10 -10)"/><path class="cls-4" d="M130.7,360.08c-18.7,4.1-31.84-6.34-31.88-24.79,0-9.51,0-19,0-28.53.12-22.45,14.75-38.71,37-41.2.72-.08,1.44-.19,2.23-.29-11.4-24.09-8.43-42.86,8.68-55.68a40,40,0,0,1,50.07,1.85c12.48,10.85,20.08,32.11,6.1,53.68,3.09.51,6.09.82,9,1.5a39.2,39.2,0,0,1,30.24,36c.48,10.42-.33,20.91.36,31.31,1.13,16.74-12,30.95-32.08,26.25v5.07c0,25.4.18,50.81-.1,76.21a23.61,23.61,0,0,1-32.11,22,59.19,59.19,0,0,1-7.09-3.84c-4.28,1.69-8.39,4.2-12.8,4.91-14.89,2.41-27.55-8.6-27.62-23.74-.13-25.09,0-50.18,0-75.28Zm15.94,13.09q0,33,0,65.93c0,6.34,2.94,9.91,8,9.91s7.92-3.43,7.93-9.89q0-32,0-64.06c0-4.37-.1-8.73,0-13.1.15-5.15,3.39-8.55,7.95-8.58s7.76,3.28,8,8.5c0,1.24,0,2.49,0,3.74q0,36.24,0,72.48a16.8,16.8,0,0,0,.77,5.94c1.46,3.8,4.53,5.49,8.57,4.84,3.84-.62,6-3,6.47-6.91a40.35,40.35,0,0,0,.11-4.67V308.24c0-.94,0-1.88,0-2.8.46-4.8,3.82-8.09,8.13-8s7.67,3.38,7.73,8.27c.14,10.28-.05,20.57.11,30.86.09,5.54,3.45,8.8,8.32,8.64,4.65-.15,7.53-3.33,7.57-8.8.08-10.6.22-21.21-.07-31.8a23.32,23.32,0,0,0-23.44-23.1q-32.25-.32-64.53,0c-13.39.15-23.43,10.6-23.57,24-.11,10.13-.06,20.26,0,30.39,0,6,3,9.37,8,9.3s7.83-3.49,7.86-9.53c0-9.66-.26-19.34.19-29a11.5,11.5,0,0,1,3.83-7.78c1.7-1.31,6-1.45,7.6-.18a11.75,11.75,0,0,1,4.15,8C146.79,328.9,146.64,351,146.64,373.17Zm24.17-155.51a23.9,23.9,0,1,0,23.66,23.84A23.69,23.69,0,0,0,170.81,217.66Z" transform="translate(-10 -10)"/><path class="cls-4" d="M362.84,265.31c9.24.7,17.72,3.33,24.84,9.38,9.16,7.79,14.14,17.69,14.37,29.74.2,10.28.09,20.57.06,30.86,0,18.45-13.17,28.89-31.87,24.79v5c0,24.32-.14,48.63.06,72.94.09,10.55-3.23,19.08-12.81,24.13s-18.65,3.49-27.26-3.17a23.67,23.67,0,0,1-21.3,5.42c-11-2.42-18.37-11.94-18.42-23.91-.1-24.94,0-49.88,0-74.81v-5.48c-1.61.25-2.9.48-4.2.66-15,2.06-27.28-8.08-27.68-23.21-.29-10.9-.31-21.82,0-32.72.61-21.42,15.52-37.18,36.88-39.4l2.31-.22c-11.07-24.72-8.56-42.33,7.77-55.1a39.91,39.91,0,0,1,49.74.19C371.41,223.27,373.94,241.32,362.84,265.31ZM306.45,373q0,18.95,0,37.88c0,10-.07,19.95,0,29.92.06,4.94,3.22,8.1,7.73,8.17s7.71-3,8.14-7.89c.11-1.24,0-2.49,0-3.74V364.89a33,33,0,0,1,.12-4.67,7.37,7.37,0,0,1,6.7-6.74,7.21,7.21,0,0,1,8.25,4.69,16.5,16.5,0,0,1,.85,5.92q.07,36.95,0,73.89a26.7,26.7,0,0,0,.1,4.2c.64,3.78,2.84,6.21,6.71,6.72,4,.53,7.1-1.13,8.44-5a18.46,18.46,0,0,0,.67-6q0-65.46,0-130.93c0-5.82,3.17-9.57,7.92-9.58s8,3.78,8,9.54c0,9.67,0,19.33,0,29,0,6,3.05,9.35,8.11,9.27,4.84-.08,7.76-3.39,7.79-9.09.06-10.28.12-20.57,0-30.86-.17-13.13-10.19-23.58-23.35-23.74q-32.49-.39-65,0c-11.69.12-22.15,9-22.85,20.09-.76,12.1-.41,24.29-.27,36.45a7.13,7.13,0,0,0,7.22,7.12c4.33.16,7.14-1.94,8.17-6.12a22.24,22.24,0,0,0,.4-5.1c0-9.51-.07-19,.08-28.52a7.79,7.79,0,0,1,7.51-8c4.09-.18,7.63,2.9,8.27,7.35a29.35,29.35,0,0,1,.12,4.2Q306.46,341,306.45,373Zm0-131.59a23.74,23.74,0,0,0,23.51,24,23.9,23.9,0,1,0,.21-47.79A23.68,23.68,0,0,0,306.47,241.44Z" transform="translate(-10 -10)"/><path class="cls-5" d="M146.64,373.17c0-22.13.15-44.27-.18-66.4a11.75,11.75,0,0,0-4.15-8c-1.63-1.27-5.9-1.13-7.6.18a11.5,11.5,0,0,0-3.83,7.78c-.45,9.64-.15,19.32-.19,29,0,6-2.9,9.47-7.86,9.53s-8-3.32-8-9.3c0-10.13-.1-20.26,0-30.39.14-13.41,10.18-23.86,23.57-24q32.26-.36,64.53,0a23.32,23.32,0,0,1,23.44,23.1c.29,10.59.15,21.2.07,31.8,0,5.47-2.92,8.65-7.57,8.8-4.87.16-8.23-3.1-8.32-8.64-.16-10.29,0-20.58-.11-30.86-.06-4.89-3.36-8.2-7.73-8.27s-7.67,3.22-8.13,8c-.09.92,0,1.86,0,2.8V437.3a40.35,40.35,0,0,1-.11,4.67c-.43,3.88-2.63,6.29-6.47,6.91-4,.65-7.11-1-8.57-4.84a16.8,16.8,0,0,1-.77-5.94q-.07-36.24,0-72.48c0-1.25,0-2.5,0-3.74-.19-5.22-3.3-8.53-8-8.5s-7.8,3.43-7.95,8.58c-.13,4.37,0,8.73,0,13.1q0,32,0,64.06c0,6.46-2.8,9.88-7.93,9.89s-8-3.57-8-9.91Q146.62,406.15,146.64,373.17Z" transform="translate(-10 -10)"/><path class="cls-5" d="M170.81,217.66a23.9,23.9,0,0,1-.39,47.8,23.9,23.9,0,1,1,.39-47.8Z" transform="translate(-10 -10)"/><path class="cls-5" d="M306.45,373q0-32,0-64.06a29.35,29.35,0,0,0-.12-4.2c-.64-4.45-4.18-7.53-8.27-7.35a7.79,7.79,0,0,0-7.51,8c-.15,9.5,0,19-.08,28.52a22.24,22.24,0,0,1-.4,5.1c-1,4.18-3.84,6.28-8.17,6.12a7.13,7.13,0,0,1-7.22-7.12c-.14-12.16-.49-24.35.27-36.45.7-11.06,11.16-20,22.85-20.09q32.5-.35,65,0c13.16.16,23.18,10.61,23.35,23.74.13,10.29.07,20.58,0,30.86,0,5.7-2.95,9-7.79,9.09-5.06.08-8.08-3.3-8.11-9.27-.05-9.66,0-19.32,0-29,0-5.76-3.25-9.55-8-9.54s-7.92,3.76-7.92,9.58q0,65.46,0,130.93a18.46,18.46,0,0,1-.67,6c-1.34,3.9-4.4,5.56-8.44,5-3.87-.51-6.07-2.94-6.71-6.72a26.7,26.7,0,0,1-.1-4.2q0-36.94,0-73.89a16.5,16.5,0,0,0-.85-5.92,7.21,7.21,0,0,0-8.25-4.69,7.37,7.37,0,0,0-6.7,6.74,33,33,0,0,0-.12,4.67v72.48c0,1.25.07,2.5,0,3.74-.43,4.85-3.67,7.95-8.14,7.89s-7.67-3.23-7.73-8.17c-.11-10,0-19.95,0-29.92Q306.44,392,306.45,373Z" transform="translate(-10 -10)"/><path class="cls-5" d="M306.47,241.44a23.68,23.68,0,0,1,23.72-23.78,23.9,23.9,0,1,1-23.72,23.78Z" transform="translate(-10 -10)"/></svg>