<svg id="Layer_1" data-name="Layer 1" xmlns="http://www.w3.org/2000/svg" viewBox="0 0 496 496"><defs><style>.cls-1{fill:#fefefe;}.cls-2{fill:#df2a2a;}.cls-3{fill:#e02b2b;}.cls-4{fill:#e02d2d;}.cls-5{fill:#fefdfd;}.cls-6{fill:#fefcfc;}.cls-7{fill:#fefbfb;}.cls-8{fill:#fdfafa;}</style></defs><path class="cls-1" d="M237,498H2V2H498V498H262.09a11.67,11.67,0,0,1,2.43-1,111.52,111.52,0,0,0,40.31-14c42.87-24.72,65.93-80.51,46.2-127.55-5-11.86-9.54-23.89-14.85-35.58a17.4,17.4,0,0,0-7.61-8.16c-6.07-2.82-12.18,2.13-12.81,9.54-.5,5.72-.33,11.6-4.07,16.93-4-21.43-9.61-28.58-29.2-36.25-5.56-2.18-8-5.83-7.76-11.32.3-6.9.93-13.79,1.73-20.65.85-7.28-2.5-12.62-8.94-12.75-23.54-.47-44.23,8.11-54.58,34a84.54,84.54,0,0,0-4,12.37c-2.43,10.49-4.43,21.08-6.84,31.58-.72,3.11-2.26,6-3.42,9l-2.29-.26c-.94-10.34-2-20.67-2.73-31-.31-4.6-1.8-8.17-6-10.14s-8.28-.75-11.58,2.28a29,29,0,0,0-6,6.91c-6.83,12.54-14.34,24.82-19.8,37.95-8.41,20.18-12.57,41.5-7.51,63.27,9.88,42.55,37.5,68.38,78.54,80.89C226.43,495.67,231.73,496.71,237,498ZM98.5,22.31h6q50,0,100,0c6.49,0,11-4.09,10.95-9.69C215.48,7.16,211.1,3,205,3q-57.5-.08-115,0C83.3,3,79.5,6.87,79.39,13.52c-.1,6.28-.08,12.57,0,18.85.27,22.91,17.55,40.11,40.53,40.38,2.5,0,5,0,7.69,0,0,3.35,0,5.92,0,8.49.14,26.19,18.87,45.27,45,45.33q76.85.2,153.68,0c26.19-.06,45-19,45.16-45.15,0-2.82,0-5.63,0-8.68,3,0,5.27,0,7.51,0,20.78-.22,36.86-13.48,40-34,1.23-8,.67-16.37.71-24.57,0-7.58-3.69-11.2-11.32-11.22-12.24,0-24.49,0-36.73,0q-38.41,0-76.84,0c-5,0-8.81,1.74-10.58,6.66-2.42,6.71,2.54,12.68,10.62,12.69q50,.06,100,0h5.5c0,1.93-.12,3.36,0,4.76,1.59,16.28-8.08,26.71-26,26.57-74.74-.56-149.49-.23-224.24-.23-10.15,0-20.3.08-30.44,0-10.29-.11-18.39-6.51-20.31-16.52C98.44,32.35,98.76,27.61,98.5,22.31ZM249.37,232.79c23.93.16,40.69-23.74,32-45.94-5.64-14.38-14.78-26.66-24.73-38.3-4-4.72-10.3-4.62-14.35.14-9.71,11.42-18.32,23.59-24.41,37.41C208.47,207.42,224.57,232.28,249.37,232.79ZM40.27,390.35c.14,23.72,8.16,44.32,24.43,61.63,5,5.38,10.87,6,15.15,1.77s3.89-9.6-1-14.9c-25.74-28-25.79-68.26-.14-96.13,5.08-5.52,5.42-11.1.94-15.25s-10-3.38-15.14,2.14C48.55,346.69,40.57,367,40.27,390.35Zm419,.71c-1-7-1.47-14.1-3-21A84.57,84.57,0,0,0,433,328c-4.23-4.21-9.89-4.21-13.79-.35s-3.89,9.09-.24,13.48c.51.62,1.11,1.17,1.64,1.77q23.57,26.12,17.56,60.76c-2.34,13.54-8.74,25.05-17.84,35.28a16,16,0,0,0-3.77,8.87c-.29,4,2.53,6.89,6.38,8.16,4.07,1.33,7.56.05,10.51-3C450,435.71,458.35,415.06,459.31,391.06Zm-340.09-32.6c-.13-5.68-2-8.66-5.75-10.32-4.43-1.95-8.07-.56-11.35,2.72-21.3,21.3-21.42,57.83-.21,79.45,4.49,4.58,9.94,5.1,14.15,1.36s4.15-9.66-.11-14.6c-14.28-16.58-14.2-36.08,0-52.9A28.32,28.32,0,0,0,119.22,358.46ZM413,391c-.16-15.36-5.32-28.68-15.88-39.82-4.44-4.67-9.87-5.16-14.12-1.4s-4.23,9.62,0,14.57c14.28,16.59,14.26,36.2-.05,52.87-4.23,4.92-4.2,10.85.08,14.56s9.69,3.17,14.11-1.51C407.62,419.2,412.76,406,413,391ZM259.27,12.56A9.54,9.54,0,0,0,249.86,3,9.8,9.8,0,0,0,240,12.7a9.88,9.88,0,0,0,9.53,9.59A9.63,9.63,0,0,0,259.27,12.56Z" transform="translate(-2 -2)"/><path class="cls-2" d="M237,498c-5.22-1.29-10.52-2.33-15.65-3.9-41-12.51-68.66-38.34-78.54-80.89-5.06-21.77-.9-43.09,7.51-63.27,5.46-13.13,13-25.41,19.8-37.95a29,29,0,0,1,6-6.91c3.3-3,7.25-4.29,11.58-2.28s5.73,5.54,6,10.14c.69,10.36,1.79,20.69,2.73,31l2.29.26c1.16-3,2.7-5.93,3.42-9,2.41-10.5,4.41-21.09,6.84-31.58a84.54,84.54,0,0,1,4-12.37c10.35-25.86,31-34.44,54.58-34,6.44.13,9.79,5.47,8.94,12.75-.8,6.86-1.43,13.75-1.73,20.65-.23,5.49,2.2,9.14,7.76,11.32,19.59,7.67,25.18,14.82,29.2,36.25,3.74-5.33,3.57-11.21,4.07-16.93.63-7.41,6.74-12.36,12.81-9.54a17.4,17.4,0,0,1,7.61,8.16c5.31,11.69,9.88,23.72,14.85,35.58,19.73,47-3.33,102.83-46.2,127.55a111.52,111.52,0,0,1-40.31,14,11.67,11.67,0,0,0-2.43,1Zm-32.19-31.62,1,.41,0-1.17c-2.06-7.76-2.7-15.61-.39-23.37A178,178,0,0,1,234.51,385a27,27,0,0,1,7.88-6.95c6.67-3.83,13.83-.7,16,6.69a29,29,0,0,1,.83,6.66c.3,6.35,2.73,11.5,8,15.19,3.3,2.3,6.57,4.65,9.83,7,9.17,6.61,15.51,15.36,16.75,26.6,1,8.79.2,17.78.2,26.34,36.72-18.56,58.84-71.05,34.74-113.48-3.43,5.77-6.62,11.87-10.52,17.47-3.39,4.85-8.23,7.93-14.56,6.18s-9.06-6.95-9.71-13.08c-.62-5.91-.68-11.89-1-17.84-.69-12.67-4.54-23.11-18.63-26.3a7.54,7.54,0,0,1-1.35-.49c-9.46-4.08-15.4-11.1-16.77-21.34-.86-6.49-.85-13.1-1.25-19.86-11.55,1.94-19.58,8.7-23.49,19.55-3.1,8.58-5,17.6-7.06,26.51-2.35,10.33-3.52,21-9.32,30.24-4.65,7.38-11.46,11.61-20.14,11.06-8.51-.55-12.55-7-15.28-14.28-1-2.55-1.67-5.2-2.5-7.8-.3-.95-.63-1.88-1.2-3.58a145.87,145.87,0,0,0-14,38.71C152.93,421,180.1,453.62,204.76,466.38ZM243,406.44c-7.93,12.85-14.5,25.46-18.55,39.24a25.07,25.07,0,0,0,10.25,28.37c9.43,6.43,21.38,5.91,30.72-.76,14.08-10.05,13.61-35.77-.13-44.54C256.53,423.15,247.69,417.36,243,406.44Z" transform="translate(-2 -2)"/><path class="cls-2" d="M98.5,22.31c.26,5.3-.06,10,.8,14.55,1.92,10,10,16.41,20.31,16.52,10.14.11,20.29,0,30.44,0,74.75,0,149.5-.33,224.24.23,18,.14,27.64-10.29,26-26.57-.14-1.4,0-2.83,0-4.76h-5.5q-50,0-100,0c-8.08,0-13-6-10.62-12.69,1.77-4.92,5.55-6.67,10.58-6.66q38.42.08,76.84,0c12.24,0,24.49,0,36.73,0,7.63,0,11.36,3.64,11.32,11.22,0,8.2.52,16.53-.71,24.57-3.13,20.5-19.21,33.76-40,34-2.24,0-4.49,0-7.51,0,0,3,0,5.86,0,8.68-.17,26.14-19,45.09-45.16,45.15q-76.83.17-153.68,0c-26.1-.06-44.83-19.14-45-45.33,0-2.57,0-5.14,0-8.49-2.69,0-5.19,0-7.69,0-23-.27-40.26-17.47-40.53-40.38-.08-6.28-.1-12.57,0-18.85C79.5,6.87,83.3,3,90,3q57.51-.08,115,0c6.14,0,10.52,4.17,10.54,9.61,0,5.6-4.46,9.68-10.95,9.69q-50,.06-100,0ZM147.45,73c-3.91,23.72,10.77,34.74,29,34.5,49.25-.66,98.52-.22,147.77-.23,20.13,0,31.45-14.23,27.18-34.27Z" transform="translate(-2 -2)"/><path class="cls-3" d="M249.37,232.79c-24.8-.51-40.9-25.37-31.51-46.69,6.09-13.82,14.7-26,24.41-37.41,4-4.76,10.31-4.86,14.35-.14,9.95,11.64,19.09,23.92,24.73,38.3C290.06,209.05,273.3,233,249.37,232.79Zm1.09-61.68-1.79-.13c-4.19,7.15-8.71,14.14-12.49,21.5-3.39,6.61-1.52,13.24,4.07,17.62a14.77,14.77,0,0,0,18.32.21c5.78-4.37,7.71-11.22,4.21-18C259.06,185,254.6,178.16,250.46,171.11Z" transform="translate(-2 -2)"/><path class="cls-3" d="M40.27,390.35c.3-23.35,8.28-43.66,24.25-60.74,5.15-5.52,10.74-6.22,15.14-2.14s4.14,9.73-.94,15.25c-25.65,27.87-25.6,68.17.14,96.13,4.88,5.3,5.24,10.75,1,14.9S69.74,457.36,64.7,452C48.43,434.67,40.41,414.07,40.27,390.35Z" transform="translate(-2 -2)"/><path class="cls-3" d="M459.31,391.06c-1,24-9.31,44.65-25.91,61.94-2.95,3.06-6.44,4.34-10.51,3-3.85-1.27-6.67-4.2-6.38-8.16a16,16,0,0,1,3.77-8.87c9.1-10.23,15.5-21.74,17.84-35.28q6-34.59-17.56-60.76c-.53-.6-1.13-1.15-1.64-1.77-3.65-4.39-3.55-9.74.24-13.48s9.56-3.86,13.79.35a84.57,84.57,0,0,1,23.34,42C457.84,377,458.34,384.06,459.31,391.06Z" transform="translate(-2 -2)"/><path class="cls-3" d="M119.22,358.46a28.32,28.32,0,0,1-3.22,5.71c-14.25,16.82-14.33,36.32,0,52.9,4.26,4.94,4.3,10.88.11,14.6s-9.66,3.22-14.15-1.36c-21.21-21.62-21.09-58.15.21-79.45,3.28-3.28,6.92-4.67,11.35-2.72C117.22,349.8,119.09,352.78,119.22,358.46Z" transform="translate(-2 -2)"/><path class="cls-3" d="M413,391c-.27,15.09-5.41,28.25-15.83,39.27-4.42,4.68-9.86,5.21-14.11,1.51s-4.31-9.64-.08-14.56c14.31-16.67,14.33-36.28.05-52.87-4.26-4.95-4.27-10.83,0-14.57s9.68-3.27,14.12,1.4C407.71,362.27,412.87,375.59,413,391Z" transform="translate(-2 -2)"/><path class="cls-4" d="M259.27,12.56a9.63,9.63,0,0,1-9.75,9.73A9.88,9.88,0,0,1,240,12.7,9.8,9.8,0,0,1,249.86,3,9.54,9.54,0,0,1,259.27,12.56Z" transform="translate(-2 -2)"/><path class="cls-5" d="M204.76,466.38c-24.66-12.76-51.83-45.34-42.82-88.23a145.87,145.87,0,0,1,14-38.71c.57,1.7.9,2.63,1.2,3.58.83,2.6,1.54,5.25,2.5,7.8,2.73,7.27,6.77,13.73,15.28,14.28,8.68.55,15.49-3.68,20.14-11.06,5.8-9.23,7-19.91,9.32-30.24,2-8.91,4-17.93,7.06-26.51,3.91-10.85,11.94-17.61,23.49-19.55.4,6.76.39,13.37,1.25,19.86,1.37,10.24,7.31,17.26,16.77,21.34a7.54,7.54,0,0,0,1.35.49c14.09,3.19,17.94,13.63,18.63,26.3.33,5.95.39,11.93,1,17.84.65,6.13,3.24,11.28,9.71,13.08s11.17-1.33,14.56-6.18c3.9-5.6,7.09-11.7,10.52-17.47,24.1,42.43,2,94.92-34.74,113.48,0-8.56.78-17.55-.2-26.34-1.24-11.24-7.58-20-16.75-26.6-3.26-2.35-6.53-4.7-9.83-7-5.3-3.69-7.73-8.84-8-15.19a29,29,0,0,0-.83-6.66c-2.17-7.39-9.33-10.52-16-6.69a27,27,0,0,0-7.88,6.95,178,178,0,0,0-29.18,57.3c-2.31,7.76-1.67,15.61.39,23.37Z" transform="translate(-2 -2)"/><path class="cls-6" d="M243,406.44c4.67,10.92,13.51,16.71,22.29,22.31,13.74,8.77,14.21,34.49.13,44.54-9.34,6.67-21.29,7.19-30.72.76a25.07,25.07,0,0,1-10.25-28.37C228.52,431.9,235.09,419.29,243,406.44Z" transform="translate(-2 -2)"/><path class="cls-5" d="M205.72,465.62l0,1.17-1-.41Z" transform="translate(-2 -2)"/><path class="cls-7" d="M147.45,73h204c4.27,20-7.05,34.27-27.18,34.27-49.25,0-98.52-.43-147.77.23C158.22,107.74,143.54,96.72,147.45,73Z" transform="translate(-2 -2)"/><path class="cls-8" d="M250.46,171.11c4.14,7,8.6,13.93,12.32,21.19,3.5,6.79,1.57,13.64-4.21,18a14.77,14.77,0,0,1-18.32-.21c-5.59-4.38-7.46-11-4.07-17.62,3.78-7.36,8.3-14.35,12.49-21.5Z" transform="translate(-2 -2)"/></svg>