<svg id="Layer_1" data-name="Layer 1" xmlns="http://www.w3.org/2000/svg" viewBox="0 0 478 478"><defs><style>.cls-1{fill:#fefdfd;}.cls-2{fill:#e02b2b;}.cls-3{fill:#e02c2c;}.cls-4{fill:#fefbfb;}.cls-5{fill:#fefcfc;}.cls-6{fill:#e02f2f;}.cls-7{fill:#e02e2e;}</style></defs><path class="cls-1" d="M489,469.43V489H11V11H489V423.78c-1.66-6.2-2.91-12.54-5-18.58a86.93,86.93,0,0,0-82-57.8H389.67V326.06c8.66,0,17,.2,25.38,0,14.57-.42,26.22-12.58,26.5-27.17.16-8.6-3.38-15.58-9.2-21.64,5.37-5.3,8.67-11.34,9.11-18.65,1-17-11.19-29.7-28.85-30.06-7.58-.16-15.16,0-23.27,0,0-6.42.08-12.44,0-18.45-.06-3.55-2.11-6.38-5.47-6.42-2.49,0-5.33,1.66-7.36,3.36-1.08.91-1,3.46-1.06,5.27-.12,5.35,0,10.71,0,16H223.44c0-5.62,0-11,0-16.43s-2.77-8.65-7-8.64-6.91,3.28-6.95,8.68,0,10.8,0,16.63H186.76c-7.37,0-14.08,1.91-19.77,6.83-11.9,10.29-12.89,25.42-2.4,40.35-14.25,18.21-33.6,22.75-55.68,20.84a32.21,32.21,0,0,1-.31-3.23c0-27.64-.07-55.28.09-82.92a9,9,0,0,1,2.52-5.53c9.73-10.24,19.66-20.3,29.5-30.44,4.11-4.23,4.48-8.21,1.14-11.35s-7-2.57-11,1.45c-6.33,6.41-12.58,12.89-18.89,19.31-.87.89-1.88,1.63-3.41,2.94,0-19,0-37,0-55,0-2,.28-4.63-.82-5.83a12.72,12.72,0,0,0-7-4.12c-3.16-.42-5.43,2-6,5.32a31,31,0,0,0-.21,5.11q0,46.59,0,93.17v4.73l-1.74.87a25.81,25.81,0,0,0-2.6-3.86c-6.89-7.15-13.87-14.23-20.82-21.33-2.41-2.46-5.5-3.82-8.31-1.7a10.58,10.58,0,0,0-3.82,6.71c-.18,1.82,1.74,4.19,3.27,5.79,10.31,10.77,20.84,21.32,31.07,32.16a11.37,11.37,0,0,1,2.82,6.82c.29,10.4.13,20.8.13,31.21v10c-5.25,0-9.88.21-14.5,0C49.15,295.14,27,271.81,26.91,240.85c0-16.77.32-33.55-.1-50.31-.4-16.45,4.26-30.87,13.44-44.57A72.25,72.25,0,0,0,50.9,121c2.17-10.5,1.89-21.55,2.15-32.38.6-25.26,18.5-46.23,42-48.75,25.54-2.73,47.9,12.34,53.27,36.88,1.77,8.06,1.52,16.65,1.46,25-.14,17.34,4.52,33,14.63,47.13A60.74,60.74,0,0,1,176,186.42c-.1,5.43-.17,10.88.07,16.3a6.81,6.81,0,0,0,7.33,6.79c3.73-.18,6.37-2.92,6.53-7.07.14-3.41-.12-6.84.07-10.24,1.14-20.15-4.36-38.16-16.13-54.63a46.09,46.09,0,0,1-8-18.6c-1.73-10.47-1.84-21.26-2-31.93-.57-30.23-22-55.35-52.23-60.85C83.18,21,54.18,37.74,43.33,65.35,39,76.51,38.73,88.1,39.17,99.74a66.62,66.62,0,0,1-13,42.74c-9,12.43-13.12,26.63-13.23,41.92-.13,19.56-.17,39.13,0,58.69a68,68,0,0,0,61.33,67.1c6.56.63,13.23.09,20.07.09v37c-2.43.33-4.71.68-7,.93C49.79,352.31,16.73,384.8,13,422.41c-1.4,14-.81,28.21-1,42.33-.09,5.73,2.68,9,7.18,8.84,4.3-.14,6.76-3.29,6.78-8.81,0-10.41-.06-20.81,0-31.21A72.93,72.93,0,0,1,81.54,363.5c4.1-1,8.36-1.35,13-2.07v6c0,14.9,0,29.81,0,44.72,0,4.69,2.87,7.76,6.83,7.79s6.8-3,7.11-7.67c.08-1.24,0-2.49,0-3.73V310.74c17.18.73,33.57-.56,48.34-9.79,3.87,17.55,15.66,26.56,34.15,25.23,6-.43,12-.07,18-.07V347.4H137.94a30.64,30.64,0,0,0-4.18.1c-3.91.55-6.63,3.71-6.23,7.4.42,3.9,2.73,6.28,6.69,6.42,5.43.19,10.87.06,16.31.07H163.7c-1.49,4.65-3.23,8.65-4,12.84-1.72,9.13-3.14,18.34-4.36,27.56-1.4,10.62,5.27,18,16,18.14,8.7.07,17.39,0,26.09,0a23.42,23.42,0,0,1,2.91.31c-2.37,4.5-5,8.59-6.75,13-3.94,9.76-7.51,19.68-11.15,29.57-1.77,4.79-.44,8.68,3.32,10.22,4.08,1.66,7.83-.3,9.73-5.28,3.42-9,6.76-18,10.13-27,5.53-14.76,14.23-20.86,29.91-20.86q63.82,0,127.64,0c15.75,0,24.45,6,30,20.76,3.49,9.28,6.86,18.6,10.44,27.85,1.67,4.29,5.55,6,9.34,4.54,3.53-1.37,5.09-5.15,3.8-9.29a27.35,27.35,0,0,0-1-2.61c-5.7-13.72-8.84-28.53-17.92-41.26,10.59,0,20.53.13,30.46,0s16.66-8,15.26-18c-1.37-9.67-2.91-19.32-4.37-29a7.66,7.66,0,0,0,.57-.57,19.72,19.72,0,0,1,2.88,1.41C463,388.1,474,407.66,474.92,432.59c.39,10.85.14,21.72.07,32.59,0,3.59,1,6.51,4.47,7.89C483.64,474.73,486.44,472.27,489,469.43ZM382.51,153.84a49.71,49.71,0,0,0,49.72-49.66c0-27.61-22.46-50.18-49.92-50.08a49.87,49.87,0,1,0,.2,99.74Z" transform="translate(-11 -11)"/><path class="cls-2" d="M439.2,372.93c1.46,9.66,3,19.31,4.37,29,1.4,10-5.22,17.83-15.26,18s-19.87,0-30.46,0c9.08,12.73,12.22,27.54,17.92,41.26a27.35,27.35,0,0,1,1,2.61c1.29,4.14-.27,7.92-3.8,9.29-3.79,1.48-7.67-.25-9.34-4.54-3.58-9.25-6.95-18.57-10.44-27.85C387.63,426,378.93,420,363.18,420q-63.81,0-127.64,0c-15.68,0-24.38,6.1-29.91,20.86-3.37,9-6.71,18-10.13,27-1.9,5-5.65,6.94-9.73,5.28-3.76-1.54-5.09-5.43-3.32-10.22,3.64-9.89,7.21-19.81,11.15-29.57,1.78-4.41,4.38-8.5,6.75-13a23.42,23.42,0,0,0-2.91-.31c-8.7,0-17.39,0-26.09,0-10.76-.09-17.43-7.52-16-18.14,1.22-9.22,2.64-18.43,4.36-27.56.79-4.19,2.53-8.19,4-12.84H150.53c-5.44,0-10.88.12-16.31-.07-4-.14-6.27-2.52-6.69-6.42-.4-3.69,2.32-6.85,6.23-7.4a30.64,30.64,0,0,1,4.18-.1H209.1V326.11c-6,0-12.06-.36-18,.07-18.49,1.33-30.28-7.68-34.15-25.23-14.77,9.23-31.16,10.52-48.34,9.79v97.77c0,1.24.06,2.49,0,3.73-.31,4.63-3.18,7.7-7.11,7.67s-6.8-3.1-6.83-7.79c-.07-14.91,0-29.82,0-44.72v-6c-4.69.72-9,1.09-13,2.07a72.93,72.93,0,0,0-55.61,70.06c-.08,10.4,0,20.8,0,31.21,0,5.52-2.48,8.67-6.78,8.81-4.5.14-7.27-3.11-7.18-8.84.21-14.12-.38-28.32,1-42.33,3.76-37.61,36.82-70.1,74.39-74.17,2.29-.25,4.57-.6,7-.93v-37c-6.84,0-13.51.54-20.07-.09A68,68,0,0,1,13,243.09c-.18-19.56-.14-39.13,0-58.69.11-15.29,4.27-29.49,13.23-41.92a66.62,66.62,0,0,0,13-42.74C38.73,88.1,39,76.51,43.33,65.35,54.18,37.74,83.18,21,111.63,26.19c30.24,5.5,51.66,30.62,52.23,60.85.21,10.67.32,21.46,2,31.93a46.09,46.09,0,0,0,8,18.6C185.65,154,191.15,172.05,190,192.2c-.19,3.4.07,6.83-.07,10.24-.16,4.15-2.8,6.89-6.53,7.07a6.81,6.81,0,0,1-7.33-6.79c-.24-5.42-.17-10.87-.07-16.3a60.74,60.74,0,0,0-11.64-37.53c-10.11-14.09-14.77-29.79-14.63-47.13.06-8.34.31-16.93-1.46-25C142.91,52.23,120.55,37.16,95,39.89c-23.46,2.52-41.36,23.49-42,48.75-.26,10.83,0,21.88-2.15,32.38a72.25,72.25,0,0,1-10.65,25c-9.18,13.7-13.84,28.12-13.44,44.57.42,16.76.07,33.54.1,50.31.06,31,22.24,54.29,53.18,55.88,4.62.24,9.25,0,14.5,0v-10c0-10.41.16-20.81-.13-31.21a11.37,11.37,0,0,0-2.82-6.82c-10.23-10.84-20.76-21.39-31.07-32.16-1.53-1.6-3.45-4-3.27-5.79a10.58,10.58,0,0,1,3.82-6.71c2.81-2.12,5.9-.76,8.31,1.7,6.95,7.1,13.93,14.18,20.82,21.33a25.81,25.81,0,0,1,2.6,3.86l1.74-.87v-4.73q0-46.59,0-93.17a31,31,0,0,1,.21-5.11c.54-3.33,2.81-5.74,6-5.32a12.72,12.72,0,0,1,7,4.12c1.1,1.2.82,3.84.82,5.83,0,18,0,36,0,55,1.53-1.31,2.54-2.05,3.41-2.94,6.31-6.42,12.56-12.9,18.89-19.31,4-4,7.76-4.47,11-1.45s3,7.12-1.14,11.35c-9.84,10.14-19.77,20.2-29.5,30.44a9,9,0,0,0-2.52,5.53c-.16,27.64-.11,55.28-.09,82.92a32.21,32.21,0,0,0,.31,3.23c22.08,1.91,41.43-2.63,55.68-20.84-10.49-14.93-9.5-30.06,2.4-40.35,5.69-4.92,12.4-6.82,19.77-6.83h22.69c0-5.83,0-11.23,0-16.63s2.69-8.67,6.95-8.68,7,3.29,7,8.64,0,10.81,0,16.43H375.38c0-5.29-.08-10.65,0-16,0-1.81,0-4.36,1.06-5.27,2-1.7,4.87-3.38,7.36-3.36,3.36,0,5.41,2.87,5.47,6.42.11,6,0,12,0,18.45,8.11,0,15.69-.13,23.27,0,17.66.36,29.86,13.09,28.85,30.06-.44,7.31-3.74,13.35-9.11,18.65,5.82,6.06,9.36,13,9.2,21.64-.28,14.59-11.93,26.75-26.5,27.17-8.35.24-16.72,0-25.38,0V347.4h12.25a86.93,86.93,0,0,1,82,57.8c2.13,6,3.38,12.38,5,18.58v45.65c-2.56,2.84-5.36,5.3-9.54,3.64-3.49-1.38-4.5-4.3-4.47-7.89.07-10.87.32-21.74-.07-32.59-.89-24.93-11.9-44.49-32.27-58.82a19.72,19.72,0,0,0-2.88-1.41l-.6-.58ZM299.26,312.12q56.6,0,113.19,0c8.89,0,15-5.55,15.09-13.59s-6.07-14.11-15-14.27c-3.41-.06-6.83.05-10.24,0-5-.11-8.2-2.9-8.13-7s3.26-6.84,8.29-7c4.19-.1,8.4.16,12.57-.16A13.65,13.65,0,0,0,426.41,251c-3.1-7-9.07-8.58-16.11-8.57q-110.87.09-221.72.06a31.79,31.79,0,0,0-6.48.51,13.72,13.72,0,0,0-9.9,18.36c2.33,6.06,7.14,8.9,15.3,8.9h177c7.4,0,10.91,2.37,10.76,7.25-.15,4.67-3.41,6.73-10.71,6.73H192.67c-2.48,0-5-.11-7.45,0-5.91.32-10.41,3-12.82,8.53-4.18,9.49,2.72,19.28,13.67,19.3Q242.67,312.19,299.26,312.12ZM168.82,406h214.8c13.82,0,27.64-.14,41.45.09,4.12.07,5.05-1.26,4.34-5.12-1.48-8.08-2.6-16.22-3.92-24.33a17.33,17.33,0,0,0-17.1-14.53c-39.42.15-78.85-.37-118.27-.53-32.28-.13-64.56-.11-96.85-.14-11.88,0-18.55,5.75-20.2,17.36-.13.92-.34,1.83-.49,2.75C171.36,389.42,170.14,397.33,168.82,406Zm54.86-58.82H375.16V326.35H223.68Z" transform="translate(-11 -11)"/><path class="cls-3" d="M382.51,153.84a49.87,49.87,0,1,1-.2-99.74c27.46-.1,49.95,22.47,49.92,50.08A49.71,49.71,0,0,1,382.51,153.84Zm0-14a35.87,35.87,0,0,0,0-71.73c-19.69-.15-36.14,16.35-36,36.16A35.9,35.9,0,0,0,382.52,139.85Z" transform="translate(-11 -11)"/><path class="cls-4" d="M299.26,312.12q-56.6,0-113.19,0c-10.95,0-17.85-9.81-13.67-19.3,2.41-5.49,6.91-8.21,12.82-8.53,2.48-.14,5,0,7.45,0H364.56c7.3,0,10.56-2.06,10.71-6.73.15-4.88-3.36-7.25-10.76-7.25h-177c-8.16,0-13-2.84-15.3-8.9A13.72,13.72,0,0,1,182.1,243a31.79,31.79,0,0,1,6.48-.51q110.86,0,221.72-.06c7,0,13,1.61,16.11,8.57A13.65,13.65,0,0,1,415,270.11c-4.17.32-8.38.06-12.57.16-5,.12-8.22,2.86-8.29,7s3.12,6.88,8.13,7c3.41.08,6.83,0,10.24,0,9,.16,15.17,6.08,15,14.27s-6.2,13.58-15.09,13.59Q355.86,312.15,299.26,312.12Z" transform="translate(-11 -11)"/><path class="cls-5" d="M168.82,406c1.32-8.62,2.54-16.53,3.76-24.45.15-.92.36-1.83.49-2.75,1.65-11.61,8.32-17.37,20.2-17.36,32.29,0,64.57,0,96.85.14,39.42.16,78.85.68,118.27.53a17.33,17.33,0,0,1,17.1,14.53c1.32,8.11,2.44,16.25,3.92,24.33.71,3.86-.22,5.19-4.34,5.12-13.81-.23-27.63-.09-41.45-.09H168.82Zm54.61-22.06a7,7,0,0,0-14-.68,7,7,0,0,0,6.62,7.43A7,7,0,0,0,223.43,383.89Zm165.92-.4a7,7,0,0,0-7.23-6.83,7,7,0,0,0,.35,14A6.89,6.89,0,0,0,389.35,383.49Z" transform="translate(-11 -11)"/><path class="cls-5" d="M223.68,347.13V326.35H375.16v20.78Z" transform="translate(-11 -11)"/><path class="cls-1" d="M439.2,372.93l0-1.15.6.58A7.66,7.66,0,0,1,439.2,372.93Z" transform="translate(-11 -11)"/><path class="cls-1" d="M382.52,139.85a35.9,35.9,0,0,1-36-35.57c-.1-19.81,16.35-36.31,36-36.16a35.87,35.87,0,0,1,0,71.73Z" transform="translate(-11 -11)"/><path class="cls-6" d="M223.43,383.89a7,7,0,0,1-7.34,6.75,7,7,0,0,1-6.62-7.43,7,7,0,0,1,14,.68Z" transform="translate(-11 -11)"/><path class="cls-7" d="M389.35,383.49a6.89,6.89,0,0,1-6.88,7.15,7,7,0,0,1-.35-14A7,7,0,0,1,389.35,383.49Z" transform="translate(-11 -11)"/></svg>