<svg id="Layer_1" data-name="Layer 1" xmlns="http://www.w3.org/2000/svg" viewBox="0 0 474 474"><defs><style>.cls-1{fill:#fefefe;}.cls-2{fill:#df2a2a;}.cls-3{fill:#fefdfd;}.cls-4{fill:#fefcfc;}.cls-5{fill:#fefbfb;}</style></defs><path class="cls-1" d="M106.32,487H13V13H487V487H390.91c5.18-2.56,6.66-6.76,6.65-12.44q-.21-110.87-.1-221.74v-5.89h5c11.7,0,23.4,0,35.11,0,24.41-.1,41.12-16.85,41.14-41.29q0-75.3,0-150.6c0-24-17-41.07-40.93-41.09q-69.08-.07-138.13,0C276.26,14,259,31.05,259,54.41q-.17,76,0,152c.05,23.48,17.08,40.35,40.58,40.52,12,.08,24,0,36,0h4.33v77.44c-.82-1-1.2-1.39-1.53-1.84Q324.47,303.26,310.57,284c-11.64-16.18-27.51-24.06-47.36-24.08q-36.72,0-73.45,0-28.93,0-46.56,23c-12.89,16.88-26.31,33.38-38.63,50.67-5.78,8.11-11.78,11.46-22.12,11.35-28.76-.31-55,20.34-59.83,48.6-3,17.69-1.75,36.15-2,54.27-.07,4.52,4.05,7.66,8.79,7.82,4.3.15,8.62.05,12.93.05h32.1c4.8,16,14.79,26.09,30.54,30.35C105.47,486.14,105.87,486.66,106.32,487Z" transform="translate(-13 -13)"/><path class="cls-2" d="M106.32,487c-.45-.34-.85-.86-1.35-1-15.75-4.26-25.74-14.37-30.54-30.35H42.33c-4.31,0-8.63.1-12.93-.05-4.74-.16-8.86-3.3-8.79-7.82.26-18.12-1-36.58,2-54.27,4.82-28.26,31.07-48.91,59.83-48.6,10.34.11,16.34-3.24,22.12-11.35,12.32-17.29,25.74-33.79,38.63-50.67q17.61-23.06,46.56-23,36.72-.06,73.45,0c19.85,0,35.72,7.9,47.36,24.08q13.89,19.31,27.79,38.58c.33.45.71.86,1.53,1.84V246.93h-4.33c-12,0-24,.07-36,0-23.5-.17-40.53-17-40.58-40.52q-.15-76,0-152C259,31.05,276.26,14,299.62,13.94q69.06-.09,138.13,0C461.7,14,478.66,31,478.68,55q.06,75.3,0,150.6c0,24.44-16.73,41.19-41.14,41.29-11.71.05-23.41,0-35.11,0h-5v5.89q0,110.88.1,221.74c0,5.68-1.47,9.88-6.65,12.44H346.56c-4.89-2.78-6.87-6.88-6.52-12.57.38-6.09.08-12.22.08-18.77H310c-7,18.67-13.67,24.93-32.29,30.63-.21.07-.32.47-.47.71H262.47a29.37,29.37,0,0,0-3.57-1.64c-13.42-4.14-22.61-12.8-27.15-26.05-1.08-3.16-2.61-3.73-5.58-3.72-22.77.12-45.55.06-68.32.08-1.35,0-2.7.12-3.93.18-5.11,16.47-15.53,26.86-32.32,30.46-.21,0-.33.45-.49.69ZM460.2,130.47q0-37.62,0-75.25c0-14.1-8.66-22.8-22.67-22.81q-68.79,0-137.59,0c-13.68,0-22.51,8.79-22.52,22.53q-.07,75.48,0,151c0,13.79,8.74,22.5,22.49,22.51q68.81.06,137.59,0c14.15,0,22.69-8.58,22.71-22.7Q460.23,168.11,460.2,130.47ZM119.77,344.23H330.86a19.69,19.69,0,0,0-1.07-1.94C318.2,326.17,306.66,310,295,294c-7.71-10.59-18.34-15.6-31.36-15.62q-36.94,0-73.91,0c-13.2,0-23.76,5.2-31.79,15.75-11.75,15.43-23.64,30.75-35.45,46.13C121.59,341.38,120.84,342.64,119.77,344.23Zm68.69,92.83V363.25a19,19,0,0,0-2-.2c-34.65,0-69.29-.19-103.93.13-19.72.18-37.67,13.74-41.56,33.09-2.65,13.19-2,27.06-2.83,40.77H74.35c7.83-20.32,21-30.76,39.22-31.06a39.8,39.8,0,0,1,22.72,6.55c9,5.86,14.64,14.24,17.56,24.53Zm41.89,0c6.19-18.86,18.68-30.27,38.38-30.86,21.22-.64,34.65,11,41.2,30.65h29.92v-73.6H207.58v73.81ZM358.9,247.17v221h19.86v-221ZM292.23,446.7A22.14,22.14,0,0,0,270,424.41c-12,.09-22.13,10.19-22.1,22.1a22.32,22.32,0,0,0,22.14,22A22,22,0,0,0,292.23,446.7Zm-178.1,21.81a22.05,22.05,0,1,0-22-22A22.17,22.17,0,0,0,114.13,468.51Z" transform="translate(-13 -13)"/><path class="cls-3" d="M121.11,487c.16-.24.28-.65.49-.69,16.79-3.6,27.21-14,32.32-30.46,1.23-.06,2.58-.18,3.93-.18,22.77,0,45.55,0,68.32-.08,3,0,4.5.56,5.58,3.72,4.54,13.25,13.73,21.91,27.15,26.05a29.37,29.37,0,0,1,3.57,1.64Z" transform="translate(-13 -13)"/><path class="cls-4" d="M277.26,487c.15-.24.26-.64.47-.71,18.62-5.7,25.28-12,32.29-30.63h30.1c0,6.55.3,12.68-.08,18.77-.35,5.69,1.63,9.79,6.52,12.57Z" transform="translate(-13 -13)"/><path class="cls-3" d="M460.2,130.47q0,37.64,0,75.26c0,14.12-8.56,22.69-22.71,22.7q-68.79,0-137.59,0c-13.75,0-22.47-8.72-22.49-22.51q-.06-75.48,0-151c0-13.74,8.84-22.53,22.52-22.53q68.79,0,137.59,0c14,0,22.65,8.71,22.67,22.81Q460.23,92.84,460.2,130.47ZM358.61,146.22c8.13,0,15.81.4,23.44-.08A38.54,38.54,0,0,0,418,108.9c.69-19.76-13.57-37.25-33.31-39.48-10.65-1.2-21.5-.69-32.27-.8-9.17-.09-12.26,3-12.27,12.12v98.38c0,8.54,3.4,13.23,9.47,13.09s9-4.42,9-13Z" transform="translate(-13 -13)"/><path class="cls-4" d="M119.77,344.23c1.07-1.59,1.82-2.85,2.7-4,11.81-15.38,23.7-30.7,35.45-46.13,8-10.55,18.59-15.75,31.79-15.75q37,0,73.91,0c13,0,23.65,5,31.36,15.62,11.68,16,23.22,32.2,34.81,48.32a19.69,19.69,0,0,1,1.07,1.94Z" transform="translate(-13 -13)"/><path class="cls-1" d="M188.46,437.06H153.85c-2.92-10.29-8.53-18.67-17.56-24.53A39.8,39.8,0,0,0,113.57,406c-18.27.3-31.39,10.74-39.22,31.06H38.1c.83-13.71.18-27.58,2.83-40.77,3.89-19.35,21.84-32.91,41.56-33.09,34.64-.32,69.28-.12,103.93-.13a19,19,0,0,1,2,.2Z" transform="translate(-13 -13)"/><path class="cls-3" d="M230.35,437.06H207.58V363.25H339.85v73.6H309.93c-6.55-19.63-20-31.29-41.2-30.65C249,406.79,236.54,418.2,230.35,437.06Z" transform="translate(-13 -13)"/><path class="cls-3" d="M358.9,247.17h19.86v221H358.9Z" transform="translate(-13 -13)"/><path class="cls-4" d="M292.23,446.7a22,22,0,0,1-22.18,21.81,22.32,22.32,0,0,1-22.14-22c0-11.91,10.07-22,22.1-22.1A22.14,22.14,0,0,1,292.23,446.7Z" transform="translate(-13 -13)"/><path class="cls-4" d="M114.13,468.51a22.05,22.05,0,0,1-.1-44.1,22.05,22.05,0,1,1,.1,44.1Z" transform="translate(-13 -13)"/><path class="cls-2" d="M358.61,146.22v33c0,8.55-3,12.84-9,13s-9.47-4.55-9.47-13.09V80.74c0-9.07,3.1-12.21,12.27-12.12,10.77.11,21.62-.4,32.27.8,19.74,2.23,34,19.72,33.31,39.48a38.54,38.54,0,0,1-35.92,37.24C374.42,146.62,366.74,146.22,358.61,146.22Zm.24-59.12v40.81c6.78,0,13.35.18,19.9,0,11.91-.4,20.79-9.18,20.79-20.3s-9-20-20.77-20.43C372.32,86.91,365.86,87.1,358.85,87.1Z" transform="translate(-13 -13)"/><path class="cls-5" d="M358.85,87.1c7,0,13.47-.19,19.92.05,11.81.44,20.77,9.38,20.77,20.43s-8.88,19.9-20.79,20.3c-6.55.21-13.12,0-19.9,0Z" transform="translate(-13 -13)"/></svg>