<svg id="Layer_1" data-name="Layer 1" xmlns="http://www.w3.org/2000/svg" viewBox="0 0 474 474"><defs><style>.cls-1{fill:#fefefe;}.cls-2{fill:#df2a2a;}.cls-3{fill:#e02b2b;}.cls-4{fill:#e02c2c;}.cls-5{fill:#fefdfd;}.cls-6{fill:#fefcfc;}.cls-7{fill:#fdf6f6;}.cls-8{fill:#e02d2d;}</style></defs><path class="cls-1" d="M13,296.66V13H487V487H13V449.12c3.06,5,7.58,6.26,13.23,6.26q199.34-.15,398.65-.09c1.7,0,3.4,0,5.08-.11,12.86-1.07,22.85-8.86,26.29-20.49a26.86,26.86,0,0,0-2.64-21.93c.2-.45.22-.65.33-.72,1.14-.78,2.29-1.54,3.44-2.29,14.64-9.56,24.37-22.85,27.28-40,1.76-10.37,1.16-21.15,1.37-31.75.12-6.33-3.74-10.26-9.4-10.16-5.42.1-8.95,4-9,10.1-.08,6.77.16,13.55-.06,20.32-.51,15.2-7.11,27.12-19.75,35.64-.92.62-2,1-3.74,1.93,3.41-37.77-7-69.27-37-92.11,1.35-6.85,2.52-13.33,4-19.75a7.6,7.6,0,0,1,2.69-3.89c4.25-3.3,8.8-6.22,13-9.55,10.43-8.22,12.48-21.6,5-32.49-3.14-4.56-6.5-9-9.91-13.34-8-10.25-18.44-15.22-31.61-15.12-27.71.23-55.43.17-83.14,0-12.2-.06-22.23,4.23-29.93,13.66q-5.55,6.8-10.64,13.94c-8.37,11.72-6.13,25.48,5.48,34.15C276,274.29,280.1,277,284,280a8.46,8.46,0,0,1,2.8,4.33c1.46,6.26,2.58,12.59,3.36,16.48l-18,20.19c1-60.72-27.56-98.94-87.41-113.35a14.3,14.3,0,0,1,1-1.62c9.78-11.55,14.2-24.92,14-40q-.3-18.26.08-36.49a8.42,8.42,0,0,1,2.75-5.58c9.44-7.94,16.19-17.64,17.44-30,1.11-11,.77-22.12.91-33.18.09-7.75-3.18-11.09-10.83-11.1-26.49,0-53-.2-79.46,0S85.14,69.36,85.08,95.88c-.06,24.17,0,48.35,0,72.52a57,57,0,0,0,13,36.63c.79,1,1.45,2.05,2.33,3.31-44.36,8-75.66,37.13-85.12,78.69C14.57,290.25,13.77,293.45,13,296.66Zm394.77-210c-.16-31-31.7-50.59-57.07-35-1,.63-3.17.26-4.38-.4-17.9-9.66-38.15-4.71-49.44,12.19-10.39,15.56-9.13,33.21,3.66,50,10,13.09,22.21,23.82,35.26,33.68s13.24,10,26.43-.18c14.2-10.91,27.69-22.57,37.79-37.57C404.61,102.55,408,95.17,407.77,86.63Zm78.29,213.55a9.22,9.22,0,0,0-18.44.07,9.22,9.22,0,1,0,18.44-.07Z" transform="translate(-13 -13)"/><path class="cls-2" d="M13,296.66c.77-3.21,1.57-6.41,2.3-9.63,9.46-41.56,40.76-70.7,85.12-78.69-.88-1.26-1.54-2.33-2.33-3.31a57,57,0,0,1-13-36.63c0-24.17,0-48.35,0-72.52.06-26.52,19-45.85,45.5-46.09s53-.09,79.46,0c7.65,0,10.92,3.35,10.83,11.1-.14,11.06.2,22.2-.91,33.18-1.25,12.32-8,22-17.44,30a8.42,8.42,0,0,0-2.75,5.58q-.36,18.23-.08,36.49c.24,15.08-4.18,28.45-14,40a14.3,14.3,0,0,0-1,1.62C244.53,222.09,273,260.31,272.09,321l18-20.19c-.78-3.89-1.9-10.22-3.36-16.48A8.46,8.46,0,0,0,284,280c-3.85-3.06-8-5.74-11.95-8.68-11.61-8.67-13.85-22.43-5.48-34.15q5.09-7.12,10.64-13.94c7.7-9.43,17.73-13.72,29.93-13.66,27.71.14,55.43.2,83.14,0,13.17-.1,23.59,4.87,31.61,15.12,3.41,4.36,6.77,8.78,9.91,13.34,7.49,10.89,5.44,24.27-5,32.49-4.23,3.33-8.78,6.25-13,9.55A7.6,7.6,0,0,0,411,284c-1.47,6.42-2.64,12.9-4,19.75,30,22.84,40.42,54.34,37,92.11,1.76-.9,2.82-1.31,3.74-1.93,12.64-8.52,19.24-20.44,19.75-35.64.22-6.77,0-13.55.06-20.32.07-6.13,3.6-10,9-10.1,5.66-.1,9.52,3.83,9.4,10.16-.21,10.6.39,21.38-1.37,31.75-2.91,17.16-12.64,30.45-27.28,40-1.15.75-2.3,1.51-3.44,2.29-.11.07-.13.27-.33.72a26.86,26.86,0,0,1,2.64,21.93c-3.44,11.63-13.43,19.42-26.29,20.49-1.68.14-3.38.11-5.08.11q-199.32,0-398.65.09c-5.65,0-10.17-1.3-13.23-6.26ZM208.88,436.57V378.26c0-14.32,0-28.64,0-43,0-7.06,4.82-11.28,11.18-10.07,4.69.9,7.28,4.65,7.28,10.77q0,47.81,0,95.62v4.81h14.31c-.11-.81-.13-1.25-.23-1.67-3-11.95-.14-21.83,10-29.39,1.14-.85,1.71-3.1,1.72-4.71.09-31,.19-61.9,0-92.85a82.45,82.45,0,0,0-57.85-77.94c-1.26-.39-2.58-.61-3.83-.9-10,29.8-24.79,43-48.75,43.29a47.28,47.28,0,0,1-27.82-8.47c-12.2-8.37-19-20.14-21.42-35-1.82.47-3.28.78-4.7,1.23a82.44,82.44,0,0,0-57.3,77.89c-.13,41.57,0,83.15,0,124.73,0,1.31.19,2.62.29,3.9H57.35v-5.23c0-19.71,0-39.42,0-59.13,0-6.89,4.52-11,10.78-10.06,4.82.71,7.66,4.48,7.67,10.41q0,29.57,0,59.13v4.89Zm156.54,0a3.62,3.62,0,0,0,.09-1.1c-3.57-12.79-.16-23,11.11-30.4,1.19-.78,2-3,2-4.54.18-10.31.14-20.63.07-30.94,0-3.88,1.34-6.93,4.76-8.85,6.33-3.55,13.53,1,13.69,8.81.2,9.85-.48,19.74.2,29.54.7,10-1.15,17.81-11.28,22.14-3.88,1.66-4.26,5.32-2.67,9.09a9.76,9.76,0,0,0,9.36,6.36c12,.15,24,.2,36,0a10,10,0,0,0,9.83-7.65c1.37-4.8-1.21-7.55-4.91-9.78-.66-.4-1.21-1-1.87-1.35-4.28-2.5-6-6.15-5.89-11.14.21-10.61.42-21.25-.06-31.85-1-22.44-10.62-40.66-28.24-55.1-12.46,15.88-28.34,25.34-48.63,25.4-20.46.06-36.44-9.48-48.92-25.35-13.81,11-23.51,24.62-26.21,41.57-2.18,13.7-2.08,27.86-2,41.81.06,7.67-2,13.08-8.78,16.68-3.28,1.75-5.07,4.51-4.19,8.39s3.1,6.72,7,7.83a20.89,20.89,0,0,0,5.47.64q15.48.09,30.94,0a20.84,20.84,0,0,0,5.47-.63c4.11-1.14,6.41-4.11,7.17-8.2.72-3.85-1.66-6-4.65-7.66-1.47-.84-2.82-1.88-4.29-2.72-3.85-2.18-5.59-5.47-5.58-9.87.05-12.47,0-24.94,0-37.4,0-6.52,4-10.87,9.5-10.74s8.91,4.22,8.94,10.69c.06,9.85.14,19.71-.06,29.55a6.43,6.43,0,0,0,3.41,6.3c8.2,5.3,11.81,13.11,11.18,22.8a69.17,69.17,0,0,1-1.35,7.68ZM304.93,277.08l-1.13.34c2,7.5,3.11,15.39,6.19,22.42,13.08,29.85,48.87,36,69.85,12.42,16.68-18.77,17.23-49.06,1.24-68.41-17.15-20.76-45.69-21.27-63.49-1C309,252.58,305.29,264.24,304.93,277.08ZM103.57,134.26c0,12-.16,23.68,0,35.34.34,20,15.76,36.1,35.87,37.76,19.64,1.63,38.25-11.92,40.62-31.62,1.63-13.58.32-27.52.32-41.48Zm.05-18.74c24.32,0,48.16.31,72-.13,12-.23,23.37-9.91,25.6-21.8,1.52-8.17,1.14-16.7,1.61-25.18-26,0-51.12-.36-76.19.16-12,.24-22.25,11.48-22.93,23.84C103.28,99.91,103.62,107.45,103.62,115.52Zm8.59,110.88c1.91,16,15,27.71,30.47,27.41s28.55-12.17,29.7-27.41Zm298.37,33.1c1.29-1,3.9-2.12,5.22-4.12,1.11-1.68,1.74-5,.79-6.46a159,159,0,0,0-12.74-16.32,12.21,12.21,0,0,0-10-4.28C399.37,238.58,404.89,248.87,410.58,259.5ZM304.54,227c-4,2.12-8.25,3.28-10.92,6a103.64,103.64,0,0,0-12.48,15.92c-.95,1.42-.32,4.78.79,6.46,1.31,2,3.92,3.15,5.22,4.11Z" transform="translate(-13 -13)"/><path class="cls-3" d="M407.77,86.63c.22,8.54-3.16,15.92-7.75,22.76-10.1,15-23.59,26.66-37.79,37.57C349,157.1,349,157.1,335.8,147.14s-25.3-20.59-35.26-33.68c-12.79-16.79-14.05-34.44-3.66-50,11.29-16.9,31.54-21.85,49.44-12.19,1.21.66,3.36,1,4.38.4C376.07,36,407.61,55.65,407.77,86.63ZM348.83,134c12.5-9.46,24.11-19.28,33.39-31.51a45.18,45.18,0,0,0,6.1-10.75c3.15-8.14-1.2-19.2-9-24.14-7.16-4.53-15.59-3.62-22,2.38-6.67,6.21-10.15,6.22-16.83,0-8.24-7.64-19.69-6.86-26.82,1.84-6.42,7.84-7,17.45-1.08,26.46C322,112.66,335.11,123.35,348.83,134Z" transform="translate(-13 -13)"/><path class="cls-4" d="M486.06,300.18a9.22,9.22,0,1,1-18.44.07,9.22,9.22,0,0,1,18.44-.07Z" transform="translate(-13 -13)"/><path class="cls-5" d="M208.88,436.57h-133v-4.89q0-29.56,0-59.13c0-5.93-2.85-9.7-7.67-10.41-6.26-.92-10.76,3.17-10.78,10.06-.06,19.71,0,39.42,0,59.13v5.23H31.79c-.1-1.28-.29-2.59-.29-3.9,0-41.58-.11-83.16,0-124.73A82.44,82.44,0,0,1,88.82,230c1.42-.45,2.88-.76,4.7-1.23,2.39,14.84,9.22,26.61,21.42,35a47.28,47.28,0,0,0,27.82,8.47c24-.29,38.77-13.49,48.75-43.29,1.25.29,2.57.51,3.83.9a82.45,82.45,0,0,1,57.85,77.94c.16,30.95.06,61.9,0,92.85,0,1.61-.58,3.86-1.72,4.71-10.13,7.56-13,17.44-10,29.39.1.42.12.86.23,1.67H227.37v-4.81q0-47.81,0-95.62c0-6.12-2.59-9.87-7.28-10.77-6.36-1.21-11.15,3-11.18,10.07-.07,14.32,0,28.64,0,43v58.31ZM66.49,325.06a9.09,9.09,0,0,0-9.13,9,9.23,9.23,0,1,0,18.46.27A9.09,9.09,0,0,0,66.49,325.06Z" transform="translate(-13 -13)"/><path class="cls-6" d="M365.42,436.59H332.15a69.17,69.17,0,0,0,1.35-7.68c.63-9.69-3-17.5-11.18-22.8a6.43,6.43,0,0,1-3.41-6.3c.2-9.84.12-19.7.06-29.55,0-6.47-3.52-10.56-8.94-10.69s-9.46,4.22-9.5,10.74c-.07,12.46,0,24.93,0,37.4,0,4.4,1.73,7.69,5.58,9.87,1.47.84,2.82,1.88,4.29,2.72,3,1.7,5.37,3.81,4.65,7.66-.76,4.09-3.06,7.06-7.17,8.2a20.84,20.84,0,0,1-5.47.63q-15.47.07-30.94,0a20.89,20.89,0,0,1-5.47-.64c-3.91-1.11-6.13-4-7-7.83s.91-6.64,4.19-8.39c6.77-3.6,8.84-9,8.78-16.68-.11-13.95-.21-28.11,2-41.81,2.7-16.95,12.4-30.54,26.21-41.57,12.48,15.87,28.46,25.41,48.92,25.35,20.29-.06,36.17-9.52,48.63-25.4,17.62,14.44,27.23,32.66,28.24,55.1.48,10.6.27,21.24.06,31.85-.1,5,1.61,8.64,5.89,11.14.66.39,1.21,1,1.87,1.35,3.7,2.23,6.28,5,4.91,9.78a10,10,0,0,1-9.83,7.65c-12,.22-24,.17-36,0a9.76,9.76,0,0,1-9.36-6.36c-1.59-3.77-1.21-7.43,2.67-9.09,10.13-4.33,12-12.16,11.28-22.14-.68-9.8,0-19.69-.2-29.54-.16-7.84-7.36-12.36-13.69-8.81-3.42,1.92-4.78,5-4.76,8.85.07,10.31.11,20.63-.07,30.94,0,1.56-.84,3.76-2,4.54-11.27,7.44-14.68,17.61-11.11,30.4A3.62,3.62,0,0,1,365.42,436.59Z" transform="translate(-13 -13)"/><path class="cls-6" d="M304.93,277.08c.36-12.84,4.06-24.5,12.66-34.27,17.8-20.23,46.34-19.72,63.49,1,16,19.35,15.44,49.64-1.24,68.41-21,23.61-56.77,17.43-69.85-12.42-3.08-7-4.18-14.92-6.19-22.42Zm44.06,14c-3.08,0-6.16,0-9.24,0a8.54,8.54,0,0,0-8.14,5.06,8.67,8.67,0,0,0,1.1,9.94c3.08,3.64,6.25,7.23,9.63,10.58,3.67,3.63,8.81,3.92,12.48.46a89.74,89.74,0,0,0,10.54-11.6c4.47-6,.38-14-7.13-14.41C355.16,290.92,352.07,291.06,349,291.06Zm-21.47-27a9.21,9.21,0,0,0-9.33,8.92,9.43,9.43,0,0,0,9.4,9.4,9.13,9.13,0,0,0,9-9.24A9,9,0,0,0,327.52,264Zm36.74,0a9.2,9.2,0,0,0-9.12,9.14,9.38,9.38,0,0,0,9.18,9.16,9.11,9.11,0,0,0,9.2-9.45A8.92,8.92,0,0,0,364.26,264.05Z" transform="translate(-13 -13)"/><path class="cls-5" d="M103.57,134.26h76.85c0,14,1.31,27.9-.32,41.48-2.37,19.7-21,33.25-40.62,31.62-20.11-1.66-35.53-17.79-35.87-37.76C103.41,157.94,103.57,146.27,103.57,134.26Z" transform="translate(-13 -13)"/><path class="cls-1" d="M103.62,115.52c0-8.07-.34-15.61.08-23.11.68-12.36,10.94-23.6,22.93-23.84,25.07-.52,50.15-.16,76.19-.16-.47,8.48-.09,17-1.61,25.18-2.23,11.89-13.62,21.57-25.6,21.8C151.78,115.83,127.94,115.52,103.62,115.52Z" transform="translate(-13 -13)"/><path class="cls-6" d="M112.21,226.4h60.17c-1.15,15.24-14.12,27.11-29.7,27.41S114.12,242.45,112.21,226.4Z" transform="translate(-13 -13)"/><path class="cls-7" d="M410.58,259.5c-5.69-10.63-11.21-20.92-16.71-31.18a12.21,12.21,0,0,1,10,4.28,159,159,0,0,1,12.74,16.32c1,1.41.32,4.78-.79,6.46C414.48,257.38,411.87,258.54,410.58,259.5Z" transform="translate(-13 -13)"/><path class="cls-7" d="M304.54,227l-17.39,32.48c-1.3-1-3.91-2.11-5.22-4.11-1.11-1.68-1.74-5-.79-6.46A103.64,103.64,0,0,1,293.62,233C296.29,230.29,300.53,229.13,304.54,227Z" transform="translate(-13 -13)"/><path class="cls-5" d="M348.83,134C335.11,123.35,322,112.66,312.56,98.3c-5.93-9-5.34-18.62,1.08-26.46,7.13-8.7,18.58-9.48,26.82-1.84,6.68,6.19,10.16,6.18,16.83,0,6.44-6,14.87-6.91,22-2.38,7.8,4.94,12.15,16,9,24.14a45.18,45.18,0,0,1-6.1,10.75C372.94,114.71,361.33,124.53,348.83,134Z" transform="translate(-13 -13)"/><path class="cls-8" d="M66.49,325.06a9.09,9.09,0,0,1,9.33,9.24A9.23,9.23,0,1,1,57.36,334,9.09,9.09,0,0,1,66.49,325.06Z" transform="translate(-13 -13)"/><path class="cls-3" d="M349,291.06c3.08,0,6.17-.14,9.24,0,7.51.41,11.6,8.39,7.13,14.41a89.74,89.74,0,0,1-10.54,11.6c-3.67,3.46-8.81,3.17-12.48-.46-3.38-3.35-6.55-6.94-9.63-10.58a8.67,8.67,0,0,1-1.1-9.94,8.54,8.54,0,0,1,8.14-5.06C342.83,291,345.91,291.06,349,291.06Z" transform="translate(-13 -13)"/><path class="cls-4" d="M327.52,264a9,9,0,0,1,9.05,9.08,9.13,9.13,0,0,1-9,9.24,9.43,9.43,0,0,1-9.4-9.4A9.21,9.21,0,0,1,327.52,264Z" transform="translate(-13 -13)"/><path class="cls-4" d="M364.26,264.05a8.92,8.92,0,0,1,9.26,8.85,9.11,9.11,0,0,1-9.2,9.45,9.38,9.38,0,0,1-9.18-9.16A9.2,9.2,0,0,1,364.26,264.05Z" transform="translate(-13 -13)"/></svg>