<svg id="Layer_1" data-name="Layer 1" xmlns="http://www.w3.org/2000/svg" viewBox="0 0 500 500"><defs><style>.cls-1{fill:#fefefe;}.cls-2{fill:#df2929;}.cls-3{fill:#fefcfc;}.cls-4{fill:#e02d2d;}.cls-5{fill:#df2a2a;}.cls-6{fill:#e02b2b;}.cls-7{fill:#fdfafa;}</style></defs><path class="cls-1" d="M500,140.63V500H0V140.63A39.13,39.13,0,0,1,1.74,145c4.73,17.15,15.68,28.44,32.36,34.22,3.45,1.2,7.14,1.72,10.82,2.57,0,15.49.06,30.61,0,45.74-.17,37,7.89,72.09,26.78,104,38,64.17,94.6,99.58,169.05,103.63,58.73,3.2,109.9-16.88,152.25-57.85,34.12-33,54.72-73.38,60-120.6,2.41-21.57,1.52-43.51,2.1-65.29.08-3.21,0-6.42,0-9.64,1.52-.39,2.6-.77,3.71-.93,12.85-1.95,23.58-7.92,30.8-18.6C494,155.65,496.59,147.86,500,140.63Z"/><path class="cls-2" d="M500,140.63c-3.41,7.23-6,15-10.41,21.56-7.22,10.68-17.95,16.65-30.8,18.6-1.11.16-2.19.54-3.71.93,0,3.22.07,6.43,0,9.64-.58,21.78.31,43.72-2.1,65.29-5.26,47.22-25.86,87.6-60,120.6-42.35,41-93.52,61.05-152.25,57.85-74.45-4.05-131-39.46-169-103.63-18.89-31.89-26.95-67-26.78-104,.07-15.13,0-30.25,0-45.74-3.68-.85-7.37-1.37-10.82-2.57C17.42,173.4,6.47,162.11,1.74,145A39.13,39.13,0,0,0,0,140.63V70.3c4.13-5.2,9.64-6,16-6q234.93.18,469.84,0c6.17,0,11.1,1.26,14.2,6.93ZM357.42,380.72l1.19.76c7.26-6.38,14.9-12.36,21.7-19.19,31.94-32.07,50.75-70.6,54.16-115.83,1.58-21.05.76-42.28,1-63.43,0-.42-.35-.84-.49-1.16H63.91c.58,23.44-.37,46.81,2.06,69.82,4.82,45.73,25.27,84.25,58.86,115.66,5.34,5,11.27,9.35,17.75,14.67,0-24.75,0-48,0-71.29a110.72,110.72,0,0,1,17.36-60.52c25.53-40.58,79.36-59.39,124.49-43.24,45,16.08,72.84,55.46,73,103.17.07,22,0,43.95,0,65.93ZM480.3,84.3H19.82a7.77,7.77,0,0,0-.25,1.24q0,21.74,0,43.46c0,21.36,11.8,33.11,33.26,33.11H447.27c2,0,3.91,0,5.86-.1,11.62-.77,22.22-8.94,25-19.48h-146c-8.91,0-13.67-3.33-13.76-9.61-.1-6.45,4.74-9.87,14-9.88H480.3ZM337.89,346.56h-.17c0-14.32.51-28.67-.09-43-1.85-43.82-38.67-80.53-82.46-82.7-51.15-2.52-92.71,36.91-93,88.46-.17,26.86,0,53.72-.1,80.57,0,3,.84,4.55,3.62,5.89q84.32,40.74,168.59,0C337,394.53,338,393.08,338,390,337.8,375.53,337.89,361.05,337.89,346.56Z"/><path class="cls-1" d="M500,71.28c-3.1-5.67-8-6.94-14.2-6.93q-234.92.16-469.84,0c-6.32,0-11.83.76-16,6V0H500Z"/><path class="cls-1" d="M357.42,380.72v-4.65c0-22,.06-44,0-65.93-.15-47.71-28-87.09-73-103.17-45.13-16.15-99,2.66-124.49,43.24a110.72,110.72,0,0,0-17.36,60.52c0,23.27,0,46.54,0,71.29-6.48-5.32-12.41-9.68-17.75-14.67-33.59-31.41-54-69.93-58.86-115.66-2.43-23-1.48-46.38-2.06-69.82H435c.14.32.5.74.49,1.16-.24,21.15.58,42.38-1,63.43-3.41,45.23-22.22,83.76-54.16,115.83-6.8,6.83-14.44,12.81-21.7,19.19Z"/><path class="cls-1" d="M480.3,84.3V123H332.4c-9.23,0-14.07,3.43-14,9.88.09,6.28,4.85,9.61,13.76,9.61h146c-2.8,10.54-13.4,18.71-25,19.48-1.95.13-3.9.1-5.86.1H52.8c-21.46,0-33.26-11.75-33.26-33.11q0-21.73,0-43.46a7.77,7.77,0,0,1,.25-1.24ZM298.77,132.82a9.71,9.71,0,1,0-9.6,9.7A10,10,0,0,0,298.77,132.82Z"/><path class="cls-3" d="M337.89,346.56c0,14.49-.09,29,.08,43.46,0,3.06-1,4.51-3.72,5.83q-84.33,40.75-168.59,0c-2.78-1.34-3.64-2.88-3.62-5.89.12-26.85-.07-53.71.1-80.57.32-51.55,41.88-91,93-88.46,43.79,2.17,80.61,38.88,82.46,82.7.6,14.3.09,28.65.09,43ZM318.35,308.4a68.35,68.35,0,0,0-136.7.21c0,37.71,31,68.61,68.7,68.38A68.59,68.59,0,0,0,318.35,308.4Z"/><path class="cls-4" d="M298.77,132.82a9.71,9.71,0,1,1-9.57-9.72A10,10,0,0,1,298.77,132.82Z"/><path class="cls-5" d="M318.35,308.4a68.59,68.59,0,0,1-68,68.59c-37.66.23-68.71-30.67-68.7-68.38a68.35,68.35,0,0,1,136.7-.21Zm-68.27,49.06c26.52,0,48.77-22.37,48.74-48.91s-22.36-48.79-48.9-48.75-48.77,22.36-48.74,48.9S223.54,357.49,250.08,357.46Z"/><path class="cls-3" d="M250.08,357.46c-26.54,0-48.87-22.23-48.9-48.76s22.22-48.87,48.74-48.9,48.87,22.23,48.9,48.75S276.6,357.42,250.08,357.46Zm-.16-19.56a29.27,29.27,0,1,0-29.19-29.23A29.53,29.53,0,0,0,249.92,337.9Z"/><path class="cls-6" d="M249.92,337.9a29.27,29.27,0,1,1,29.35-29.07A29.55,29.55,0,0,1,249.92,337.9Zm-.08-19.57a9.7,9.7,0,1,0-9.54-9.86A10.06,10.06,0,0,0,249.84,318.33Z"/><path class="cls-7" d="M249.84,318.33a9.7,9.7,0,1,1,9.86-9.54A10,10,0,0,1,249.84,318.33Z"/></svg>