<svg id="Layer_1" data-name="Layer 1" xmlns="http://www.w3.org/2000/svg" viewBox="0 0 512 512"><defs><style>.cls-1{fill:#fefefe;}.cls-2{fill:#fefdfd;}.cls-3{fill:#df2a2a;}.cls-4{fill:#e02e2e;}.cls-5{fill:#fefcfc;}.cls-6{fill:#e02b2b;}</style></defs><path class="cls-1" d="M236-6H506V506H193c7.42-1.41,14.92-2.48,22.24-4.28,31-7.66,57.65-22.94,79.38-46.47a9.52,9.52,0,0,1,7.77-3.31q81,.13,162,.06c1.66,0,3.34.08,5-.08,5.4-.55,9.07-3.9,9.55-9.23,2.59-28.61-12.28-50.89-38.44-57.52a8.68,8.68,0,0,1-5-4.45c-3.43-7.92-6.31-16.08-9.5-24.12-9.92-25-18.79-50.55-30.15-74.9S363.81,243.79,337,241c-12.71-1.33-25.62-.72-38.44-.93-6.23-.11-13.56-7.4-13.56-13.64,0-22.66,0-45.32,0-68,0-14-3.28-27.19-11.45-38.61-4.68-6.53-10.64-12.14-16.28-18.45-.11.48-.13.26,0,.18.78-.62,1.58-1.21,2.38-1.8,20-14.71,28.81-34.49,24.08-58.81-4.58-23.62-19.48-38.73-42.86-45.18C239.21-4.67,237.62-5.4,236-6Z" transform="translate(6 6)"/><path class="cls-2" d="M163,506H-6V-6H217a30.42,30.42,0,0,1-4.33,1.87,57.75,57.75,0,0,0-32.83,89.6c2.75,3.89,6.14,7.32,9.4,11.15-10.56,5.44-19.53,12.51-25.94,22.38-13.68,21.09-20.86,44.42-23.39,69.29-.38,3.8-.4,6.84-5.51,8.37-43,12.86-75,39.45-95.79,79.16-5,9.65-8.35,20.26-11.86,30.62-1.84,5.44,1.48,10.46,6.76,12.13,4.69,1.49,9.89-1.24,12-6.37.57-1.38.95-2.83,1.41-4.26,11.68-36.69,34.62-64.08,68.49-82.2,7.35-3.93,15.28-6.74,23.54-10.32,0,8.88-.34,16.57.13,24.2.28,4.6-1.41,6.55-5.47,8.33C79.27,271.9,53.88,337.64,78,391.58c29.53,66.07,109.86,86.95,167.79,43.61C303.47,392,303.05,302.63,245,260a116.6,116.6,0,0,0-37.7-18.33V213.17c73.27,14.87,121,86.61,107.16,160.6A137.56,137.56,0,0,1,199.81,484.12c-44.58,6.61-83.31-6.2-116.18-36.74a131.58,131.58,0,0,1-35.71-56.33c-.51-1.58-1-3.17-1.64-4.71-2.39-5.83-7.47-8.62-12.57-7-5.44,1.77-8.11,7.25-6.28,13.38A153.08,153.08,0,0,0,47,434.65c23.75,35.26,56.17,58,97.76,67.48C150.82,503.51,156.91,504.72,163,506ZM40.9,348.65a10,10,0,0,0-19.9.13c0,5.33,5,10.26,10.26,10A10.44,10.44,0,0,0,40.9,348.65Z" transform="translate(6 6)"/><path class="cls-3" d="M163,506c-6.07-1.28-12.16-2.49-18.22-3.87-41.59-9.45-74-32.22-97.76-67.48a153.08,153.08,0,0,1-19.57-41.9c-1.83-6.13.84-11.61,6.28-13.38,5.1-1.65,10.18,1.14,12.57,7,.63,1.54,1.13,3.13,1.64,4.71a131.58,131.58,0,0,0,35.71,56.33c32.87,30.54,71.6,43.35,116.18,36.74A137.56,137.56,0,0,0,314.49,373.77c13.85-74-33.89-145.73-107.16-160.6V241.7A116.6,116.6,0,0,1,245,260c58,42.6,58.44,132,.75,175.16C187.85,478.53,107.52,457.65,78,391.58,53.88,337.64,79.27,271.9,133.63,248c4.06-1.78,5.75-3.73,5.47-8.33-.47-7.63-.13-15.32-.13-24.2-8.26,3.58-16.19,6.39-23.54,10.32-33.87,18.12-56.81,45.51-68.49,82.2-.46,1.43-.84,2.88-1.41,4.26-2.14,5.13-7.34,7.86-12,6.37-5.28-1.67-8.6-6.69-6.76-12.13,3.51-10.36,6.82-21,11.86-30.62,20.75-39.71,52.78-66.3,95.79-79.16,5.11-1.53,5.13-4.57,5.51-8.37,2.53-24.87,9.71-48.2,23.39-69.29,6.41-9.87,15.38-16.94,25.94-22.38-3.26-3.83-6.65-7.26-9.4-11.15a57.75,57.75,0,0,1,32.83-89.6A30.42,30.42,0,0,0,217-6h19c1.62.6,3.21,1.33,4.87,1.79C264.25,2.24,279.15,17.35,283.73,41c4.73,24.32-4.09,44.1-24.08,58.81-.8.59-1.6,1.18-2.38,1.8-.1.08-.08.3,0-.18,5.64,6.31,11.6,11.92,16.28,18.45,8.17,11.42,11.48,24.57,11.45,38.61-.06,22.66,0,45.32,0,68,0,6.24,7.33,13.53,13.56,13.64,12.82.21,25.73-.4,38.44.93,26.79,2.78,47.46,16.39,58.81,40.69s20.23,49.88,30.15,74.9c3.19,8,6.07,16.2,9.5,24.12a8.68,8.68,0,0,0,5,4.45c26.16,6.63,41,28.91,38.44,57.52-.48,5.33-4.15,8.68-9.55,9.23-1.65.16-3.33.08-5,.08q-81,0-162-.06a9.52,9.52,0,0,0-7.77,3.31c-21.73,23.53-48.37,38.81-79.38,46.47-7.32,1.8-14.82,2.87-22.24,4.28ZM138.13,268.38c-34.26,15.39-57.36,58.81-46.24,102,10.91,42.41,52.69,72,95.29,67.21,47.09-5.34,81.59-42.87,81.78-89.35.19-47.37-35-78.67-62-85.11,0,5,.1,10,0,15-.12,4.48,0,9-.83,13.43-2.77,15.18-15.8,26.3-31.5,27.28-15,.94-29.88-8.87-33.62-23.69C138.84,286.63,139,277.46,138.13,268.38Zm126.14-53.33c0-21.88,1.22-43.28-.36-64.46-1.47-19.79-13.9-32.82-32.86-38.42-18.64-5.51-35.49-.89-47.87,14-14.57,17.54-21.58,39.05-22.81,61.31-1.8,32.57-1.11,65.27-1.28,97.92,0,6,3.32,10.39,9,12.6,9.44,3.68,18.83-3.23,18.86-14,.09-30.5,0-61,0-91.49a39.71,39.71,0,0,1,.09-4.5c.61-5.61,4.58-9.45,9.76-9.55s9.29,3.7,10,9.24c.22,1.6.28,3.22.43,5A158.73,158.73,0,0,1,264.27,215.05Zm194.5,216.72c-1.32-15.2-11.7-26.37-26.32-27.45-7.2-.53-11-3.71-13.5-10.27-12.15-31.82-24.62-63.52-36.94-95.27-3.85-9.93-9.3-18.68-17.51-25.67-15.62-13.3-34.17-13.82-54.07-12.75A163.81,163.81,0,0,1,333.72,316a49.25,49.25,0,0,0,5.49,0c8.16-1,12.9,2.54,16.06,10.14,5.87,14.11,12.51,27.9,18.84,41.81q14.53,32,29,63.85ZM227.15,14C206.58,13.9,189.26,31,189,51.72c-.23,20.53,16.83,37.9,37.57,38.24S264.94,72.85,265,52C265,31.43,247.82,14.17,227.15,14Zm154,417.76c-14.59-32.11-29-63.77-43.38-95.44,1,34.37-6.84,66-24.84,95.44Z" transform="translate(6 6)"/><path class="cls-4" d="M40.9,348.65a10.44,10.44,0,0,1-9.64,10.17C26,359,21,354.11,21,348.78a10,10,0,0,1,19.9-.13Z" transform="translate(6 6)"/><path class="cls-2" d="M138.13,268.38c.9,9.08.71,18.25,2.88,26.83,3.74,14.82,18.64,24.63,33.62,23.69,15.7-1,28.73-12.1,31.5-27.28.8-4.39.71-8.95.83-13.43.13-5,0-10,0-15,27,6.44,62.16,37.74,62,85.11-.19,46.48-34.69,84-81.78,89.35-42.6,4.82-84.38-24.8-95.29-67.21C80.77,327.19,103.87,283.77,138.13,268.38Zm108.83,87c.41-12.16-2.5-16.57-8.67-17.28-5.61-.64-10.64,3.56-10.94,10.37-.63,14.63-6.42,26.53-17,36.48-4.74,4.44-4.63,10.51-.51,14.65,3.74,3.76,9.8,3.65,14.39-.5C238.34,386.37,246,370.45,247,355.41Zm-68.54,60.73A9.82,9.82,0,0,0,189,407.09a10,10,0,0,0-9.54-10.7,10.23,10.23,0,0,0-10.38,9.43A10,10,0,0,0,178.42,416.14Z" transform="translate(6 6)"/><path class="cls-2" d="M264.27,215.05a158.73,158.73,0,0,0-57-22.4c-.15-1.76-.21-3.38-.43-5-.76-5.54-4.92-9.34-10-9.24s-9.15,3.94-9.76,9.55a39.71,39.71,0,0,0-.09,4.5c0,30.49.06,61,0,91.49,0,10.8-9.42,17.71-18.86,14-5.68-2.21-9-6.57-9-12.6.17-32.65-.52-65.35,1.28-97.92,1.23-22.26,8.24-43.77,22.81-61.31,12.38-14.89,29.23-19.51,47.87-14,19,5.6,31.39,18.63,32.86,38.42C265.49,171.77,264.27,193.17,264.27,215.05Z" transform="translate(6 6)"/><path class="cls-5" d="M458.77,431.77H403.14q-14.46-31.81-29-63.85c-6.33-13.91-13-27.7-18.84-41.81-3.16-7.6-7.9-11.14-16.06-10.14a49.25,49.25,0,0,1-5.49,0,163.81,163.81,0,0,0-23.29-55.64c19.9-1.07,38.45-.55,54.07,12.75,8.21,7,13.66,15.74,17.51,25.67,12.32,31.75,24.79,63.45,36.94,95.27,2.5,6.56,6.3,9.74,13.5,10.27C447.07,405.4,457.45,416.57,458.77,431.77Z" transform="translate(6 6)"/><path class="cls-2" d="M227.15,14C247.82,14.17,265,31.43,265,52c0,20.82-17.7,38.28-38.38,37.93S188.79,72.25,189,51.72C189.26,31,206.58,13.9,227.15,14Z" transform="translate(6 6)"/><path class="cls-5" d="M381.16,431.8H312.94c18-29.46,25.81-61.07,24.84-95.44C352.17,368,366.57,399.69,381.16,431.8Z" transform="translate(6 6)"/><path class="cls-6" d="M247,355.41c-1,15-8.62,31-22.75,43.72-4.59,4.15-10.65,4.26-14.39.5-4.12-4.14-4.23-10.21.51-14.65,10.6-10,16.39-21.85,17-36.48.3-6.81,5.33-11,10.94-10.37C244.46,338.84,247.37,343.25,247,355.41Z" transform="translate(6 6)"/><path class="cls-4" d="M178.42,416.14a10,10,0,0,1-9.36-10.32,10.23,10.23,0,0,1,10.38-9.43,10,10,0,0,1,9.54,10.7A9.82,9.82,0,0,1,178.42,416.14Z" transform="translate(6 6)"/></svg>