<svg id="Layer_1" data-name="Layer 1" xmlns="http://www.w3.org/2000/svg" viewBox="0 0 512 512"><defs><style>.cls-1{fill:#fefdfd;}.cls-2{fill:#e02b2b;}.cls-3{fill:#e02c2c;}.cls-4{fill:#fdfafa;}.cls-5{fill:#fefcfc;}</style></defs><path class="cls-1" d="M348,506H170c10-4.36,13-12.22,12.84-22.73-.39-30.15-.13-60.3-.13-90.45v-6.21c5.28,0,9.91,0,14.55,0,8.19.09,14.77-2.71,18.07-10.66s.61-14.49-5.23-20.28c-16.09-15.95-32.05-32-48.1-48-8.8-8.77-18.27-8.75-27.05,0-16,16-32,32.08-48.1,48C81,361.49,78.29,368,81.6,376s9.87,10.76,18.07,10.67c4.75-.05,9.5,0,14.58,0v6.16c0,30.15.26,60.3-.14,90.44C114,493.77,116.92,501.68,127,506H-6V-6H226a13.52,13.52,0,0,1-3,1C164.9,0,111.08,17.74,61.73,48.87a345.89,345.89,0,0,0-61.1,49c-4.52,4.55-5.06,9-1,13.15q20.81,21.26,41.93,42.21c3.78,3.76,7.92,3.62,12.07.17,1.28-1.06,2.39-2.32,3.61-3.45C130.51,81.8,216.31,57.58,314.07,78.62c51.15,11,95.13,36.36,132.44,73.14,5.45,5.37,9.65,5.63,14.62.66Q481.3,132.29,501.29,112c4.86-4.94,4.76-9.35-.25-14.29Q415.29,13.2,296-3.07L274-6H506V506H357.05c3.12-2,6.71-3.57,9.31-6.13,16.52-16.21,32.81-32.66,49.2-49,5.6-5.59,7.62-12.13,4.58-19.57s-9.05-10.69-17-10.55c-5.09.09-10.19,0-15.75,0v-6.07q0-47.46,0-94.92c0-11.77-6.92-18.57-18.65-18.63-10-.06-20,0-30,0-12.86,0-19.59,6.83-19.59,19.82q0,47,0,93.92v5.89c-5.59,0-10.71.06-15.82,0-8-.12-13.93,3.27-17,10.7-3,7.26-1,13.68,4.5,19.13,9.31,9.29,18.51,18.7,28,27.85C328.41,487.75,338.28,496.82,348,506Zm73.51-316.52c-1.83-2.67-3.09-5.46-5.14-7.39-62.56-58.91-136-79.92-219.95-61.49-43.11,9.45-80.12,30.88-111.55,61.88-4.79,4.72-5.29,9.11-1,13.48q20.61,21.09,41.55,41.85c3.68,3.66,8.14,3.63,12.14.37,1.81-1.46,3.39-3.2,5.14-4.74,46.69-40.81,99.77-52.36,159-34C325,206.65,345,219.6,362.46,236.63c5.29,5.17,9.61,5.5,14.3.82q20.52-20.46,40.77-41.21C419.17,194.56,420,192.11,421.55,189.48ZM250.3,232.78c-29.59.37-56.42,10.33-79.43,30.39-7.07,6.15-7.14,10.36-.38,16.92C192,301,213.57,321.76,235,342.74c10.84,10.64,20.95,11.07,31.73.61q32.81-31.82,65.49-63.75c6-5.81,5.89-10.42-.36-15.93C308.79,243.37,281.9,233.13,250.3,232.78Z" transform="translate(6 6)"/><path class="cls-2" d="M274-6,296-3.07Q415.39,13,501,97.68c5,4.94,5.11,9.35.25,14.29q-20,20.32-40.16,40.45c-5,5-9.17,4.71-14.62-.66C409.2,115,365.22,89.63,314.07,78.62c-97.76-21-183.56,3.18-256.88,71.29-1.22,1.13-2.33,2.39-3.61,3.45-4.15,3.45-8.29,3.59-12.07-.17Q20.41,132.22-.42,111c-4-4.1-3.47-8.6,1.05-13.15a345.89,345.89,0,0,1,61.1-49C111.08,17.74,164.9,0,223-5a13.52,13.52,0,0,0,3-1ZM483.76,105c-136.44-132.15-348.6-118-465.52.22l29.87,29.4c57.15-52.72,124.79-80.51,203-80.46s145.75,28,202.38,80.28Z" transform="translate(6 6)"/><path class="cls-3" d="M127,506c-10.1-4.32-13-12.23-12.91-22.79.4-30.14.14-60.29.14-90.44v-6.16c-5.08,0-9.83,0-14.58,0-8.2.09-14.77-2.73-18.07-10.67s-.59-14.46,5.27-20.26c16.1-15.94,32.06-32,48.1-48,8.78-8.76,18.25-8.78,27.05,0,16,16,32,32.07,48.1,48,5.84,5.79,8.54,12.33,5.23,20.28s-9.88,10.75-18.07,10.66c-4.64-.05-9.27,0-14.55,0v6.21c0,30.15-.26,60.3.13,90.45C183,493.78,180,501.64,170,506Zm38.61-17.2V483q0-50.72,0-101.43c0-9.67,2.44-12.1,12.11-12.13,6.89,0,13.79,0,20.47,0L149,319.63,98.91,369.4h18.18c12.6,0,14.25,1.62,14.25,14V488.8Z" transform="translate(6 6)"/><path class="cls-2" d="M348,506c-9.76-9.18-19.63-18.25-29.26-27.58-9.45-9.15-18.65-18.56-28-27.85-5.46-5.45-7.47-11.87-4.5-19.13,3-7.43,8.95-10.82,17-10.7,5.11.07,10.23,0,15.82,0v-5.89q0-47,0-93.92c0-13,6.73-19.79,19.59-19.82,10,0,20-.05,30,0,11.73.06,18.63,6.86,18.65,18.63q.1,47.46,0,94.92v6.07c5.56,0,10.66.08,15.75,0,8-.14,14,3.08,17,10.55s1,14-4.58,19.57c-16.39,16.35-32.68,32.8-49.2,49-2.6,2.56-6.19,4.11-9.31,6.13ZM336.16,318.44v5.61q0,51.46,0,102.92c0,7.9-2.94,10.78-10.88,10.85-3.5,0-7,0-10.5,0H303.44l49.68,49.85,49.64-49.61c.17.1-.09-.18-.34-.19q-10,0-20-.05c-9.47,0-12.15-2.71-12.15-12.23q0-50.72,0-101.42v-5.74Z" transform="translate(6 6)"/><path class="cls-2" d="M421.55,189.48c-1.53,2.63-2.38,5.08-4,6.76Q397.28,217,376.76,237.45c-4.69,4.68-9,4.35-14.3-.82-17.43-17-37.51-30-60.76-37.19-59.21-18.36-112.29-6.81-159,34-1.75,1.54-3.33,3.28-5.14,4.74-4,3.26-8.46,3.29-12.14-.37Q104.53,217,83.89,196c-4.27-4.37-3.77-8.76,1-13.48,31.43-31,68.44-52.43,111.55-61.88,84-18.43,157.39,2.58,220,61.49C418.46,184,419.72,186.81,421.55,189.48Zm-22.14.13c-89.85-84.42-225.19-71.43-297,.48l29.71,29.35c67.52-62.07,173.47-59.25,237.21-.26Z" transform="translate(6 6)"/><path class="cls-2" d="M250.3,232.78c31.6.35,58.49,10.59,81.53,30.89,6.25,5.51,6.33,10.12.36,15.93q-32.73,31.89-65.49,63.75c-10.78,10.46-20.89,10-31.73-.61-21.4-21-43-41.77-64.48-62.65-6.76-6.56-6.69-10.77.38-16.92C193.88,243.11,220.71,233.15,250.3,232.78ZM251,334.35l64.24-62.18c-40-32.09-96.73-27.12-128.08.23Z" transform="translate(6 6)"/><path class="cls-1" d="M483.76,105l-30.23,29.44C396.9,82.16,329.34,54.22,251.15,54.17s-145.89,27.74-203,80.46l-29.87-29.4C135.16-12.95,347.32-27.14,483.76,105Z" transform="translate(6 6)"/><path class="cls-4" d="M165.63,488.8H131.34V383.38c0-12.36-1.65-14-14.25-14H98.91L149,319.63l49.19,49.77c-6.68,0-13.58,0-20.47,0-9.67,0-12.1,2.46-12.11,12.13q0,50.71,0,101.43Z" transform="translate(6 6)"/><path class="cls-5" d="M336.16,318.44h34.11v5.74q0,50.71,0,101.42c0,9.52,2.68,12.21,12.15,12.23q10,0,20,.05c.25,0,.51.29.34.19l-49.64,49.61-49.68-49.85h11.33c3.5,0,7,0,10.5,0,7.94-.07,10.87-2.95,10.88-10.85q0-51.45,0-102.92Z" transform="translate(6 6)"/><path class="cls-1" d="M399.41,189.61l-30.05,29.57c-63.74-59-169.69-61.81-237.21.26l-29.71-29.35C174.22,118.18,309.56,105.19,399.41,189.61Z" transform="translate(6 6)"/><path class="cls-1" d="M251,334.35l-63.84-62c31.35-27.35,88.07-32.32,128.08-.23Z" transform="translate(6 6)"/></svg>