<svg id="Layer_1" data-name="Layer 1" xmlns="http://www.w3.org/2000/svg" viewBox="0 0 475.78 95.9"><defs><style>.cls-1{fill:#e8e8e8;}</style></defs><path class="cls-1" d="M58.84,263.56l8.25,8.25L65,273.38a33.62,33.62,0,0,1-9.25,4.55,33.13,33.13,0,0,1-10.82,1.71,35,35,0,0,1-24.75-10.1,35.45,35.45,0,0,1-7.47-11.1,34,34,0,0,1-2.78-13.66,35.26,35.26,0,0,1,9.89-24.69,34.12,34.12,0,0,1,10.74-7.47,32,32,0,0,1,25.9-.21,32.78,32.78,0,0,1,10.39,7.19l-9.11,7.68a25.45,25.45,0,0,0-5.83-3.77,18.23,18.23,0,0,0-8.26-1.92q-9.53,0-15.58,6.4t-6,16.79a22.88,22.88,0,0,0,2.13,10.53,26.33,26.33,0,0,0,5.12,6.54,21.59,21.59,0,0,0,7.12,4.41,29.28,29.28,0,0,0,11.88,1.57A17.24,17.24,0,0,0,56,265.41Z" transform="translate(-9.89 -183.74)"/><path class="cls-1" d="M75.34,183.74l12.1,4.84v90.2H75.34Z" transform="translate(-9.89 -183.74)"/><path class="cls-1" d="M129.55,209.49q15.07,0,24,8.9t9,24.68v35.29H150.32V272a18.44,18.44,0,0,1-3,2.42,26.62,26.62,0,0,1-7.39,3.56,33.94,33.94,0,0,1-10.39,1.42,29,29,0,0,1-12.66-2.84,32.9,32.9,0,0,1-10.25-7.4,34.23,34.23,0,0,1-6.9-11,37.15,37.15,0,0,1-2.49-13.73,36.38,36.38,0,0,1,2.49-13.44,35.84,35.84,0,0,1,6.83-11.1,32.88,32.88,0,0,1,10.32-7.61A30.38,30.38,0,0,1,129.55,209.49Zm15.08,51.37a24.17,24.17,0,0,0,4.55-7.4,24.36,24.36,0,0,0,0-17.93,24.17,24.17,0,0,0-4.55-7.4,21.79,21.79,0,0,0-6.69-5,18.71,18.71,0,0,0-7.89-1.7,17.81,17.81,0,0,0-7.76,1.7,21.75,21.75,0,0,0-6.68,5,23.28,23.28,0,0,0-4.49,7.4,25.47,25.47,0,0,0,0,17.93,23.28,23.28,0,0,0,4.49,7.4,20.08,20.08,0,0,0,6.54,4.83,18.07,18.07,0,0,0,8,1.85,17.14,17.14,0,0,0,7.82-1.85A19.74,19.74,0,0,0,144.63,260.86Z" transform="translate(-9.89 -183.74)"/><path class="cls-1" d="M206.1,242.36q13.36,5,13.37,17.36a18.56,18.56,0,0,1-2,8.68,20.54,20.54,0,0,1-5.55,6.26,24.07,24.07,0,0,1-7.83,3.7,31.1,31.1,0,0,1-9,1.28,28,28,0,0,1-8.46-1.28,24.29,24.29,0,0,1-6.76-3.2,44.91,44.91,0,0,1-4.7-3.78,27.78,27.78,0,0,1-3-3.13l-.85-1.28,9-8.67c.19.28.48.66.86,1.13a29.63,29.63,0,0,0,2.35,2.42,40.29,40.29,0,0,0,3.55,3.06,19.36,19.36,0,0,0,4.41,2.42,13.83,13.83,0,0,0,5.2,1.07q5.4,0,8.11-2.63a8.09,8.09,0,0,0,2.7-5.91,6.13,6.13,0,0,0-1.42-3.7,10.09,10.09,0,0,0-4-3q-.57-.28-8.61-3.27c-5.35-2-8.37-3.13-9-3.41a27.42,27.42,0,0,1-6.83-4.41,17.68,17.68,0,0,1-4.55-5.84,14.82,14.82,0,0,1-1.71-7,16.84,16.84,0,0,1,2.13-8.54,19.1,19.1,0,0,1,5.41-6.26,26.2,26.2,0,0,1,7.83-3.7,35,35,0,0,1,9-1.13,27.81,27.81,0,0,1,8.47,1.28,25.22,25.22,0,0,1,6.75,3.13,47.38,47.38,0,0,1,4.7,3.62,25.67,25.67,0,0,1,3,3.06l.85,1.43-9,8.53c-.19-.28-.48-.66-.86-1.13a31.81,31.81,0,0,0-2.27-2.42,25.78,25.78,0,0,0-3.56-3,23.33,23.33,0,0,0-4.48-2.35,13.82,13.82,0,0,0-5.19-1.07q-5.42,0-8.11,2.57a7.81,7.81,0,0,0-2.71,5.83,5.53,5.53,0,0,0,1,3.27,11.46,11.46,0,0,0,3.13,2.85,33.41,33.41,0,0,0,4.55,2.13Q205.53,242.08,206.1,242.36Z" transform="translate(-9.89 -183.74)"/><path class="cls-1" d="M261.59,242.36q13.37,5,13.37,17.36a18.69,18.69,0,0,1-2,8.68,20.67,20.67,0,0,1-5.55,6.26,24.07,24.07,0,0,1-7.83,3.7,31.1,31.1,0,0,1-9,1.28,28.12,28.12,0,0,1-8.47-1.28,24.36,24.36,0,0,1-6.75-3.2,44.91,44.91,0,0,1-4.7-3.78,27.78,27.78,0,0,1-3-3.13l-.85-1.28,9-8.67c.19.28.48.66.86,1.13a29,29,0,0,0,2.34,2.42,40.37,40.37,0,0,0,3.56,3.06,19.36,19.36,0,0,0,4.41,2.42,13.83,13.83,0,0,0,5.2,1.07q5.4,0,8.1-2.63a8.07,8.07,0,0,0,2.71-5.91,6.13,6.13,0,0,0-1.42-3.7,10.09,10.09,0,0,0-4-3q-.57-.28-8.61-3.27t-9-3.41a27.42,27.42,0,0,1-6.83-4.41,17.68,17.68,0,0,1-4.55-5.84,14.82,14.82,0,0,1-1.71-7,16.84,16.84,0,0,1,2.13-8.54,19.1,19.1,0,0,1,5.41-6.26,26.09,26.09,0,0,1,7.83-3.7,35,35,0,0,1,9-1.13,27.7,27.7,0,0,1,8.46,1.28,25.15,25.15,0,0,1,6.76,3.13,47.38,47.38,0,0,1,4.7,3.62,25.67,25.67,0,0,1,3,3.06l.85,1.43-9,8.53c-.2-.28-.48-.66-.86-1.13s-1.14-1.29-2.27-2.42a25.78,25.78,0,0,0-3.56-3,23.63,23.63,0,0,0-4.48-2.35,13.83,13.83,0,0,0-5.2-1.07q-5.4,0-8.11,2.57a7.83,7.83,0,0,0-2.7,5.83,5.53,5.53,0,0,0,1,3.27,11.46,11.46,0,0,0,3.13,2.85,32.85,32.85,0,0,0,4.55,2.13Q261,242.08,261.59,242.36Z" transform="translate(-9.89 -183.74)"/><path class="cls-1" d="M334.86,218.24a28.41,28.41,0,0,1,5.76,9.11,29.86,29.86,0,0,1,2.06,11.17v40h-11.8V238.38a22.48,22.48,0,0,0-1.57-6.55,15,15,0,0,0-3.34-5.4,15.69,15.69,0,0,0-5.2-3.56,17.26,17.26,0,0,0-6.83-1.28,16.15,16.15,0,0,0-6.4,1.28,17.48,17.48,0,0,0-5.41,3.41,16.11,16.11,0,0,0-3.62,5.12,15.26,15.26,0,0,0-1.35,6.41v40.83h-12V183.88l12,4.84v27.89a23.59,23.59,0,0,1,4.69-3.42,25.54,25.54,0,0,1,6.26-2.56A28.12,28.12,0,0,1,326,212.05,27.44,27.44,0,0,1,334.86,218.24Z" transform="translate(-9.89 -183.74)"/><path class="cls-1" d="M398.89,209.49H410.7v68.87H398.89v-6.83a22.06,22.06,0,0,1-4.84,3.41,23.26,23.26,0,0,1-6.12,2.56,24.58,24.58,0,0,1-7,1,27.64,27.64,0,0,1-11.1-2.28,27,27,0,0,1-8.68-6.26,26.16,26.16,0,0,1-5.9-9.1,30.06,30.06,0,0,1-2.07-11.1V209.49H365V249.9a21.86,21.86,0,0,0,1.57,6.55,16,16,0,0,0,8.53,8.89,16.46,16.46,0,0,0,6.83,1.35,17,17,0,0,0,11.81-4.77,17.82,17.82,0,0,0,3.7-5.19,16.79,16.79,0,0,0,1.43-6.26ZM378,199.32a6.23,6.23,0,0,1-4.69,1.92,6,6,0,0,1-4.63-1.92,6.93,6.93,0,0,1-1.78-4.91,6.73,6.73,0,0,1,1.78-4.76,6,6,0,0,1,4.63-1.92,6.23,6.23,0,0,1,4.69,1.92,6.61,6.61,0,0,1,1.85,4.76A6.8,6.8,0,0,1,378,199.32Zm17.29,0a6.48,6.48,0,0,1-4.77,1.92,6,6,0,0,1-4.62-1.92,6.93,6.93,0,0,1-1.78-4.91,6.57,6.57,0,0,1,1.85-4.76,6.14,6.14,0,0,1,4.62-1.92,6.4,6.4,0,0,1,4.7,1.92,6.47,6.47,0,0,1,1.92,4.76A6.65,6.65,0,0,1,395.26,199.32Z" transform="translate(-9.89 -183.74)"/><path class="cls-1" d="M473.44,183.74l12.23,4.7v57.33q0,15.79-9,24.69t-24,8.89a30.45,30.45,0,0,1-12.67-2.7A34.34,34.34,0,0,1,429.76,269a35.1,35.1,0,0,1-6.9-11.1,38.3,38.3,0,0,1,0-27.17,34.23,34.23,0,0,1,6.9-11A35,35,0,0,1,440,212.2a30.46,30.46,0,0,1,12.67-2.71,33.85,33.85,0,0,1,10.38,1.43,27,27,0,0,1,7.4,3.55,20.07,20.07,0,0,1,3,2.42Zm-5.69,77a24.39,24.39,0,0,0,4.55-7.39,24.36,24.36,0,0,0,0-17.93,24.44,24.44,0,0,0-4.55-7.4,19.87,19.87,0,0,0-6.69-4.84,17.48,17.48,0,0,0-7.9-1.85,16.6,16.6,0,0,0-7.75,1.85,19.87,19.87,0,0,0-6.69,4.84,23.15,23.15,0,0,0-4.48,7.4,25,25,0,0,0-1.64,9,24.51,24.51,0,0,0,1.64,9,23.21,23.21,0,0,0,4.48,7.32,19.87,19.87,0,0,0,6.69,4.84,17.47,17.47,0,0,0,15.65,0A19.87,19.87,0,0,0,467.75,260.71Z" transform="translate(-9.89 -183.74)"/></svg>