<svg id="Layer_1" data-name="Layer 1" xmlns="http://www.w3.org/2000/svg" xmlns:xlink="http://www.w3.org/1999/xlink" viewBox="0 0 271.83 79.3"><defs><style>.cls-1{fill:none;}.cls-2{clip-path:url(#clip-path);}.cls-3{fill:#143b63;}.cls-4{fill:#e12829;}</style><clipPath id="clip-path" transform="translate(-109.96 -183.52)"><path class="cls-1" d="M147,238.81l4.18,4.17-1.08.8a17.28,17.28,0,0,1-4.68,2.3,16.68,16.68,0,0,1-5.47.86,17.65,17.65,0,0,1-6.92-1.36,17.42,17.42,0,0,1-5.61-3.75,17.66,17.66,0,0,1-3.78-5.61,17.16,17.16,0,0,1-1.41-6.92,17.88,17.88,0,0,1,5-12.49,17.12,17.12,0,0,1,5.43-3.78,16.21,16.21,0,0,1,13.11-.11,16.43,16.43,0,0,1,5.25,3.64l-4.6,3.89a12.85,12.85,0,0,0-3-1.91,9.13,9.13,0,0,0-4.17-1,10.37,10.37,0,0,0-7.89,3.24,11.86,11.86,0,0,0-3.06,8.49,11.56,11.56,0,0,0,1.08,5.33,13.12,13.12,0,0,0,2.6,3.31,10.88,10.88,0,0,0,3.6,2.24,14.88,14.88,0,0,0,6,.79,8.59,8.59,0,0,0,3.92-1.23Zm8.35,7.7h6.12V200.86l-6.12-2.44ZM194.94,216q4.55,4.5,4.54,12.49V246.3h-6.19v-3.24a9.92,9.92,0,0,1-1.51,1.22,13.63,13.63,0,0,1-3.75,1.8,17.17,17.17,0,0,1-5.25.72,14.7,14.7,0,0,1-6.41-1.44,16.71,16.71,0,0,1-5.19-3.74,17.4,17.4,0,0,1-3.49-5.58,18.87,18.87,0,0,1-1.26-6.95,18.47,18.47,0,0,1,1.26-6.81,18,18,0,0,1,3.46-5.61,16.55,16.55,0,0,1,5.22-3.85,15.22,15.22,0,0,1,6.41-1.37Q190.4,211.45,194.94,216Zm-1.36,13.21a12.06,12.06,0,0,0-.87-4.54,12.19,12.19,0,0,0-2.3-3.74,10.8,10.8,0,0,0-3.39-2.52,9.36,9.36,0,0,0-4-.86,8.9,8.9,0,0,0-3.93.86,10.88,10.88,0,0,0-3.38,2.52,11.75,11.75,0,0,0-2.27,3.74,12.83,12.83,0,0,0,0,9.08,11.75,11.75,0,0,0,2.27,3.74,10.23,10.23,0,0,0,3.31,2.45,9.25,9.25,0,0,0,4,.93,8.77,8.77,0,0,0,4-.93,10,10,0,0,0,3.39-2.45,12.19,12.19,0,0,0,2.3-3.74A12.06,12.06,0,0,0,193.58,229.16Zm21.88-12a7,7,0,0,1,2.63.54,12,12,0,0,1,2.27,1.18,14,14,0,0,1,1.8,1.52c.57.57,1,1,1.15,1.22a6.38,6.38,0,0,1,.43.58l4.54-4.32-.43-.72a11.86,11.86,0,0,0-1.52-1.55,24.26,24.26,0,0,0-2.37-1.84,13,13,0,0,0-3.42-1.58,14.24,14.24,0,0,0-4.29-.65,17.25,17.25,0,0,0-4.53.58,12.93,12.93,0,0,0-4,1.87,9.58,9.58,0,0,0-2.74,3.17,8.45,8.45,0,0,0-1.08,4.32,7.46,7.46,0,0,0,.87,3.52,8.86,8.86,0,0,0,2.3,3,14,14,0,0,0,3.46,2.23c.33.14,1.86.72,4.57,1.73s4.16,1.56,4.36,1.65a5.18,5.18,0,0,1,2,1.51,3.09,3.09,0,0,1,.72,1.88,4.07,4.07,0,0,1-1.37,3,5.65,5.65,0,0,1-4.1,1.34,7,7,0,0,1-2.63-.54,9.51,9.51,0,0,1-2.23-1.23,19.1,19.1,0,0,1-1.8-1.55,14.55,14.55,0,0,1-1.19-1.22,6.38,6.38,0,0,1-.43-.58l-4.54,4.4.44.64a12.84,12.84,0,0,0,1.51,1.59,24.23,24.23,0,0,0,2.37,1.91,12.66,12.66,0,0,0,3.42,1.62,14.24,14.24,0,0,0,4.29.64,15.75,15.75,0,0,0,4.53-.64,12.12,12.12,0,0,0,4-1.88,10.36,10.36,0,0,0,2.81-3.16,9.45,9.45,0,0,0,1-4.4q0-6.26-6.77-8.78-.28-.15-7.13-2.52a18.38,18.38,0,0,1-2.3-1.08A5.69,5.69,0,0,1,210.5,223a2.79,2.79,0,0,1-.51-1.66,4,4,0,0,1,1.37-2.95A5.78,5.78,0,0,1,215.46,217.14Zm28.08,0a7,7,0,0,1,2.63.54,12,12,0,0,1,2.27,1.18,14,14,0,0,1,1.8,1.52c.57.57,1,1,1.15,1.22a6.38,6.38,0,0,1,.43.58l4.54-4.32-.43-.72a12.36,12.36,0,0,0-1.51-1.55,25.75,25.75,0,0,0-2.38-1.84,13,13,0,0,0-3.42-1.58,14.23,14.23,0,0,0-4.28-.65,17.28,17.28,0,0,0-4.54.58,12.93,12.93,0,0,0-4,1.87,9.58,9.58,0,0,0-2.74,3.17,8.45,8.45,0,0,0-1.08,4.32,7.46,7.46,0,0,0,.87,3.52,8.86,8.86,0,0,0,2.3,3,14,14,0,0,0,3.46,2.23c.33.14,1.86.72,4.57,1.73s4.16,1.56,4.35,1.65a5.14,5.14,0,0,1,2,1.51,3.09,3.09,0,0,1,.72,1.88,4.07,4.07,0,0,1-1.37,3,5.65,5.65,0,0,1-4.1,1.34,7,7,0,0,1-2.63-.54,9.51,9.51,0,0,1-2.23-1.23,19.1,19.1,0,0,1-1.8-1.55,14.55,14.55,0,0,1-1.19-1.22,6.38,6.38,0,0,1-.43-.58l-4.54,4.4.44.64a12.84,12.84,0,0,0,1.51,1.59,24.23,24.23,0,0,0,2.37,1.91,12.8,12.8,0,0,0,3.42,1.62,14.24,14.24,0,0,0,4.29.64,15.75,15.75,0,0,0,4.53-.64,12.12,12.12,0,0,0,4-1.88,10.49,10.49,0,0,0,2.81-3.16,9.45,9.45,0,0,0,1-4.4q0-6.26-6.77-8.78-.28-.15-7.13-2.52a18.38,18.38,0,0,1-2.3-1.08,5.69,5.69,0,0,1-1.58-1.44,2.79,2.79,0,0,1-.51-1.66,4,4,0,0,1,1.37-2.95A5.78,5.78,0,0,1,243.54,217.14Zm43.13-1.26a13.69,13.69,0,0,0-10.08-4.29,14.08,14.08,0,0,0-3.46.43,12.77,12.77,0,0,0-3.16,1.3,12,12,0,0,0-2.38,1.73V200.94l-6-2.45v47.95h6V225.78a7.81,7.81,0,0,1,.68-3.24,8.12,8.12,0,0,1,1.84-2.6,8.8,8.8,0,0,1,2.74-1.72,8,8,0,0,1,3.24-.65,8.53,8.53,0,0,1,3.45.65,7.9,7.9,0,0,1,2.63,1.8,7.58,7.58,0,0,1,1.69,2.73,11,11,0,0,1,.79,3.31v20.31h6V226.14a15.34,15.34,0,0,0-1-5.66A14.37,14.37,0,0,0,286.67,215.88Zm28.15-8.61a3.25,3.25,0,0,0,2.41-1,3.37,3.37,0,0,0,1-2.48,3.3,3.3,0,0,0-1-2.42,3.24,3.24,0,0,0-2.37-1,3.13,3.13,0,0,0-2.34,1,3.34,3.34,0,0,0-.94,2.42,3.52,3.52,0,0,0,.9,2.48A3,3,0,0,0,314.82,207.27Zm-8.71,0a3.17,3.17,0,0,0,2.38-1,3.45,3.45,0,0,0,.93-2.48,3.38,3.38,0,0,0-.93-2.42,3.2,3.2,0,0,0-2.38-1,3.07,3.07,0,0,0-2.34,1,3.44,3.44,0,0,0-.9,2.42,3.52,3.52,0,0,0,.9,2.48A3,3,0,0,0,306.11,207.27Zm13,24.91a8.56,8.56,0,0,1-.72,3.17,8.91,8.91,0,0,1-1.87,2.63,8.69,8.69,0,0,1-2.7,1.76,8.28,8.28,0,0,1-3.28.65,8.36,8.36,0,0,1-3.45-.68,8,8,0,0,1-4.32-4.5,11.06,11.06,0,0,1-.8-3.31V211.45h-6v20.37a15.4,15.4,0,0,0,1,5.62,13.3,13.3,0,0,0,3,4.61,13.83,13.83,0,0,0,4.39,3.17,14.16,14.16,0,0,0,5.62,1.15,12.45,12.45,0,0,0,3.53-.51,11.68,11.68,0,0,0,3.09-1.29,11.37,11.37,0,0,0,2.45-1.73v3.46h6V211.45h-6ZM363,200.79v29q0,8-4.54,12.49t-12.16,4.5a15.38,15.38,0,0,1-6.41-1.37,17.38,17.38,0,0,1-5.19-3.85A17.87,17.87,0,0,1,331.2,236a19.39,19.39,0,0,1,0-13.75,17.57,17.57,0,0,1,3.49-5.58,17.77,17.77,0,0,1,5.19-3.81,15.22,15.22,0,0,1,6.41-1.37,17.17,17.17,0,0,1,5.25.72,13.63,13.63,0,0,1,3.75,1.8,9.92,9.92,0,0,1,1.51,1.22V198.42Zm-5.9,28.3a12.52,12.52,0,0,0-3.17-8.28,10,10,0,0,0-3.39-2.45,8.84,8.84,0,0,0-4-.94,8.44,8.44,0,0,0-3.93.94,10.08,10.08,0,0,0-3.38,2.45,11.64,11.64,0,0,0-2.27,3.74,12.73,12.73,0,0,0-.83,4.57,12.45,12.45,0,0,0,.83,4.54,11.83,11.83,0,0,0,2.27,3.71,10.22,10.22,0,0,0,3.38,2.45,8.9,8.9,0,0,0,7.92,0,10.16,10.16,0,0,0,3.39-2.45,12.24,12.24,0,0,0,2.3-3.75A12,12,0,0,0,357.09,229.09Z"/></clipPath></defs><g class="cls-2"><rect class="cls-3" x="189.89" y="14.97" width="23.14" height="10.61"/><rect class="cls-4" x="148.7" y="4.17" width="123.13" height="69.39"/><rect class="cls-3" width="148.7" height="79.3"/><path class="cls-4" d="M302.64,207a21.24,21.24,0,0,0,12.92-1.72,2.5,2.5,0,0,0,.9-3.42A2.56,2.56,0,0,0,313,201c-.13.06-.83.47-.29.14a3.55,3.55,0,0,1-.54.21c-.43.16-.86.3-1.3.43s-.87.24-1.32.33l-.57.11c-.07,0-.82.12-.44.07l-.44,0-.58,0c-.45,0-.91,0-1.36,0s-.91,0-1.36-.08a2.24,2.24,0,0,1-.58-.06c.35.05.37.05.09,0l-.38-.07a2.56,2.56,0,0,0-3.08,1.75,2.53,2.53,0,0,0,1.75,3.07Z" transform="translate(-109.96 -183.52)"/><path class="cls-3" d="M300.6,203.4a28.78,28.78,0,0,1,3.61,2.37l-.5-.39a28.09,28.09,0,0,1,3.05,2.72,2.5,2.5,0,0,0,4.18-2.43l-2.08-6.6a2.5,2.5,0,0,0-4.82,0l-1.24,5.86a2.7,2.7,0,0,0,.26,1.93,2.53,2.53,0,0,0,1.49,1.15,2.6,2.6,0,0,0,1.93-.25,2.55,2.55,0,0,0,1.15-1.5l1.23-5.87H304l2.08,6.61,4.18-2.43a31,31,0,0,0-7.18-5.49,2.5,2.5,0,1,0-2.52,4.32Z" transform="translate(-109.96 -183.52)"/><path class="cls-3" d="M311.05,206.6a8.53,8.53,0,0,0,6.3-2.15L313.17,202a10.2,10.2,0,0,1-.69,2.56l.25-.59a8.59,8.59,0,0,1-.79,1.5l.39-.51a1.29,1.29,0,0,1-.16.17l.51-.39a.94.94,0,0,1-.18.12l.59-.25-.17,0,.66-.09h-.18l.67.09-.18,0,.6.25a1.23,1.23,0,0,1-.25-.14l.5.39a2.72,2.72,0,0,1-.3-.29l.39.5a2.35,2.35,0,0,1-.28-.46l.25.6a4.59,4.59,0,0,1-.24-1l.09.67a5.54,5.54,0,0,1,0-1.35l-.08.66a4.93,4.93,0,0,1,.36-1.3l-.25.6a5.15,5.15,0,0,1,.62-1.07l-.39.5a4.3,4.3,0,0,1,.63-.65L315,203a1.22,1.22,0,0,1,.19-.12l-.6.25a.83.83,0,0,1,.21-.06l-.66.09h.1l-.67-.09a.58.58,0,0,1,.19,0l-.6-.25a.56.56,0,0,1,.17.09l-.51-.39a2,2,0,0,1,.29.29l-.4-.51a5.11,5.11,0,0,1,.49,1l-.25-.6a10.67,10.67,0,0,1,.68,2.55l-.09-.67a10.45,10.45,0,0,1,0,2.5l.09-.66a4.47,4.47,0,0,1-.16.81l.25-.6a.48.48,0,0,1-.1.17l.39-.5-.07.06.51-.39-.09.05.6-.26-.11,0,.66-.09h-.12l.67.09-.32-.1.59.25a4.3,4.3,0,0,1-.8-.47l.51.39a5.07,5.07,0,0,1-.65-.66l.4.51a4.41,4.41,0,0,1-.52-.89l.25.6a4.57,4.57,0,0,1-.3-1.08l.09.67a4.2,4.2,0,0,1,0-1.12l-.09.67a3.93,3.93,0,0,1,.25-.89l-.25.6a2.56,2.56,0,0,1,.33-.58l-.4.51a2.62,2.62,0,0,1,.44-.44l-.51.39a3.18,3.18,0,0,1,.44-.26l-.6.26a1.88,1.88,0,0,1,.46-.14l-.67.09a2.43,2.43,0,0,1,.27,0l-.66-.09.25.07-.59-.25a1.42,1.42,0,0,1,.23.14l-.51-.4a.75.75,0,0,1,.15.16l-.39-.51a1.78,1.78,0,0,1,.17.3l-.25-.6a6.87,6.87,0,0,1,.35,1.49l-.09-.66a3.39,3.39,0,0,1,0,.78l.09-.66a2.11,2.11,0,0,1-.15.6l.25-.6a1.68,1.68,0,0,1-.2.34l.39-.51a3.7,3.7,0,0,1-.28.28l.5-.39a1.81,1.81,0,0,1-.33.2l.6-.25a2.49,2.49,0,0,1-.37.09l.67-.09h-.19l.67.09a.83.83,0,0,1-.27-.07l.59.26-.08,0a2.71,2.71,0,0,0-1.93-.26A2.51,2.51,0,0,0,313,208a3.92,3.92,0,0,0,2.47.36,3.71,3.71,0,0,0,1.8-.93,4.36,4.36,0,0,0,1.39-3.38,7.38,7.38,0,0,0-.83-3.35,3.52,3.52,0,0,0-3.93-1.57,4.75,4.75,0,0,0-2.74,2,5.93,5.93,0,0,0-.87,2.74,6.66,6.66,0,0,0,1.63,4.82,5.3,5.3,0,0,0,1.76,1.39,3.61,3.61,0,0,0,2.55.4,3,3,0,0,0,2.09-2.14,9.67,9.67,0,0,0,.26-1.71,8.66,8.66,0,0,0,0-1.25,12.81,12.81,0,0,0-.45-3,11.42,11.42,0,0,0-.39-1.12,7.6,7.6,0,0,0-.74-1.55,3.55,3.55,0,0,0-1.94-1.53,3.26,3.26,0,0,0-2.57.36,6.17,6.17,0,0,0-2.07,2.4,8.08,8.08,0,0,0-.85,3,6.53,6.53,0,0,0,.6,3.35,3.69,3.69,0,0,0,4,2.1c1.44-.34,2.22-1.67,2.77-2.93a11.64,11.64,0,0,0,1-3.22,2.81,2.81,0,0,0-.13-1.62,2.35,2.35,0,0,0-1-1.2,2.62,2.62,0,0,0-3,.39,3.11,3.11,0,0,1-.28.23l.5-.39a6.13,6.13,0,0,1-1.26.74l.6-.25a6.73,6.73,0,0,1-1.52.42l.66-.09a5.94,5.94,0,0,1-1.46,0,2.52,2.52,0,0,0-1.77.73,2.57,2.57,0,0,0-.73,1.77,2.53,2.53,0,0,0,.73,1.77,2.89,2.89,0,0,0,1.77.73Z" transform="translate(-109.96 -183.52)"/><path class="cls-3" d="M307.1,202.8l-1.75-1.41a10.88,10.88,0,0,1-1.59-1.36l.39.51a2.9,2.9,0,0,1-.19-.29l.26.59a.44.44,0,0,1-.05-.15l.09.66a.42.42,0,0,1,0-.16l-.09.67a.51.51,0,0,1,0-.17l-.25.6a.64.64,0,0,1,.08-.14l-.39.5.17-.18-.5.4a3,3,0,0,1,.62-.36l-.6.25a3.4,3.4,0,0,1,.79-.21l-.67.09a4,4,0,0,1,.91,0l-.66-.09a4,4,0,0,1,1,.26l-.6-.25a4,4,0,0,1,.84.5l-.5-.39a4.44,4.44,0,0,1,.8.82l-.39-.51a5.11,5.11,0,0,1,.62,1.09l-.25-.6a3.94,3.94,0,0,1,.26.95l-.09-.67a3.56,3.56,0,0,1,0,.73l.09-.66a3,3,0,0,1-.13.52l.25-.59a1.9,1.9,0,0,1-.23.39l.39-.5a1.72,1.72,0,0,1-.27.27l.51-.39a1.88,1.88,0,0,1-.36.21l.59-.25a2.6,2.6,0,0,1-.4.1l.67-.09a2.09,2.09,0,0,1-.5,0l.66.09a2.67,2.67,0,0,1-.57-.16l.59.25a2.34,2.34,0,0,1-.43-.26l.5.39a3.05,3.05,0,0,1-.44-.44l.39.5a3.29,3.29,0,0,1-.41-.7l.25.6a4.19,4.19,0,0,1-.3-1l.09.67v-.21l-.08.66a1.31,1.31,0,0,1,.06-.27l-.25.6a1.4,1.4,0,0,1,.09-.17l-.39.51a.6.6,0,0,1,.08-.08l-.51.4,0,0-.6.25h.05l-.66.08h.1l-.66-.09.06,0a2.53,2.53,0,0,0,3.07-1.75,2.57,2.57,0,0,0-1.74-3.08,2.85,2.85,0,0,0-3.22,1.33,3.73,3.73,0,0,0-.33,2.64,6.29,6.29,0,0,0,.62,1.68,4.57,4.57,0,0,0,1.08,1.39,4.64,4.64,0,0,0,4.26,1.07,3.93,3.93,0,0,0,1.86-1.15,4.27,4.27,0,0,0,1-1.9,6,6,0,0,0-.52-3.84,6.4,6.4,0,0,0-.78-1.25,6.47,6.47,0,0,0-1-1.08,7.55,7.55,0,0,0-.91-.66A8.66,8.66,0,0,0,306,198a6.32,6.32,0,0,0-1.78-.35,5.66,5.66,0,0,0-1.79.2,4.68,4.68,0,0,0-1.6.74,3.51,3.51,0,0,0-1.28,1.52,3,3,0,0,0-.13,2,3.88,3.88,0,0,0,1.42,2l2.77,2.25a2.71,2.71,0,0,0,1.77.73,2.49,2.49,0,0,0,2.5-2.5,2.47,2.47,0,0,0-.73-1.77Z" transform="translate(-109.96 -183.52)"/></g></svg>